<svg width="911" height="640" viewBox="0 0 911 640" fill="none" xmlns="http://www.w3.org/2000/svg">
<path fill-rule="evenodd" clip-rule="evenodd" d="M498.831 114.685C505.75 76.3814 548.915 72.1522 548.915 72.1522C548.915 72.1522 544.777 17.9005 590.235 3.81553C635.693 -10.2695 667.046 19.1751 667.046 19.1751C667.046 19.1751 668.645 10.9594 687.228 13.3533C705.812 15.7471 702.597 37.056 702.597 37.056C702.597 37.056 729.622 30.664 744.564 42.7685C759.505 54.873 759.505 79.4087 759.505 79.4087C759.505 79.4087 802.972 86.1595 798.705 125.174C794.439 164.189 767.584 170.279 767.584 170.279L530.491 171C530.491 171 491.911 152.989 498.831 114.685Z" fill="#E2E8F0"/>
<path fill-rule="evenodd" clip-rule="evenodd" d="M48.8308 583.685C55.7504 545.381 98.9149 541.152 98.9149 541.152C98.9149 541.152 94.7766 486.901 140.235 472.816C185.693 458.731 217.046 488.175 217.046 488.175C217.046 488.175 218.645 479.959 237.228 482.353C255.812 484.747 252.597 506.056 252.597 506.056C252.597 506.056 279.622 499.664 294.564 511.768C309.505 523.873 309.505 548.409 309.505 548.409C309.505 548.409 352.972 555.16 348.705 594.174C344.439 633.189 317.584 639.279 317.584 639.279L80.4907 640C80.4907 640 41.9111 621.989 48.8308 583.685Z" fill="#E2E8F0"/>
<g filter="url(#filter0_d)">
<rect x="45.6563" y="261.656" width="456.817" height="111.579" rx="4.59443" fill="white" stroke="#E0E2E5" stroke-width="1.31269"/>
<path d="M81.7659 300.69L76.3681 286.681H72.6295L67.2318 300.69H70.6133L71.4954 298.317H77.5023L78.3844 300.69H81.7659ZM76.6831 295.692H72.3145L74.4988 289.664L76.6831 295.692ZM85.9068 300.942C87.02 300.942 87.7341 300.648 88.1331 300.291L87.566 298.254C87.419 298.422 87.041 298.569 86.6419 298.569C86.0538 298.569 85.7178 298.086 85.7178 297.435V292.877H87.7761V290.546H85.7178V287.774H83.0504V290.546H81.3701V292.877H83.0504V298.149C83.0504 299.976 84.0375 300.942 85.9068 300.942ZM97.6628 300.69V286.681H94.9954V300.69H97.6628ZM105.075 300.942C106.651 300.942 108.247 300.459 109.255 299.535L108.058 297.771C107.407 298.401 106.231 298.758 105.369 298.758C103.647 298.758 102.639 297.729 102.45 296.49H109.99V295.86C109.99 292.562 107.953 290.294 104.907 290.294C101.841 290.294 99.6566 292.667 99.6566 295.608C99.6566 298.863 101.988 300.942 105.075 300.942ZM107.428 294.642H102.429C102.534 293.633 103.248 292.478 104.907 292.478C106.672 292.478 107.344 293.675 107.428 294.642ZM120.696 300.69V294.137C120.696 291.218 118.575 290.294 116.243 290.294C114.647 290.294 113.051 290.777 111.812 291.89L112.862 293.759C113.702 292.982 114.71 292.562 115.781 292.562C117.126 292.562 118.008 293.234 118.008 294.263V295.545C117.336 294.747 116.159 294.305 114.794 294.305C113.177 294.305 111.287 295.188 111.287 297.582C111.287 299.85 113.177 300.942 114.794 300.942C116.117 300.942 117.315 300.459 118.008 299.619V300.69H120.696ZM115.865 299.136C114.815 299.136 113.954 298.59 113.954 297.624C113.954 296.658 114.815 296.091 115.865 296.091C116.727 296.091 117.567 296.406 118.008 296.994V298.254C117.567 298.842 116.727 299.136 115.865 299.136ZM126.975 300.942C129.79 300.942 131.386 299.577 131.386 297.708C131.386 293.612 125.358 294.873 125.358 293.381C125.358 292.814 125.988 292.394 126.954 292.394C128.194 292.394 129.349 292.94 129.958 293.57L131.029 291.68C130.021 290.882 128.656 290.294 126.954 290.294C124.266 290.294 122.796 291.785 122.796 293.486C122.796 297.477 128.803 296.112 128.803 297.771C128.803 298.401 128.257 298.842 127.101 298.842C125.841 298.842 124.35 298.149 123.594 297.435L122.439 299.367C123.51 300.354 125.211 300.942 126.975 300.942ZM136.733 300.942C137.846 300.942 138.56 300.648 138.959 300.291L138.392 298.254C138.245 298.422 137.867 298.569 137.468 298.569C136.88 298.569 136.544 298.086 136.544 297.435V292.877H138.602V290.546H136.544V287.774H133.876V290.546H132.196V292.877H133.876V298.149C133.876 299.976 134.863 300.942 136.733 300.942ZM152.542 300.942C156.764 300.942 159.851 297.918 159.851 293.696C159.851 289.475 156.764 286.45 152.542 286.45C148.3 286.45 145.212 289.475 145.212 293.696C145.212 297.918 148.3 300.942 152.542 300.942ZM152.542 298.296C149.938 298.296 148.279 296.301 148.279 293.696C148.279 291.071 149.938 289.097 152.542 289.097C155.126 289.097 156.785 291.071 156.785 293.696C156.785 296.301 155.126 298.296 152.542 298.296ZM174.483 300.69V286.681H171.501V295.482L165.011 286.681H161.944V300.69H164.927V291.554L171.606 300.69H174.483ZM187.159 300.69V298.065H180.228V294.873H187.012V292.247H180.228V289.307H187.159V286.681H177.245V300.69H187.159ZM199.526 300.942C202.887 300.942 204.903 298.485 204.903 295.608C204.903 292.73 202.887 290.294 199.526 290.294C196.187 290.294 194.171 292.73 194.171 295.608C194.171 298.485 196.187 300.942 199.526 300.942ZM199.526 298.569C197.867 298.569 196.943 297.204 196.943 295.608C196.943 294.032 197.867 292.667 199.526 292.667C201.207 292.667 202.131 294.032 202.131 295.608C202.131 297.204 201.207 298.569 199.526 298.569ZM210.179 300.69V292.877H212.237V290.546H210.179V290.126C210.179 289.139 210.683 288.656 211.439 288.656C211.922 288.656 212.279 288.803 212.552 289.055L213.56 287.437C212.951 286.744 211.901 286.471 210.914 286.471C208.877 286.471 207.512 287.837 207.512 290.126V290.546H205.831V292.877H207.512V300.69H210.179ZM222.57 300.942C223.684 300.942 224.398 300.648 224.797 300.291L224.23 298.254C224.083 298.422 223.705 298.569 223.306 298.569C222.718 298.569 222.381 298.086 222.381 297.435V292.877H224.44V290.546H222.381V287.774H219.714V290.546H218.034V292.877H219.714V298.149C219.714 299.976 220.701 300.942 222.57 300.942ZM235.8 300.69V293.486C235.8 291.512 234.729 290.294 232.503 290.294C230.843 290.294 229.604 291.092 228.953 291.848V286.681H226.265V300.69H228.953V293.843C229.394 293.255 230.213 292.667 231.263 292.667C232.398 292.667 233.133 293.108 233.133 294.516V300.69H235.8ZM243.216 300.942C244.791 300.942 246.387 300.459 247.395 299.535L246.198 297.771C245.547 298.401 244.371 298.758 243.51 298.758C241.788 298.758 240.78 297.729 240.59 296.49H248.131V295.86C248.131 292.562 246.093 290.294 243.048 290.294C239.981 290.294 237.797 292.667 237.797 295.608C237.797 298.863 240.128 300.942 243.216 300.942ZM245.568 294.642H240.569C240.674 293.633 241.389 292.478 243.048 292.478C244.812 292.478 245.484 293.675 245.568 294.642ZM253.712 300.942C256.526 300.942 258.122 299.577 258.122 297.708C258.122 293.612 252.095 294.873 252.095 293.381C252.095 292.814 252.725 292.394 253.691 292.394C254.93 292.394 256.085 292.94 256.694 293.57L257.765 291.68C256.757 290.882 255.392 290.294 253.691 290.294C251.002 290.294 249.532 291.785 249.532 293.486C249.532 297.477 255.539 296.112 255.539 297.771C255.539 298.401 254.993 298.842 253.838 298.842C252.578 298.842 251.086 298.149 250.33 297.435L249.175 299.367C250.246 300.354 251.948 300.942 253.712 300.942ZM264.834 300.942C266.41 300.942 268.006 300.459 269.014 299.535L267.817 297.771C267.166 298.401 265.989 298.758 265.128 298.758C263.406 298.758 262.398 297.729 262.209 296.49H269.749V295.86C269.749 292.562 267.712 290.294 264.666 290.294C261.6 290.294 259.415 292.667 259.415 295.608C259.415 298.863 261.747 300.942 264.834 300.942ZM267.187 294.642H262.188C262.293 293.633 263.007 292.478 264.666 292.478C266.431 292.478 267.103 293.675 267.187 294.642ZM280.725 300.942C283.539 300.942 285.135 299.577 285.135 297.708C285.135 293.612 279.107 294.873 279.107 293.381C279.107 292.814 279.737 292.394 280.704 292.394C281.943 292.394 283.098 292.94 283.707 293.57L284.778 291.68C283.77 290.882 282.405 290.294 280.704 290.294C278.015 290.294 276.545 291.785 276.545 293.486C276.545 297.477 282.552 296.112 282.552 297.771C282.552 298.401 282.006 298.842 280.851 298.842C279.59 298.842 278.099 298.149 277.343 297.435L276.188 299.367C277.259 300.354 278.96 300.942 280.725 300.942ZM296.993 300.69L292.855 295.146L296.867 290.546H293.59L289.747 295.062V286.681H287.079V300.69H289.747V298.086L290.965 296.784L293.653 300.69H296.993ZM299.663 289.454C300.545 289.454 301.259 288.74 301.259 287.858C301.259 286.975 300.545 286.282 299.663 286.282C298.802 286.282 298.088 286.975 298.088 287.858C298.088 288.74 298.802 289.454 299.663 289.454ZM301.007 300.69V290.546H298.34V300.69H301.007ZM306.32 300.69V286.681H303.652V300.69H306.32ZM311.632 300.69V286.681H308.964V300.69H311.632ZM317.931 300.942C320.746 300.942 322.342 299.577 322.342 297.708C322.342 293.612 316.314 294.873 316.314 293.381C316.314 292.814 316.944 292.394 317.91 292.394C319.149 292.394 320.305 292.94 320.914 293.57L321.985 291.68C320.977 290.882 319.612 290.294 317.91 290.294C315.222 290.294 313.752 291.785 313.752 293.486C313.752 297.477 319.759 296.112 319.759 297.771C319.759 298.401 319.212 298.842 318.057 298.842C316.797 298.842 315.306 298.149 314.55 297.435L313.395 299.367C314.466 300.354 316.167 300.942 317.931 300.942ZM325.651 293.801C326.575 293.801 327.352 293.024 327.352 292.1C327.352 291.176 326.575 290.399 325.651 290.399C324.727 290.399 323.95 291.176 323.95 292.1C323.95 293.024 324.727 293.801 325.651 293.801ZM325.651 300.921C326.575 300.921 327.352 300.144 327.352 299.22C327.352 298.296 326.575 297.519 325.651 297.519C324.727 297.519 323.95 298.296 323.95 299.22C323.95 300.144 324.727 300.921 325.651 300.921Z" fill="#3D3D3D"/>
<g clip-path="url(#clip0)">
<path d="M470.969 280.998C465.702 280.998 461.431 285.27 461.431 290.536C461.431 295.804 465.702 300.073 470.969 300.073C476.236 300.073 480.507 295.804 480.507 290.536C480.507 285.27 476.236 280.998 470.969 280.998ZM470.969 298.227C466.718 298.227 463.277 294.788 463.277 290.536C463.277 286.286 466.718 282.844 470.969 282.844C475.218 282.844 478.661 286.285 478.661 290.536C478.661 294.786 475.221 298.227 470.969 298.227ZM475.093 288.413C475.093 290.991 472.308 291.031 472.308 291.984V292.228C472.308 292.483 472.102 292.689 471.847 292.689H470.091C469.836 292.689 469.63 292.483 469.63 292.228V291.895C469.63 290.52 470.672 289.971 471.46 289.529C472.135 289.15 472.549 288.893 472.549 288.391C472.549 287.728 471.703 287.288 471.019 287.288C470.127 287.288 469.715 287.71 469.137 288.441C468.981 288.637 468.696 288.674 468.496 288.522L467.426 287.711C467.229 287.562 467.185 287.285 467.324 287.082C468.233 285.747 469.39 284.998 471.192 284.998C473.079 284.998 475.093 286.471 475.093 288.413V288.413ZM472.584 294.843C472.584 295.734 471.86 296.458 470.969 296.458C470.078 296.458 469.354 295.734 469.354 294.843C469.354 293.952 470.078 293.228 470.969 293.228C471.86 293.228 472.584 293.952 472.584 294.843Z" fill="#979797"/>
</g>
<path d="M80.0646 334.82L76.8932 329.486C78.4054 329.129 79.9806 327.784 79.9806 325.327C79.9806 322.723 78.1744 320.811 75.2549 320.811H68.702V334.82H71.6844V329.843H73.8687L76.6201 334.82H80.0646ZM74.8349 327.217H71.6844V323.437H74.8349C76.011 323.437 76.9142 324.151 76.9142 325.306C76.9142 326.503 76.011 327.217 74.8349 327.217ZM86.267 335.072C87.8422 335.072 89.4384 334.589 90.4466 333.665L89.2494 331.901C88.5983 332.531 87.4221 332.888 86.561 332.888C84.8387 332.888 83.8306 331.859 83.6416 330.62H91.1817V329.99C91.1817 326.692 89.1444 324.424 86.0989 324.424C83.0325 324.424 80.8482 326.797 80.8482 329.738C80.8482 332.993 83.1795 335.072 86.267 335.072ZM88.6193 328.772H83.6206C83.7256 327.763 84.4397 326.608 86.0989 326.608C87.8632 326.608 88.5353 327.805 88.6193 328.772ZM101.888 334.82V328.267C101.888 325.348 99.7664 324.424 97.435 324.424C95.8388 324.424 94.2426 324.907 93.0034 326.02L94.0535 327.889C94.8937 327.112 95.9018 326.692 96.973 326.692C98.3172 326.692 99.1993 327.364 99.1993 328.394V329.675C98.5272 328.877 97.351 328.436 95.9858 328.436C94.3686 328.436 92.4783 329.318 92.4783 331.712C92.4783 333.98 94.3686 335.072 95.9858 335.072C97.309 335.072 98.5062 334.589 99.1993 333.749V334.82H101.888ZM97.057 333.266C96.0068 333.266 95.1457 332.72 95.1457 331.754C95.1457 330.788 96.0068 330.221 97.057 330.221C97.9181 330.221 98.7582 330.536 99.1993 331.124V332.384C98.7582 332.972 97.9181 333.266 97.057 333.266ZM109.238 335.072C111.317 335.072 112.578 334.148 113.25 333.224L111.506 331.586C111.023 332.279 110.288 332.699 109.364 332.699C107.747 332.699 106.613 331.502 106.613 329.738C106.613 327.973 107.747 326.797 109.364 326.797C110.288 326.797 111.023 327.175 111.506 327.889L113.25 326.251C112.578 325.327 111.317 324.424 109.238 324.424C106.13 324.424 103.861 326.629 103.861 329.738C103.861 332.867 106.13 335.072 109.238 335.072ZM118.396 335.072C119.509 335.072 120.223 334.778 120.622 334.421L120.055 332.384C119.908 332.552 119.53 332.699 119.131 332.699C118.543 332.699 118.207 332.216 118.207 331.565V327.007H120.265V324.676H118.207V321.904H115.54V324.676H113.859V327.007H115.54V332.279C115.54 334.106 116.527 335.072 118.396 335.072ZM125.283 333.791C125.283 332.426 124.401 331.649 123.413 331.649C122.51 331.649 121.754 332.405 121.754 333.329C121.754 334.211 122.384 334.841 123.182 334.841C123.35 334.841 123.518 334.799 123.581 334.778C123.413 335.514 122.636 336.396 121.964 336.753L123.119 337.698C124.422 336.774 125.283 335.367 125.283 333.791ZM139.139 334.82V323.437H143.213V320.811H132.04V323.437H136.135V334.82H139.139ZM144.131 338.769C144.447 338.874 145.14 338.937 145.434 338.937C147.177 338.895 148.521 338.391 149.277 336.48L154.045 324.676H151.189L148.521 331.733L145.875 324.676H143.018L147.135 334.946L146.757 335.829C146.505 336.375 146.043 336.564 145.35 336.564C145.098 336.564 144.741 336.501 144.51 336.396L144.131 338.769ZM161.033 335.072C163.637 335.072 165.527 333.119 165.527 329.738C165.527 326.356 163.637 324.424 161.033 324.424C159.793 324.424 158.68 324.97 157.903 325.957V324.676H155.236V338.685H157.903V333.518C158.743 334.568 159.835 335.072 161.033 335.072ZM160.192 332.699C159.331 332.699 158.344 332.174 157.903 331.523V327.952C158.365 327.28 159.331 326.797 160.192 326.797C161.726 326.797 162.776 327.994 162.776 329.738C162.776 331.502 161.726 332.699 160.192 332.699ZM172.248 335.072C173.824 335.072 175.42 334.589 176.428 333.665L175.231 331.901C174.58 332.531 173.404 332.888 172.542 332.888C170.82 332.888 169.812 331.859 169.623 330.62H177.163V329.99C177.163 326.692 175.126 324.424 172.08 324.424C169.014 324.424 166.83 326.797 166.83 329.738C166.83 332.993 169.161 335.072 172.248 335.072ZM174.601 328.772H169.602C169.707 327.763 170.421 326.608 172.08 326.608C173.845 326.608 174.517 327.805 174.601 328.772ZM182.744 335.072C185.559 335.072 187.155 333.707 187.155 331.838C187.155 327.742 181.127 329.003 181.127 327.511C181.127 326.944 181.757 326.524 182.723 326.524C183.963 326.524 185.118 327.07 185.727 327.7L186.798 325.81C185.79 325.012 184.425 324.424 182.723 324.424C180.035 324.424 178.565 325.915 178.565 327.616C178.565 331.607 184.572 330.242 184.572 331.901C184.572 332.531 184.026 332.972 182.87 332.972C181.61 332.972 180.119 332.279 179.363 331.565L178.208 333.497C179.279 334.484 180.98 335.072 182.744 335.072ZM193.825 335.072C195.904 335.072 197.164 334.148 197.836 333.224L196.093 331.586C195.61 332.279 194.875 332.699 193.951 332.699C192.334 332.699 191.199 331.502 191.199 329.738C191.199 327.973 192.334 326.797 193.951 326.797C194.875 326.797 195.61 327.175 196.093 327.889L197.836 326.251C197.164 325.327 195.904 324.424 193.825 324.424C190.716 324.424 188.448 326.629 188.448 329.738C188.448 332.867 190.716 335.072 193.825 335.072ZM202.248 334.82V328.12C202.689 327.469 203.865 326.965 204.747 326.965C205.062 326.965 205.293 326.986 205.482 327.028V324.424C204.222 324.424 202.983 325.159 202.248 326.041V324.676H199.58V334.82H202.248ZM208.472 323.584C209.354 323.584 210.068 322.87 210.068 321.988C210.068 321.105 209.354 320.412 208.472 320.412C207.611 320.412 206.897 321.105 206.897 321.988C206.897 322.87 207.611 323.584 208.472 323.584ZM209.816 334.82V324.676H207.149V334.82H209.816ZM218.258 335.072C220.862 335.072 222.752 333.119 222.752 329.738C222.752 326.356 220.862 324.424 218.258 324.424C217.019 324.424 215.905 324.97 215.128 325.957V324.676H212.461V338.685H215.128V333.518C215.968 334.568 217.061 335.072 218.258 335.072ZM217.418 332.699C216.557 332.699 215.569 332.174 215.128 331.523V327.952C215.59 327.28 216.557 326.797 217.418 326.797C218.951 326.797 220.001 327.994 220.001 329.738C220.001 331.502 218.951 332.699 217.418 332.699ZM228.108 335.072C229.222 335.072 229.936 334.778 230.335 334.421L229.768 332.384C229.621 332.552 229.243 332.699 228.844 332.699C228.255 332.699 227.919 332.216 227.919 331.565V327.007H229.978V324.676H227.919V321.904H225.252V324.676H223.572V327.007H225.252V332.279C225.252 334.106 226.239 335.072 228.108 335.072Z" fill="#2978C9"/>
</g>
<g filter="url(#filter1_d)">
<rect x="45.6563" y="404.656" width="456.817" height="111.579" rx="4.59443" fill="white" stroke="#E0E2E5" stroke-width="1.31269"/>
<path d="M71.6844 443.69V429.681H68.702V443.69H71.6844ZM77.805 443.942C78.9182 443.942 79.6323 443.648 80.0314 443.291L79.4643 441.254C79.3173 441.422 78.9392 441.569 78.5401 441.569C77.9521 441.569 77.616 441.086 77.616 440.435V435.877H79.6743V433.546H77.616V430.773H74.9486V433.546H73.2684V435.877H74.9486V441.149C74.9486 442.976 75.9358 443.942 77.805 443.942ZM84.6918 431.614C84.6918 430.248 83.8096 429.471 82.8225 429.471C81.9193 429.471 81.1632 430.227 81.1632 431.131C81.1632 432.034 81.7933 432.643 82.5914 432.643C82.7595 432.643 82.9275 432.622 82.9905 432.58C82.8225 433.336 82.0454 434.218 81.3733 434.575L82.5284 435.52C83.8306 434.596 84.6918 433.189 84.6918 431.614ZM89.8713 443.942C92.6857 443.942 94.282 442.577 94.282 440.708C94.282 436.612 88.2541 437.873 88.2541 436.381C88.2541 435.814 88.8842 435.394 89.8503 435.394C91.0895 435.394 92.2447 435.94 92.8538 436.57L93.9249 434.68C92.9168 433.882 91.5516 433.294 89.8503 433.294C87.1619 433.294 85.6917 434.785 85.6917 436.486C85.6917 440.477 91.6986 439.112 91.6986 440.771C91.6986 441.401 91.1525 441.842 89.9973 441.842C88.7371 441.842 87.2459 441.149 86.4898 440.435L85.3346 442.367C86.4058 443.354 88.1071 443.942 89.8713 443.942ZM110.4 443.69V437.137C110.4 434.218 108.278 433.294 105.947 433.294C104.351 433.294 102.755 433.777 101.515 434.89L102.566 436.759C103.406 435.982 104.414 435.562 105.485 435.562C106.829 435.562 107.711 436.234 107.711 437.263V438.545C107.039 437.747 105.863 437.305 104.498 437.305C102.881 437.305 100.99 438.188 100.99 440.582C100.99 442.85 102.881 443.942 104.498 443.942C105.821 443.942 107.018 443.459 107.711 442.619V443.69H110.4ZM105.569 442.136C104.519 442.136 103.658 441.59 103.658 440.624C103.658 439.658 104.519 439.091 105.569 439.091C106.43 439.091 107.27 439.406 107.711 439.994V441.254C107.27 441.842 106.43 442.136 105.569 442.136ZM121.464 443.69V438.692H125.035C128.059 438.692 129.739 436.633 129.739 434.197C129.739 431.74 128.08 429.681 125.035 429.681H118.482V443.69H121.464ZM124.615 436.066H121.464V432.307H124.615C125.791 432.307 126.694 433.021 126.694 434.197C126.694 435.352 125.791 436.066 124.615 436.066ZM140.409 443.69V441.065H134.486V429.681H131.483V443.69H140.409ZM148.227 443.942C152.491 443.942 154.549 441.548 154.549 438.083V429.681H151.504V437.999C151.504 439.952 150.39 441.296 148.227 441.296C146.064 441.296 144.93 439.952 144.93 437.999V429.681H141.905V438.083C141.905 441.548 143.963 443.942 148.227 443.942ZM162.328 443.942C166.088 443.942 167.936 442.01 167.936 439.448C167.936 434.218 159.892 435.709 159.892 433.504C159.892 432.664 160.606 432.118 161.866 432.118C163.294 432.118 164.806 432.601 165.941 433.651L167.6 431.425C166.214 430.143 164.365 429.471 162.139 429.471C158.842 429.471 156.825 431.404 156.825 433.735C156.825 439.007 164.89 437.305 164.89 439.742C164.89 440.561 164.113 441.296 162.454 441.296C160.522 441.296 158.989 440.414 158.001 439.385L156.363 441.716C157.686 443.039 159.619 443.942 162.328 443.942ZM176.578 432.454C177.46 432.454 178.174 431.74 178.174 430.857C178.174 429.975 177.46 429.282 176.578 429.282C175.716 429.282 175.002 429.975 175.002 430.857C175.002 431.74 175.716 432.454 176.578 432.454ZM177.922 443.69V433.546H175.254V443.69H177.922ZM183.843 443.69V435.877H185.901V433.546H183.843V433.126C183.843 432.139 184.347 431.656 185.103 431.656C185.586 431.656 185.943 431.803 186.216 432.055L187.225 430.437C186.616 429.744 185.565 429.471 184.578 429.471C182.541 429.471 181.176 430.836 181.176 433.126V433.546H179.495V435.877H181.176V443.69H183.843ZM196.235 443.942C197.348 443.942 198.062 443.648 198.461 443.291L197.894 441.254C197.747 441.422 197.369 441.569 196.97 441.569C196.382 441.569 196.046 441.086 196.046 440.435V435.877H198.104V433.546H196.046V430.773H193.378V433.546H191.698V435.877H193.378V441.149C193.378 442.976 194.365 443.942 196.235 443.942ZM209.464 443.69V436.486C209.464 434.512 208.393 433.294 206.167 433.294C204.508 433.294 203.268 434.092 202.617 434.848V429.681H199.929V443.69H202.617V436.843C203.058 436.255 203.877 435.667 204.928 435.667C206.062 435.667 206.797 436.108 206.797 437.515V443.69H209.464ZM216.88 443.942C218.455 443.942 220.051 443.459 221.06 442.535L219.862 440.771C219.211 441.401 218.035 441.758 217.174 441.758C215.452 441.758 214.444 440.729 214.255 439.49H221.795V438.86C221.795 435.562 219.757 433.294 216.712 433.294C213.646 433.294 211.461 435.667 211.461 438.608C211.461 441.863 213.793 443.942 216.88 443.942ZM219.232 437.641H214.234C214.339 436.633 215.053 435.478 216.712 435.478C218.476 435.478 219.148 436.675 219.232 437.641ZM223.385 447.639C223.7 447.744 224.394 447.807 224.688 447.807C226.431 447.765 227.775 447.261 228.531 445.35L233.299 433.546H230.442L227.775 440.603L225.129 433.546H222.272L226.389 443.816L226.011 444.699C225.759 445.245 225.297 445.434 224.604 445.434C224.352 445.434 223.994 445.371 223.763 445.266L223.385 447.639ZM249.419 443.69V436.486C249.419 434.512 248.348 433.294 246.122 433.294C244.463 433.294 243.223 434.092 242.572 434.848V429.681H239.884V443.69H242.572V436.843C243.013 436.255 243.833 435.667 244.883 435.667C246.017 435.667 246.752 436.108 246.752 437.515V443.69H249.419ZM260.847 443.69V437.137C260.847 434.218 258.725 433.294 256.394 433.294C254.798 433.294 253.202 433.777 251.962 434.89L253.013 436.759C253.853 435.982 254.861 435.562 255.932 435.562C257.276 435.562 258.158 436.234 258.158 437.263V438.545C257.486 437.747 256.31 437.305 254.945 437.305C253.328 437.305 251.437 438.188 251.437 440.582C251.437 442.85 253.328 443.942 254.945 443.942C256.268 443.942 257.465 443.459 258.158 442.619V443.69H260.847ZM256.016 442.136C254.966 442.136 254.105 441.59 254.105 440.624C254.105 439.658 254.966 439.091 256.016 439.091C256.877 439.091 257.717 439.406 258.158 439.994V441.254C257.717 441.842 256.877 442.136 256.016 442.136ZM268.974 443.69L273.049 433.546H270.192L267.525 440.603L264.879 433.546H262.022L266.097 443.69H268.974ZM279.007 443.942C280.583 443.942 282.179 443.459 283.187 442.535L281.99 440.771C281.339 441.401 280.162 441.758 279.301 441.758C277.579 441.758 276.571 440.729 276.382 439.49H283.922V438.86C283.922 435.562 281.885 433.294 278.839 433.294C275.773 433.294 273.589 435.667 273.589 438.608C273.589 441.863 275.92 443.942 279.007 443.942ZM281.36 437.641H276.361C276.466 436.633 277.18 435.478 278.839 435.478C280.604 435.478 281.276 436.675 281.36 437.641ZM294.646 443.942C295.759 443.942 296.473 443.648 296.872 443.291L296.305 441.254C296.158 441.422 295.78 441.569 295.381 441.569C294.793 441.569 294.457 441.086 294.457 440.435V435.877H296.515V433.546H294.457V430.773H291.789V433.546H290.109V435.877H291.789V441.149C291.789 442.976 292.776 443.942 294.646 443.942ZM307.875 443.69V436.486C307.875 434.512 306.804 433.294 304.578 433.294C302.919 433.294 301.679 434.092 301.028 434.848V429.681H298.34V443.69H301.028V436.843C301.469 436.255 302.288 435.667 303.339 435.667C304.473 435.667 305.208 436.108 305.208 437.515V443.69H307.875ZM315.291 443.942C316.866 443.942 318.462 443.459 319.471 442.535L318.273 440.771C317.622 441.401 316.446 441.758 315.585 441.758C313.863 441.758 312.855 440.729 312.666 439.49H320.206V438.86C320.206 435.562 318.168 433.294 315.123 433.294C312.056 433.294 309.872 435.667 309.872 438.608C309.872 441.863 312.204 443.942 315.291 443.942ZM317.643 437.641H312.645C312.75 436.633 313.464 435.478 315.123 435.478C316.887 435.478 317.559 436.675 317.643 437.641ZM325.787 443.942C328.601 443.942 330.198 442.577 330.198 440.708C330.198 436.612 324.17 437.873 324.17 436.381C324.17 435.814 324.8 435.394 325.766 435.394C327.005 435.394 328.16 435.94 328.769 436.57L329.841 434.68C328.832 433.882 327.467 433.294 325.766 433.294C323.078 433.294 321.607 434.785 321.607 436.486C321.607 440.477 327.614 439.112 327.614 440.771C327.614 441.401 327.068 441.842 325.913 441.842C324.653 441.842 323.162 441.149 322.405 440.435L321.25 442.367C322.321 443.354 324.023 443.942 325.787 443.942ZM336.909 443.942C338.485 443.942 340.081 443.459 341.089 442.535L339.892 440.771C339.241 441.401 338.065 441.758 337.203 441.758C335.481 441.758 334.473 440.729 334.284 439.49H341.824V438.86C341.824 435.562 339.787 433.294 336.741 433.294C333.675 433.294 331.491 435.667 331.491 438.608C331.491 441.863 333.822 443.942 336.909 443.942ZM339.262 437.641H334.263C334.368 436.633 335.082 435.478 336.741 435.478C338.506 435.478 339.178 436.675 339.262 437.641ZM352.8 443.942C355.614 443.942 357.21 442.577 357.21 440.708C357.21 436.612 351.182 437.873 351.182 436.381C351.182 435.814 351.813 435.394 352.779 435.394C354.018 435.394 355.173 435.94 355.782 436.57L356.853 434.68C355.845 433.882 354.48 433.294 352.779 433.294C350.09 433.294 348.62 434.785 348.62 436.486C348.62 440.477 354.627 439.112 354.627 440.771C354.627 441.401 354.081 441.842 352.926 441.842C351.666 441.842 350.174 441.149 349.418 440.435L348.263 442.367C349.334 443.354 351.035 443.942 352.8 443.942ZM369.068 443.69L364.93 438.146L368.942 433.546H365.665L361.822 438.062V429.681H359.154V443.69H361.822V441.086L363.04 439.784L365.728 443.69H369.068ZM371.738 432.454C372.62 432.454 373.334 431.74 373.334 430.857C373.334 429.975 372.62 429.282 371.738 429.282C370.877 429.282 370.163 429.975 370.163 430.857C370.163 431.74 370.877 432.454 371.738 432.454ZM373.082 443.69V433.546H370.415V443.69H373.082ZM378.395 443.69V429.681H375.727V443.69H378.395ZM383.707 443.69V429.681H381.04V443.69H383.707ZM390.006 443.942C392.821 443.942 394.417 442.577 394.417 440.708C394.417 436.612 388.389 437.873 388.389 436.381C388.389 435.814 389.019 435.394 389.985 435.394C391.225 435.394 392.38 435.94 392.989 436.57L394.06 434.68C393.052 433.882 391.687 433.294 389.985 433.294C387.297 433.294 385.827 434.785 385.827 436.486C385.827 440.477 391.834 439.112 391.834 440.771C391.834 441.401 391.288 441.842 390.132 441.842C388.872 441.842 387.381 441.149 386.625 440.435L385.47 442.367C386.541 443.354 388.242 443.942 390.006 443.942ZM397.726 436.801C398.65 436.801 399.428 436.024 399.428 435.1C399.428 434.176 398.65 433.399 397.726 433.399C396.802 433.399 396.025 434.176 396.025 435.1C396.025 436.024 396.802 436.801 397.726 436.801ZM397.726 443.921C398.65 443.921 399.428 443.144 399.428 442.22C399.428 441.296 398.65 440.519 397.726 440.519C396.802 440.519 396.025 441.296 396.025 442.22C396.025 443.144 396.802 443.921 397.726 443.921Z" fill="#3D3D3D"/>
<g clip-path="url(#clip1)">
<path d="M470.969 423.998C465.702 423.998 461.432 428.27 461.432 433.536C461.432 438.804 465.702 443.073 470.969 443.073C476.236 443.073 480.507 438.804 480.507 433.536C480.507 428.27 476.236 423.998 470.969 423.998ZM470.969 441.227C466.718 441.227 463.277 437.788 463.277 433.536C463.277 429.286 466.718 425.844 470.969 425.844C475.218 425.844 478.661 429.285 478.661 433.536C478.661 437.786 475.221 441.227 470.969 441.227ZM475.093 431.413C475.093 433.991 472.308 434.031 472.308 434.984V435.228C472.308 435.483 472.102 435.689 471.847 435.689H470.091C469.836 435.689 469.63 435.483 469.63 435.228V434.895C469.63 433.52 470.672 432.971 471.46 432.529C472.135 432.15 472.549 431.893 472.549 431.391C472.549 430.728 471.703 430.288 471.019 430.288C470.127 430.288 469.715 430.71 469.137 431.44C468.981 431.637 468.696 431.674 468.496 431.522L467.426 430.711C467.229 430.562 467.185 430.285 467.324 430.081C468.233 428.747 469.39 427.998 471.192 427.998C473.079 427.998 475.093 429.471 475.093 431.413V431.413ZM472.584 437.843C472.584 438.734 471.86 439.458 470.969 439.458C470.078 439.458 469.354 438.734 469.354 437.843C469.354 436.952 470.078 436.228 470.969 436.228C471.86 436.228 472.584 436.952 472.584 437.843Z" fill="#979797"/>
</g>
<path d="M74.2468 477.82C78.6155 477.82 81.6609 475.048 81.6609 470.805C81.6609 466.605 78.6155 463.811 74.2258 463.811H68.702V477.82H74.2468ZM74.2258 475.195H71.6844V466.437H74.2468C77.1032 466.437 78.6155 468.348 78.6155 470.805C78.6155 473.2 76.9982 475.195 74.2258 475.195ZM88.4191 478.072C91.7796 478.072 93.7959 475.615 93.7959 472.738C93.7959 469.86 91.7796 467.424 88.4191 467.424C85.0797 467.424 83.0634 469.86 83.0634 472.738C83.0634 475.615 85.0797 478.072 88.4191 478.072ZM88.4191 475.699C86.7599 475.699 85.8358 474.334 85.8358 472.738C85.8358 471.162 86.7599 469.797 88.4191 469.797C90.0994 469.797 91.0235 471.162 91.0235 472.738C91.0235 474.334 90.0994 475.699 88.4191 475.699ZM100.521 478.072C102.6 478.072 103.861 477.148 104.533 476.224L102.789 474.586C102.306 475.279 101.571 475.699 100.647 475.699C99.0298 475.699 97.8956 474.502 97.8956 472.738C97.8956 470.973 99.0298 469.797 100.647 469.797C101.571 469.797 102.306 470.175 102.789 470.889L104.533 469.251C103.861 468.327 102.6 467.424 100.521 467.424C97.4126 467.424 95.1442 469.629 95.1442 472.738C95.1442 475.867 97.4126 478.072 100.521 478.072ZM116.19 477.82L112.052 472.276L116.064 467.676H112.787L108.944 472.192V463.811H106.276V477.82H108.944V475.216L110.162 473.914L112.85 477.82H116.19ZM122.161 478.072C123.736 478.072 125.332 477.589 126.341 476.665L125.143 474.901C124.492 475.531 123.316 475.888 122.455 475.888C120.733 475.888 119.725 474.859 119.536 473.62H127.076V472.99C127.076 469.692 125.038 467.424 121.993 467.424C118.926 467.424 116.742 469.797 116.742 472.738C116.742 475.993 119.073 478.072 122.161 478.072ZM124.513 471.772H119.515C119.62 470.763 120.334 469.608 121.993 469.608C123.757 469.608 124.429 470.805 124.513 471.772ZM131.67 477.82V471.12C132.111 470.469 133.287 469.965 134.169 469.965C134.484 469.965 134.715 469.986 134.904 470.028V467.424C133.644 467.424 132.405 468.159 131.67 469.041V467.676H129.002V477.82H131.67ZM137.938 476.791C137.938 475.426 137.056 474.649 136.069 474.649C135.165 474.649 134.409 475.405 134.409 476.329C134.409 477.211 135.039 477.841 135.838 477.841C136.006 477.841 136.174 477.799 136.237 477.778C136.069 478.514 135.291 479.396 134.619 479.753L135.775 480.698C137.077 479.774 137.938 478.366 137.938 476.791ZM155.407 477.82L151.269 472.276L155.281 467.676H152.004L148.16 472.192V463.811H145.493V477.82H148.16V475.216L149.379 473.914L152.067 477.82H155.407ZM161.794 478.072C164.735 478.072 167.423 476.791 167.423 474.187C167.423 472.486 166.079 471.183 164.42 470.595C165.953 470.049 167.192 469.041 167.192 467.298C167.192 464.651 164.378 463.601 161.794 463.601C159.19 463.601 156.396 464.651 156.396 467.298C156.396 469.041 157.615 470.049 159.169 470.595C157.489 471.183 156.165 472.486 156.165 474.187C156.165 476.791 158.854 478.072 161.794 478.072ZM161.794 469.419C160.933 469.272 159.421 468.831 159.421 467.802C159.421 466.815 160.408 466.248 161.794 466.248C163.159 466.248 164.147 466.815 164.147 467.802C164.147 468.831 162.655 469.272 161.794 469.419ZM161.794 475.426C160.324 475.426 159.19 474.775 159.19 473.767C159.19 472.612 160.912 472.066 161.794 471.94C162.655 472.066 164.399 472.612 164.399 473.767C164.399 474.775 163.222 475.426 161.794 475.426ZM173.145 478.072C175.96 478.072 177.556 476.707 177.556 474.838C177.556 470.742 171.528 472.003 171.528 470.511C171.528 469.944 172.158 469.524 173.124 469.524C174.363 469.524 175.519 470.07 176.128 470.7L177.199 468.81C176.191 468.012 174.826 467.424 173.124 467.424C170.436 467.424 168.966 468.915 168.966 470.616C168.966 474.607 174.973 473.242 174.973 474.901C174.973 475.531 174.426 475.972 173.271 475.972C172.011 475.972 170.52 475.279 169.764 474.565L168.609 476.497C169.68 477.484 171.381 478.072 173.145 478.072ZM182.693 476.791C182.693 475.426 181.81 474.649 180.823 474.649C179.92 474.649 179.164 475.405 179.164 476.329C179.164 477.211 179.794 477.841 180.592 477.841C180.76 477.841 180.928 477.799 180.991 477.778C180.823 478.514 180.046 479.396 179.374 479.753L180.529 480.698C181.831 479.774 182.693 478.366 182.693 476.791ZM203.375 477.82L197.977 463.811H194.238L188.841 477.82H192.222L193.104 475.447H199.111L199.993 477.82H203.375ZM198.292 472.822H193.923L196.108 466.794L198.292 472.822ZM217.628 477.82L221.619 463.811H218.279L215.822 473.935L213.176 463.811H210.844L208.177 473.935L205.72 463.811H202.38L206.392 477.82H209.563L212 468.201L214.457 477.82H217.628ZM228.024 478.072C231.784 478.072 233.632 476.14 233.632 473.578C233.632 468.348 225.588 469.839 225.588 467.634C225.588 466.794 226.302 466.248 227.562 466.248C228.99 466.248 230.503 466.731 231.637 467.781L233.296 465.555C231.91 464.273 230.062 463.601 227.835 463.601C224.538 463.601 222.521 465.534 222.521 467.865C222.521 473.137 230.587 471.435 230.587 473.872C230.587 474.691 229.81 475.426 228.15 475.426C226.218 475.426 224.685 474.544 223.698 473.515L222.059 475.846C223.383 477.169 225.315 478.072 228.024 478.072ZM238.749 476.791C238.749 475.426 237.867 474.649 236.879 474.649C235.976 474.649 235.22 475.405 235.22 476.329C235.22 477.211 235.85 477.841 236.648 477.841C236.816 477.841 236.984 477.799 237.047 477.778C236.879 478.514 236.102 479.396 235.43 479.753L236.585 480.698C237.888 479.774 238.749 478.366 238.749 476.791ZM253.172 478.072C255.692 478.072 257.688 477.043 259.116 475.447V470.07H252.437V472.675H256.133V474.355C255.566 474.88 254.411 475.426 253.172 475.426C250.609 475.426 248.761 473.473 248.761 470.826C248.761 468.18 250.609 466.227 253.172 466.227C254.642 466.227 255.839 467.067 256.49 468.054L258.948 466.71C257.898 465.051 256.07 463.58 253.172 463.58C249.055 463.58 245.695 466.395 245.695 470.826C245.695 475.237 249.055 478.072 253.172 478.072ZM268.288 478.072C271.355 478.072 273.14 476.371 274.127 474.628L271.565 473.389C270.977 474.523 269.717 475.426 268.288 475.426C265.726 475.426 263.878 473.473 263.878 470.826C263.878 468.18 265.726 466.227 268.288 466.227C269.717 466.227 270.977 467.13 271.565 468.264L274.127 467.004C273.14 465.24 271.355 463.58 268.288 463.58C264.067 463.58 260.811 466.5 260.811 470.826C260.811 475.132 264.067 478.072 268.288 478.072ZM278.885 477.82V472.822H282.455C285.48 472.822 287.16 470.763 287.16 468.327C287.16 465.87 285.501 463.811 282.455 463.811H275.902V477.82H278.885ZM282.035 470.196H278.885V466.437H282.035C283.212 466.437 284.115 467.151 284.115 468.327C284.115 469.482 283.212 470.196 282.035 470.196Z" fill="#2978C9"/>
</g>
<g filter="url(#filter2_d)">
<rect x="45.6563" y="118.656" width="456.817" height="111.579" rx="4.59443" fill="white" stroke="#E0E2E5" stroke-width="1.31269"/>
<path d="M81.7659 157.69L76.3681 143.681H72.6295L67.2318 157.69H70.6133L71.4954 155.317H77.5023L78.3844 157.69H81.7659ZM76.6831 152.692H72.3145L74.4988 146.664L76.6831 152.692ZM91.8599 157.69V155.065H85.937V143.681H82.9335V157.69H91.8599ZM102.669 157.69V155.065H96.7462V143.681H93.7427V157.69H102.669ZM114.714 157.942C118.075 157.942 120.091 155.485 120.091 152.608C120.091 149.73 118.075 147.294 114.714 147.294C111.375 147.294 109.358 149.73 109.358 152.608C109.358 155.485 111.375 157.942 114.714 157.942ZM114.714 155.569C113.055 155.569 112.131 154.204 112.131 152.608C112.131 151.032 113.055 149.667 114.714 149.667C116.394 149.667 117.318 151.032 117.318 152.608C117.318 154.204 116.394 155.569 114.714 155.569ZM125.367 157.69V149.877H127.425V147.546H125.367V147.126C125.367 146.139 125.871 145.656 126.627 145.656C127.11 145.656 127.467 145.803 127.74 146.055L128.748 144.437C128.139 143.744 127.089 143.471 126.102 143.471C124.064 143.471 122.699 144.837 122.699 147.126V147.546H121.019V149.877H122.699V157.69H125.367ZM137.758 157.942C138.871 157.942 139.585 157.648 139.985 157.291L139.417 155.254C139.27 155.422 138.892 155.569 138.493 155.569C137.905 155.569 137.569 155.086 137.569 154.435V149.877H139.627V147.546H137.569V144.773H134.902V147.546H133.222V149.877H134.902V155.149C134.902 156.976 135.889 157.942 137.758 157.942ZM150.988 157.69V150.486C150.988 148.512 149.917 147.294 147.69 147.294C146.031 147.294 144.792 148.092 144.141 148.848V143.681H141.452V157.69H144.141V150.843C144.582 150.255 145.401 149.667 146.451 149.667C147.585 149.667 148.32 150.108 148.32 151.515V157.69H150.988ZM158.404 157.942C159.979 157.942 161.575 157.459 162.583 156.535L161.386 154.771C160.735 155.401 159.559 155.758 158.698 155.758C156.975 155.758 155.967 154.729 155.778 153.49H163.318V152.86C163.318 149.562 161.281 147.294 158.236 147.294C155.169 147.294 152.985 149.667 152.985 152.608C152.985 155.863 155.316 157.942 158.404 157.942ZM160.756 151.642H155.757C155.862 150.633 156.576 149.478 158.236 149.478C160 149.478 160.672 150.675 160.756 151.642ZM168.9 157.942C171.714 157.942 173.31 156.577 173.31 154.708C173.31 150.612 167.282 151.873 167.282 150.381C167.282 149.814 167.912 149.394 168.879 149.394C170.118 149.394 171.273 149.94 171.882 150.57L172.953 148.68C171.945 147.882 170.58 147.294 168.879 147.294C166.19 147.294 164.72 148.785 164.72 150.486C164.72 154.477 170.727 153.112 170.727 154.771C170.727 155.401 170.181 155.842 169.026 155.842C167.765 155.842 166.274 155.149 165.518 154.435L164.363 156.367C165.434 157.354 167.135 157.942 168.9 157.942ZM180.022 157.942C181.597 157.942 183.193 157.459 184.202 156.535L183.004 154.771C182.353 155.401 181.177 155.758 180.316 155.758C178.594 155.758 177.586 154.729 177.397 153.49H184.937V152.86C184.937 149.562 182.899 147.294 179.854 147.294C176.788 147.294 174.603 149.667 174.603 152.608C174.603 155.863 176.935 157.942 180.022 157.942ZM182.374 151.642H177.376C177.481 150.633 178.195 149.478 179.854 149.478C181.618 149.478 182.29 150.675 182.374 151.642ZM195.912 157.942C198.727 157.942 200.323 156.577 200.323 154.708C200.323 150.612 194.295 151.873 194.295 150.381C194.295 149.814 194.925 149.394 195.891 149.394C197.13 149.394 198.286 149.94 198.895 150.57L199.966 148.68C198.958 147.882 197.593 147.294 195.891 147.294C193.203 147.294 191.733 148.785 191.733 150.486C191.733 154.477 197.74 153.112 197.74 154.771C197.74 155.401 197.193 155.842 196.038 155.842C194.778 155.842 193.287 155.149 192.531 154.435L191.376 156.367C192.447 157.354 194.148 157.942 195.912 157.942ZM212.181 157.69L208.043 152.146L212.055 147.546H208.778L204.934 152.062V143.681H202.267V157.69H204.934V155.086L206.153 153.784L208.841 157.69H212.181ZM214.851 146.454C215.733 146.454 216.447 145.74 216.447 144.858C216.447 143.975 215.733 143.282 214.851 143.282C213.99 143.282 213.275 143.975 213.275 144.858C213.275 145.74 213.99 146.454 214.851 146.454ZM216.195 157.69V147.546H213.528V157.69H216.195ZM221.507 157.69V143.681H218.84V157.69H221.507ZM226.82 157.69V143.681H224.152V157.69H226.82ZM233.119 157.942C235.933 157.942 237.53 156.577 237.53 154.708C237.53 150.612 231.502 151.873 231.502 150.381C231.502 149.814 232.132 149.394 233.098 149.394C234.337 149.394 235.492 149.94 236.101 150.57L237.173 148.68C236.164 147.882 234.799 147.294 233.098 147.294C230.41 147.294 228.939 148.785 228.939 150.486C228.939 154.477 234.946 153.112 234.946 154.771C234.946 155.401 234.4 155.842 233.245 155.842C231.985 155.842 230.494 155.149 229.737 154.435L228.582 156.367C229.653 157.354 231.355 157.942 233.119 157.942ZM240.839 150.801C241.763 150.801 242.54 150.024 242.54 149.1C242.54 148.176 241.763 147.399 240.839 147.399C239.915 147.399 239.138 148.176 239.138 149.1C239.138 150.024 239.915 150.801 240.839 150.801ZM240.839 157.921C241.763 157.921 242.54 157.144 242.54 156.22C242.54 155.296 241.763 154.519 240.839 154.519C239.915 154.519 239.138 155.296 239.138 156.22C239.138 157.144 239.915 157.921 240.839 157.921Z" fill="#3D3D3D"/>
<path d="M74.2783 192.072C76.7566 192.072 78.4369 190.896 79.6131 189.3L78.1218 188.481C77.3237 189.678 75.8745 190.518 74.2783 190.518C71.2118 190.518 68.8805 188.145 68.8805 184.826C68.8805 181.487 71.2118 179.135 74.2783 179.135C75.8745 179.135 77.3237 179.996 78.1218 181.172L79.5921 180.353C78.4789 178.778 76.7566 177.58 74.2783 177.58C70.2457 177.58 67.0742 180.521 67.0742 184.826C67.0742 189.132 70.2457 192.072 74.2783 192.072ZM83.347 191.82V177.811H81.7718V191.82H83.347ZM87.2664 180.227C87.8545 180.227 88.3375 179.765 88.3375 179.177C88.3375 178.588 87.8545 178.105 87.2664 178.105C86.6993 178.105 86.2162 178.588 86.2162 179.177C86.2162 179.765 86.6993 180.227 87.2664 180.227ZM88.0645 191.82V181.676H86.4893V191.82H88.0645ZM95.6804 192.072C97.5287 192.072 98.6209 191.316 99.398 190.308L98.3478 189.342C97.6757 190.245 96.8146 190.665 95.7644 190.665C93.6011 190.665 92.2569 188.985 92.2569 186.738C92.2569 184.49 93.6011 182.831 95.7644 182.831C96.8146 182.831 97.6757 183.23 98.3478 184.154L99.398 183.188C98.6209 182.18 97.5287 181.424 95.6804 181.424C92.656 181.424 90.6187 183.734 90.6187 186.738C90.6187 189.762 92.656 192.072 95.6804 192.072ZM110.532 191.82L106.016 186.276L110.511 181.676H108.516L103.181 187.074V177.811H101.606V191.82H103.181V188.922L104.861 187.263L108.516 191.82H110.532ZM120.372 192.072C121.296 192.072 121.863 191.799 122.262 191.421L121.8 190.245C121.59 190.476 121.17 190.665 120.729 190.665C120.036 190.665 119.7 190.119 119.7 189.363V183.062H121.758V181.676H119.7V178.904H118.124V181.676H116.444V183.062H118.124V189.699C118.124 191.211 118.88 192.072 120.372 192.072ZM128.415 192.072C131.502 192.072 133.434 189.678 133.434 186.738C133.434 183.797 131.502 181.424 128.415 181.424C125.327 181.424 123.395 183.797 123.395 186.738C123.395 189.678 125.327 192.072 128.415 192.072ZM128.415 190.665C126.251 190.665 125.033 188.817 125.033 186.738C125.033 184.679 126.251 182.831 128.415 182.831C130.578 182.831 131.775 184.679 131.775 186.738C131.775 188.817 130.578 190.665 128.415 190.665ZM149.335 191.82V184.847C149.335 182.39 147.55 181.424 145.408 181.424C143.749 181.424 142.446 181.97 141.354 183.104L142.089 184.196C142.993 183.23 143.98 182.789 145.198 182.789C146.668 182.789 147.76 183.566 147.76 184.931V186.759C146.941 185.814 145.786 185.372 144.4 185.372C142.677 185.372 140.85 186.444 140.85 188.712C140.85 190.917 142.677 192.072 144.4 192.072C145.765 192.072 146.92 191.589 147.76 190.665V191.82H149.335ZM144.967 190.938C143.497 190.938 142.467 190.014 142.467 188.733C142.467 187.431 143.497 186.507 144.967 186.507C146.08 186.507 147.151 186.927 147.76 187.767V189.678C147.151 190.518 146.08 190.938 144.967 190.938ZM161.419 191.82V177.811H159.844V183.209C159.025 182.096 157.786 181.424 156.421 181.424C153.753 181.424 151.905 183.524 151.905 186.759C151.905 190.056 153.774 192.072 156.421 192.072C157.849 192.072 159.088 191.337 159.844 190.308V191.82H161.419ZM156.799 190.665C154.761 190.665 153.543 189.006 153.543 186.759C153.543 184.511 154.761 182.831 156.799 182.831C158.059 182.831 159.277 183.587 159.844 184.469V189.069C159.277 189.951 158.059 190.665 156.799 190.665ZM173.5 191.82V177.811H171.925V183.209C171.106 182.096 169.867 181.424 168.502 181.424C165.834 181.424 163.986 183.524 163.986 186.759C163.986 190.056 165.855 192.072 168.502 192.072C169.93 192.072 171.169 191.337 171.925 190.308V191.82H173.5ZM168.88 190.665C166.842 190.665 165.624 189.006 165.624 186.759C165.624 184.511 166.842 182.831 168.88 182.831C170.14 182.831 171.358 183.587 171.925 184.469V189.069C171.358 189.951 170.14 190.665 168.88 190.665ZM189.988 191.82V184.847C189.988 182.39 188.203 181.424 186.06 181.424C184.401 181.424 183.099 181.97 182.007 183.104L182.742 184.196C183.645 183.23 184.632 182.789 185.85 182.789C187.321 182.789 188.413 183.566 188.413 184.931V186.759C187.594 185.814 186.438 185.372 185.052 185.372C183.33 185.372 181.503 186.444 181.503 188.712C181.503 190.917 183.33 192.072 185.052 192.072C186.417 192.072 187.573 191.589 188.413 190.665V191.82H189.988ZM185.619 190.938C184.149 190.938 183.12 190.014 183.12 188.733C183.12 187.431 184.149 186.507 185.619 186.507C186.732 186.507 187.804 186.927 188.413 187.767V189.678C187.804 190.518 186.732 190.938 185.619 190.938ZM201.774 192.072C204.399 192.072 205.765 190.707 205.765 189.006C205.765 185.057 199.485 186.528 199.485 184.301C199.485 183.398 200.346 182.705 201.732 182.705C203.034 182.705 204.147 183.251 204.756 183.986L205.491 182.894C204.672 182.075 203.454 181.424 201.732 181.424C199.317 181.424 197.951 182.768 197.951 184.343C197.951 188.103 204.231 186.591 204.231 189.048C204.231 190.056 203.391 190.791 201.837 190.791C200.451 190.791 199.17 190.119 198.497 189.342L197.678 190.476C198.707 191.568 200.115 192.072 201.774 192.072ZM217.25 191.82L212.734 186.276L217.229 181.676H215.234L209.899 187.074V177.811H208.324V191.82H209.899V188.922L211.579 187.263L215.234 191.82H217.25ZM219.889 180.227C220.478 180.227 220.961 179.765 220.961 179.177C220.961 178.588 220.478 178.105 219.889 178.105C219.322 178.105 218.839 178.588 218.839 179.177C218.839 179.765 219.322 180.227 219.889 180.227ZM220.688 191.82V181.676H219.112V191.82H220.688ZM225.405 191.82V177.811H223.83V191.82H225.405ZM230.123 191.82V177.811H228.547V191.82H230.123Z" fill="#858585"/>
<g clip-path="url(#clip2)">
<path d="M470.969 137.998C465.702 137.998 461.431 142.27 461.431 147.536C461.431 152.804 465.702 157.073 470.969 157.073C476.236 157.073 480.507 152.804 480.507 147.536C480.507 142.27 476.236 137.998 470.969 137.998ZM470.969 155.227C466.718 155.227 463.277 151.788 463.277 147.536C463.277 143.286 466.718 139.844 470.969 139.844C475.218 139.844 478.661 143.285 478.661 147.536C478.661 151.786 475.221 155.227 470.969 155.227ZM475.093 145.413C475.093 147.991 472.308 148.031 472.308 148.984V149.228C472.308 149.483 472.102 149.689 471.847 149.689H470.091C469.836 149.689 469.63 149.483 469.63 149.228V148.895C469.63 147.52 470.672 146.971 471.46 146.529C472.135 146.15 472.549 145.893 472.549 145.391C472.549 144.728 471.703 144.288 471.019 144.288C470.127 144.288 469.715 144.71 469.137 145.44C468.981 145.637 468.696 145.674 468.496 145.522L467.426 144.711C467.229 144.562 467.185 144.285 467.324 144.082C468.233 142.747 469.39 141.998 471.192 141.998C473.079 141.998 475.093 143.471 475.093 145.413V145.413ZM472.584 151.843C472.584 152.734 471.86 153.458 470.969 153.458C470.078 153.458 469.354 152.734 469.354 151.843C469.354 150.952 470.078 150.228 470.969 150.228C471.86 150.228 472.584 150.952 472.584 151.843Z" fill="#979797"/>
</g>
</g>
<path fill-rule="evenodd" clip-rule="evenodd" d="M465 299.853L509 512.5C509 512.5 538.993 479.719 598.269 452.027C610.291 446.41 702.124 424.621 719.718 408.616C772.031 361.026 798.033 298.424 798.033 298.424C798.033 298.424 755.02 306.996 739.764 299.853C684.627 274.038 586.852 199.55 586.852 199.55L465 299.853Z" fill="#E44D26"/>
<path fill-rule="evenodd" clip-rule="evenodd" d="M672.781 194.593C668.479 190.695 664.084 186.92 659.503 183.411C665.557 174.441 666.882 162.635 661.911 152.182C654.418 136.428 635.526 129.753 619.715 137.274L445.078 220.335C429.267 227.855 422.524 246.723 430.017 262.477C434.985 272.922 444.968 279.342 455.738 280.313C455.568 286.08 455.723 291.869 456.032 297.665C456.665 309.525 474.665 353.246 496.761 388.592C515.447 418.483 538.126 441.227 544.791 445.521C559.337 454.892 570.956 461.639 585.637 465.987C592.554 466.384 602.551 464.351 611.48 452.592C627.048 432.087 647.133 421.079 647.133 421.079C647.133 421.079 668.347 412.444 694.078 413.306C711.367 413.885 719.227 404.907 722.539 398.945C727.888 385.57 731.722 371.614 733.795 357.317C733.424 357.732 733.131 358.162 732.742 358.572C729.299 362.164 725.231 365.554 719.996 368C714.983 370.237 708.945 371.771 702.852 370.343C696.793 368.972 691.929 364.99 688.453 360.676C681.479 351.847 677.989 341.624 675.194 332.167C672.504 322.639 670.852 313.599 669.679 305.836C667.381 290.295 666.99 279.849 666.99 279.849C666.99 279.849 668.106 290.254 671.454 305.503C673.149 313.112 675.409 321.941 678.676 331.043C681.983 340.041 686.229 349.708 692.819 356.888C696.091 360.422 700.081 363.028 704.214 363.635C708.315 364.324 712.656 363.059 716.216 360.697C719.643 358.492 722.67 355.32 725.008 352.063C727.38 348.779 729.198 345.336 730.63 342.074C732.546 337.66 733.665 333.622 734.368 330.192C735.337 324.569 735.094 317.553 734.663 312.3C732.556 292.586 727.173 272.895 718.179 253.985C716.998 251.502 715.712 249.104 714.434 246.7C703.174 226.743 689.02 209.312 672.781 194.593Z" fill="#FFC600"/>
<path fill-rule="evenodd" clip-rule="evenodd" d="M451.839 234.55C443.907 238.323 440.524 247.788 444.283 255.692C446.721 260.818 451.57 263.983 456.838 264.577C457.939 254.08 459.804 243.699 462.446 233.527C459.01 232.685 455.288 232.91 451.839 234.55Z" fill="#26292D"/>
<path fill-rule="evenodd" clip-rule="evenodd" d="M626.476 151.488C623.02 153.132 620.494 155.885 618.98 159.09C628.537 163.459 637.764 168.564 646.6 174.333C649.475 169.869 650.087 164.101 647.645 158.967C643.886 151.064 634.408 147.716 626.476 151.488Z" fill="#26292D"/>
<path fill-rule="evenodd" clip-rule="evenodd" d="M471.226 198.588L585.788 144.099C567.6 141.224 548.552 142.713 530.282 149.307L528.247 126.944C528.247 126.944 522.019 125.36 509.474 131.327C496.93 137.293 494.228 143.124 494.228 143.124L510.293 158.814C493.649 168.826 480.474 182.664 471.226 198.588Z" fill="#FFC600"/>
<path fill-rule="evenodd" clip-rule="evenodd" d="M679.232 296.589C679.232 296.589 680.165 298.684 681.271 301.841C682.357 305.005 683.555 309.245 684.605 313.51C685.619 317.784 686.503 322.086 687.023 325.384C687.316 327.021 687.409 328.443 687.574 329.409C687.696 330.389 687.716 330.97 687.716 330.97C687.716 330.97 686.407 329.085 684.926 326.04C683.463 322.992 681.943 318.76 680.888 314.415C679.846 310.065 679.26 305.62 679.121 302.249C678.999 298.871 679.232 296.589 679.232 296.589Z" fill="#FFFFFE"/>
<path fill-rule="evenodd" clip-rule="evenodd" d="M446.269 224.017C446.269 224.017 444.52 225.849 442.525 228.841C441.505 230.316 440.424 232.078 439.431 234.023C438.418 235.956 437.538 238.101 436.835 240.297C436.074 242.481 435.644 244.754 435.221 246.908C434.956 249.082 434.671 251.137 434.61 252.94C434.434 254.744 434.441 256.273 434.425 257.354C434.396 258.438 434.328 259.08 434.328 259.08C434.328 259.08 434.065 258.514 433.692 257.483C433.382 256.444 432.676 254.977 432.419 253.096C431.979 251.236 431.847 249.003 431.868 246.59C431.988 244.178 432.421 241.614 433.198 239.132C434.819 234.174 437.94 229.828 440.902 227.384C443.832 224.868 446.269 224.017 446.269 224.017Z" fill="#FFFFFE"/>
<path fill-rule="evenodd" clip-rule="evenodd" d="M526.586 245.791L526.59 245.789L526.578 245.782L526.485 245.72C526.401 245.665 526.268 245.582 526.063 245.462C525.665 245.191 525.243 244.955 524.766 244.786C521.023 243.006 511.744 239.999 499.373 245.883C486.49 252.01 483.397 262.149 482.663 266.114C482.53 266.605 482.443 267.106 482.445 267.609C482.435 267.726 482.431 267.795 482.431 267.795C482.492 268.476 482.619 269.157 482.912 269.795C483.165 270.347 483.476 270.879 483.905 271.352C484.726 272.262 485.762 272.86 486.866 273.154C487.308 273.283 490.655 274.01 495.502 267.947L495.504 268.019C496.545 266.7 497.668 265.427 498.961 264.265C505.488 258.396 513.854 255.854 521.976 256.497C523.696 256.634 525.409 256.166 526.692 255.012C529.631 252.37 529.193 248.012 526.586 245.791Z" fill="#26292D"/>
<path fill-rule="evenodd" clip-rule="evenodd" d="M631.679 195.806L631.683 195.804L631.671 195.797L631.578 195.735C631.494 195.68 631.361 195.597 631.156 195.477C630.758 195.206 630.336 194.97 629.859 194.801C626.116 193.021 616.837 190.014 604.466 195.898C591.583 202.025 588.49 212.164 587.756 216.129C587.623 216.62 587.536 217.121 587.538 217.624C587.528 217.741 587.524 217.81 587.524 217.81C587.585 218.491 587.712 219.172 588.005 219.81C588.258 220.362 588.569 220.894 588.997 221.368C589.819 222.277 590.855 222.875 591.959 223.169C592.401 223.298 595.749 224.024 600.595 217.963L600.597 218.034C601.639 216.715 602.762 215.442 604.054 214.28C610.581 208.411 618.947 205.869 627.069 206.512C628.789 206.649 630.502 206.181 631.785 205.027C634.724 202.385 634.286 198.027 631.679 195.806Z" fill="#26292D"/>
<path fill-rule="evenodd" clip-rule="evenodd" d="M432.333 281.683C443.216 288.527 465.483 306.514 465.483 306.514L504.372 390.024C504.372 390.024 411.751 345.509 391.406 324.523C381.682 314.494 376.146 302.478 375.183 290.908C372.202 255.128 406.011 267.909 406.011 267.909C406.011 267.909 423.601 276.192 432.333 281.683Z" fill="#FFC600" stroke="#FFC600" stroke-width="4.25"/>
<path fill-rule="evenodd" clip-rule="evenodd" d="M422.004 274.506L397.162 334.292C397.162 334.292 425.07 349.437 438.698 357.296C457.18 367.954 495.052 386.092 495.052 386.092C495.052 386.092 513.066 417.528 536.659 439.832C552.841 455.129 573.806 463.243 584.891 468.311C599.978 475.208 622.051 444.152 622.051 444.152C622.051 444.152 642.078 426.457 654.505 421.386C665.319 416.974 691.773 415.701 691.773 415.701C691.773 415.701 713.914 416.166 719.522 408.916C728.259 397.621 733.858 356.255 733.858 356.255C733.858 356.255 716.884 377.591 696.648 367.472C676.412 357.354 666.776 286.058 666.776 286.058C666.776 286.058 672.833 310.762 676.455 324.186C677.833 329.295 681.359 338.572 681.359 338.572C681.359 338.572 737.178 329.351 737.001 323.611C736.664 312.658 731.947 290.664 731.947 290.664C731.947 290.664 724.988 266.701 720.216 256.774C714.945 245.808 702.378 226.958 702.378 226.958C702.378 226.958 633.452 327.723 593.253 339.177C551.892 350.961 457.002 297.937 457.002 297.937L437.026 283.048" fill="#1B77B8"/>
<path fill-rule="evenodd" clip-rule="evenodd" d="M618.006 262.28C626.889 281.83 618.042 304.972 598.245 313.968C578.447 322.964 555.196 314.407 546.313 294.857C537.429 275.306 546.276 252.164 566.073 243.168C585.871 234.172 609.122 242.729 618.006 262.28Z" fill="#FFFFFE"/>
<path fill-rule="evenodd" clip-rule="evenodd" d="M597.895 314.404C598.681 314.047 599.419 313.631 600.169 313.23L579.262 267.22L574.61 269.334L595.517 315.344C596.312 315.043 597.11 314.761 597.895 314.404Z" fill="#26292D"/>
<path fill-rule="evenodd" clip-rule="evenodd" d="M592.163 250.204C592.005 250.012 591.899 249.904 591.899 249.904C591.529 249.545 591.119 249.247 590.674 249.006C590.673 249.001 586.619 245.671 571.329 252.57C571.186 252.632 571.152 252.645 571.116 252.661C562.243 256.727 558.487 260.191 556.894 262.386C555.831 263.489 555.281 264.984 555.373 266.501C555.365 266.505 555.379 266.681 555.43 266.965C555.501 267.45 555.616 267.933 555.828 268.401C555.848 268.443 555.877 268.477 555.897 268.518C556.817 270.783 559.335 274.364 566.268 276.062C573.089 277.732 577.534 277.268 579.85 276.732C580.028 276.694 580.203 276.642 580.38 276.594C581.275 276.348 581.771 276.122 581.771 276.122C581.775 276.12 582.269 275.895 583.041 275.385C583.197 275.281 583.357 275.182 583.506 275.069C585.434 273.675 588.702 270.63 591.927 264.403C595.194 258.09 594.175 253.847 593.079 251.656C593.057 251.604 593.049 251.55 593.025 251.499C592.803 251.009 592.499 250.589 592.163 250.204Z" fill="#26292D"/>
<path fill-rule="evenodd" clip-rule="evenodd" d="M611.086 481.999L626.672 471.921L676.868 582.103L611.086 481.999Z" fill="url(#paint0_linear)"/>
<path fill-rule="evenodd" clip-rule="evenodd" d="M649.185 466.267L664.771 456.189L719.72 585.053L649.185 466.267Z" fill="url(#paint1_linear)"/>
<path fill-rule="evenodd" clip-rule="evenodd" d="M696.936 444.834L712.523 434.756L757.819 554.841L696.936 444.834Z" fill="url(#paint2_linear)"/>
<defs>
<filter id="filter0_d" x="0.368423" y="221.619" width="547.393" height="202.155" filterUnits="userSpaceOnUse" color-interpolation-filters="sRGB">
<feFlood flood-opacity="0" result="BackgroundImageFix"/>
<feColorMatrix in="SourceAlpha" type="matrix" values="0 0 0 0 0 0 0 0 0 0 0 0 0 0 0 0 0 0 127 0"/>
<feOffset dy="5.25077"/>
<feGaussianBlur stdDeviation="22.3158"/>
<feColorMatrix type="matrix" values="0 0 0 0 0.55 0 0 0 0 0.55 0 0 0 0 0.55 0 0 0 0.25 0"/>
<feBlend mode="normal" in2="BackgroundImageFix" result="effect1_dropShadow"/>
<feBlend mode="normal" in="SourceGraphic" in2="effect1_dropShadow" result="shape"/>
</filter>
<filter id="filter1_d" x="0.368423" y="364.619" width="547.393" height="202.155" filterUnits="userSpaceOnUse" color-interpolation-filters="sRGB">
<feFlood flood-opacity="0" result="BackgroundImageFix"/>
<feColorMatrix in="SourceAlpha" type="matrix" values="0 0 0 0 0 0 0 0 0 0 0 0 0 0 0 0 0 0 127 0"/>
<feOffset dy="5.25077"/>
<feGaussianBlur stdDeviation="22.3158"/>
<feColorMatrix type="matrix" values="0 0 0 0 0.55 0 0 0 0 0.55 0 0 0 0 0.55 0 0 0 0.25 0"/>
<feBlend mode="normal" in2="BackgroundImageFix" result="effect1_dropShadow"/>
<feBlend mode="normal" in="SourceGraphic" in2="effect1_dropShadow" result="shape"/>
</filter>
<filter id="filter2_d" x="0.368423" y="78.6192" width="547.393" height="202.155" filterUnits="userSpaceOnUse" color-interpolation-filters="sRGB">
<feFlood flood-opacity="0" result="BackgroundImageFix"/>
<feColorMatrix in="SourceAlpha" type="matrix" values="0 0 0 0 0 0 0 0 0 0 0 0 0 0 0 0 0 0 127 0"/>
<feOffset dy="5.25077"/>
<feGaussianBlur stdDeviation="22.3158"/>
<feColorMatrix type="matrix" values="0 0 0 0 0.55 0 0 0 0 0.55 0 0 0 0 0.55 0 0 0 0.25 0"/>
<feBlend mode="normal" in2="BackgroundImageFix" result="effect1_dropShadow"/>
<feBlend mode="normal" in="SourceGraphic" in2="effect1_dropShadow" result="shape"/>
</filter>
<linearGradient id="paint0_linear" x1="665.54" y1="464.342" x2="746.956" y2="615.132" gradientUnits="userSpaceOnUse">
<stop stop-color="white"/>
<stop offset="1" stop-color="#CDCDCD"/>
</linearGradient>
<linearGradient id="paint1_linear" x1="703.639" y1="448.61" x2="785.055" y2="599.4" gradientUnits="userSpaceOnUse">
<stop stop-color="white"/>
<stop offset="1" stop-color="#CDCDCD"/>
</linearGradient>
<linearGradient id="paint2_linear" x1="751.39" y1="427.177" x2="832.806" y2="577.967" gradientUnits="userSpaceOnUse">
<stop stop-color="white"/>
<stop offset="1" stop-color="#CDCDCD"/>
</linearGradient>
<clipPath id="clip0">
<rect width="19.6904" height="19.6904" fill="white" transform="translate(461.124 280.69)"/>
</clipPath>
<clipPath id="clip1">
<rect width="19.6904" height="19.6904" fill="white" transform="translate(461.124 423.69)"/>
</clipPath>
<clipPath id="clip2">
<rect width="19.6904" height="19.6904" fill="white" transform="translate(461.124 137.69)"/>
</clipPath>
</defs>
</svg>
