<?xml version="1.0" encoding="UTF-8"?>
<svg width="260px" height="216px" viewBox="0 0 260 216" version="1.1" xmlns="http://www.w3.org/2000/svg" xmlns:xlink="http://www.w3.org/1999/xlink" style="background: #FFFFFF;">
    <!-- Generator: Sketch 40.3 (33839) - http://www.bohemiancoding.com/sketch -->
    <title>episode-04</title>
    <desc>Created with Sketch.</desc>
    <defs>
        <rect id="path-1" x="0" y="66.7182175" width="182.946533" height="39.945383"></rect>
        <mask id="mask-2" maskContentUnits="userSpaceOnUse" maskUnits="objectBoundingBox" x="0" y="0" width="182.946533" height="39.945383" fill="white">
            <use xlink:href="#path-1"></use>
        </mask>
        <rect id="path-3" x="182.946533" y="46.745526" width="24.5416081" height="19.9726915"></rect>
        <mask id="mask-4" maskContentUnits="userSpaceOnUse" maskUnits="objectBoundingBox" x="0" y="0" width="24.5416081" height="19.9726915" fill="white">
            <use xlink:href="#path-3"></use>
        </mask>
    </defs>
    <g id="Page-1" stroke="none" stroke-width="1" fill="none" fill-rule="evenodd">
        <g id="episode-04">
            <g id="Group-2" transform="translate(13.000000, 23.000000)">
                <text id="04" font-family="DINCondensed-Bold, DIN Condensed" font-size="247.104" font-weight="bold" letter-spacing="-0.321529189" fill="#50E3C2">
                    <tspan x="30.8561043" y="176.232928">04</tspan>
                </text>
                <path d="M206.006935,16.909777 C198.424645,16.909777 198.424645,9.01933102 190.841256,9.01933102 C183.255668,9.01933102 183.255668,16.909777 175.67008,16.909777 C168.08779,16.909777 168.08779,9.01933102 160.503301,9.01933102 C152.915515,9.01933102 152.915515,16.909777 145.327728,16.909777 C137.738842,16.909777 137.738842,9.01933102 130.151055,9.01933102" id="Page-1-Copy" stroke="#5D3799" stroke-width="1.11486375" stroke-linecap="round"></path>
                <path d="M28.7356964,88.4793948 C28.7356964,90.5214451 28.0106937,92.2717476 26.5606664,93.7303548 C25.1106392,95.1889621 23.3560467,95.9182548 21.2968364,95.9182548 C19.2376261,95.9182548 17.4830337,95.1932521 16.0330064,93.7432248 C14.5829792,92.2931976 13.8579764,90.5386051 13.8579764,88.4793948 L13.8579764,79.3159548 C13.8579764,78.9212729 13.9952551,78.5866562 14.2698164,78.3120948 C14.5443778,78.0375335 14.8789945,77.9002548 15.2736764,77.9002548 C15.6683584,77.9002548 16.007265,78.0375335 16.2904064,78.3120948 C16.5735478,78.5866562 16.7151164,78.9212729 16.7151164,79.3159548 L16.7151164,88.4793948 C16.7151164,89.7320811 17.161272,90.8088603 18.0535964,91.7097648 C18.9459209,92.6106694 20.0269901,93.0611148 21.2968364,93.0611148 C22.5666828,93.0611148 23.647752,92.6149593 24.5400764,91.7226348 C25.4324009,90.8303104 25.8785564,89.7492412 25.8785564,88.4793948 L25.8785564,79.3159548 C25.8785564,78.9212729 26.020125,78.5866562 26.3032664,78.3120948 C26.5864078,78.0375335 26.9253145,77.9002548 27.3199964,77.9002548 C27.7146784,77.9002548 28.0492951,78.0375335 28.3238564,78.3120948 C28.5984178,78.5866562 28.7356964,78.9212729 28.7356964,79.3159548 L28.7356964,88.4793948 Z M46.2826238,78.1190448 C46.6601457,78.0589845 47.0076322,78.1447837 47.3250938,78.3764448 C47.6425554,78.608106 47.8313135,78.912693 47.8913738,79.2902148 C47.9514341,79.6677367 47.8699249,80.0195132 47.6468438,80.3455548 L42.7562438,86.9864748 L47.6468438,93.6788748 C47.9728854,94.1421972 48.0029151,94.6312523 47.7369338,95.1460548 C47.4709524,95.6608574 47.0848563,95.9182548 46.5786338,95.9182548 C46.0724112,95.9182548 45.6648653,95.7209168 45.3559838,95.3262348 L41.0316638,89.3802948 L36.6816038,95.3262348 C36.3727222,95.7209168 35.9651763,95.9182548 35.4589538,95.9182548 C34.9527312,95.9182548 34.5666351,95.6608574 34.3006538,95.1460548 C34.0346724,94.6312523 34.0647021,94.1421972 34.3907438,93.6788748 L39.2813438,86.9864748 L34.3907438,80.3455548 C34.1676627,80.0195132 34.0861535,79.6677367 34.1462138,79.2902148 C34.2062741,78.912693 34.3950322,78.608106 34.7124938,78.3764448 C35.0299554,78.1447837 35.3817318,78.0589845 35.7678338,78.1190448 C36.1539357,78.1791051 36.4585227,78.3721532 36.6816038,78.6981948 L41.0316638,84.6183948 L45.3559838,78.6981948 C45.596225,78.3721532 45.9051019,78.1791051 46.2826238,78.1190448 L46.2826238,78.1190448 Z M21.6057164,127.311402 L21.5542364,127.311402 C21.0565939,127.311402 20.6619179,127.114064 20.3701964,126.719382 L16.6893764,121.571382 L16.6893764,132.407922 C16.6893764,132.802604 16.5478078,133.137221 16.2646664,133.411782 C15.981525,133.686344 15.6426184,133.823622 15.2479364,133.823622 C14.8532545,133.823622 14.5186378,133.686344 14.2440764,133.411782 C13.9695151,133.137221 13.8322364,132.802604 13.8322364,132.407922 L13.8322364,117.221322 C13.8322364,116.82664 13.9695151,116.492024 14.2440764,116.217462 C14.5186378,115.942901 14.8532545,115.805622 15.2479364,115.805622 L15.3251564,115.805622 C15.8227989,115.805622 16.2003151,116.00296 16.4577164,116.397642 L21.5799764,123.501882 L26.7022364,116.397642 C26.9939579,116.00296 27.380054,115.805622 27.8605364,115.805622 L27.8862764,115.805622 C28.2809584,115.822782 28.619865,115.968641 28.9030064,116.243202 C29.1861478,116.517764 29.3277164,116.8438 29.3277164,117.221322 L29.3277164,132.407922 C29.3277164,132.785444 29.1861478,133.115771 28.9030064,133.398912 C28.619865,133.682054 28.2809584,133.823622 27.8862764,133.823622 C27.4915945,133.823622 27.1569778,133.686344 26.8824164,133.411782 C26.6078551,133.137221 26.4705764,132.802604 26.4705764,132.407922 L26.4705764,121.571382 L22.7640164,126.719382 C22.472295,127.114064 22.0861988,127.311402 21.6057164,127.311402 L21.6057164,127.311402 Z M45.9737438,132.922722 L44.7124838,129.576522 L38.4576638,129.576522 L37.1964038,132.922722 C36.9561626,133.523325 36.5400367,133.823622 35.9480138,133.823622 C35.3559908,133.823622 34.9312851,133.613414 34.6738838,133.192992 C34.4164825,132.77257 34.365003,132.339285 34.5194438,131.893122 L40.2079838,116.732262 C40.3281044,116.457701 40.5125725,116.234623 40.7613938,116.063022 C41.010215,115.891421 41.2804823,115.814202 41.5722038,115.831362 C42.224287,115.797042 42.6790225,116.097339 42.9364238,116.732262 L48.6249638,131.893122 C48.7794045,132.339285 48.7279251,132.77257 48.4705238,133.192992 C48.2131225,133.613414 47.7884167,133.823622 47.1963938,133.823622 C46.6043708,133.823622 46.1968249,133.523325 45.9737438,132.922722 L45.9737438,132.922722 Z M39.4872638,126.745122 L43.6571438,126.745122 L41.5722038,121.211022 L39.4872638,126.745122 Z M54.9492511,121.725822 L54.9492511,132.407922 C54.9492511,132.785444 54.8119725,133.115771 54.5374111,133.398912 C54.2628497,133.682054 53.932523,133.823622 53.5464211,133.823622 C53.1603192,133.823622 52.8299925,133.686344 52.5554311,133.411782 C52.2808697,133.137221 52.1435911,132.802604 52.1435911,132.407922 L52.1435911,117.427242 C52.1092709,116.9296 52.2765793,116.552084 52.6455211,116.294682 C53.014463,116.037281 53.3876892,115.938612 53.7652111,115.998672 C54.142733,116.058733 54.44303,116.243201 54.6661111,116.552082 L62.9801311,128.057862 L62.9801311,117.452982 C62.9801311,117.07546 63.1174097,116.749424 63.3919711,116.474862 C63.6665325,116.200301 63.9925692,116.063022 64.3700911,116.063022 C64.747613,116.063022 65.0779397,116.200301 65.3610811,116.474862 C65.6442225,116.749424 65.7857911,117.07546 65.7857911,117.452982 L65.7857911,132.407922 C65.7857911,132.802604 65.6442225,133.137221 65.3610811,133.411782 C65.0779397,133.686344 64.7390331,133.823622 64.3443511,133.823622 C63.9496691,133.823622 63.6064726,133.652024 63.3147511,133.308822 C63.2461108,133.240182 63.2032112,133.188703 63.1860511,133.154382 L54.9492511,121.725822 Z M82.3803385,132.922722 L81.1190785,129.576522 L74.8642585,129.576522 L73.6029985,132.922722 C73.3627573,133.523325 72.9466314,133.823622 72.3546085,133.823622 C71.7625855,133.823622 71.3378798,133.613414 71.0804785,133.192992 C70.8230772,132.77257 70.7715977,132.339285 70.9260385,131.893122 L76.6145785,116.732262 C76.7346991,116.457701 76.9191672,116.234623 77.1679885,116.063022 C77.4168097,115.891421 77.687077,115.814202 77.9787985,115.831362 C78.6308817,115.797042 79.0856172,116.097339 79.3430185,116.732262 L85.0315585,131.893122 C85.1859992,132.339285 85.1345198,132.77257 84.8771185,133.192992 C84.6197172,133.613414 84.1950114,133.823622 83.6029885,133.823622 C83.0109655,133.823622 82.6034196,133.523325 82.3803385,132.922722 L82.3803385,132.922722 Z M75.8938585,126.745122 L80.0637385,126.745122 L77.9787985,121.211022 L75.8938585,126.745122 Z M103.685306,130.606122 C103.685306,130.812043 103.642406,131.000801 103.556606,131.172402 L103.556606,131.198142 C103.470805,131.438384 103.307787,131.644301 103.067546,131.815902 C101.351537,133.154389 99.4038967,133.823622 97.2245658,133.823622 C94.5990727,133.823622 92.3597151,132.927021 90.5064258,131.133792 C88.6531365,129.340563 87.7265058,127.156975 87.7265058,124.582962 C87.7265058,122.008949 88.6531365,119.816781 90.5064258,118.006392 C92.3597151,116.196003 94.5990727,115.290822 97.2245658,115.290822 C99.4382169,115.290822 101.394437,115.960056 103.093286,117.298542 C103.419327,117.538784 103.608086,117.86482 103.659566,118.276662 C103.711046,118.688504 103.616667,119.053151 103.376426,119.370612 C103.136185,119.688074 102.810148,119.872542 102.398306,119.924022 C101.986464,119.975503 101.617527,119.872544 101.291486,119.615142 C100.09028,118.688498 98.6617241,118.225182 97.0057758,118.225182 C95.3498275,118.225182 93.8783722,118.842936 92.5913658,120.078462 C91.3043594,121.313989 90.6608658,122.806894 90.6608658,124.557222 C90.6608658,126.307551 91.3086493,127.800456 92.6042358,129.035982 C93.8998223,130.271509 95.4399169,130.889262 97.2245658,130.889262 C98.4429319,130.889262 99.6183801,130.563226 100.750946,129.911142 L100.750946,126.384762 L97.0701258,126.384762 C96.6754438,126.384762 96.3322473,126.238904 96.0405258,125.947182 C95.7488044,125.655461 95.6029458,125.307974 95.6029458,124.904712 C95.6029458,124.50145 95.7445144,124.162544 96.0276558,123.887982 C96.3107972,123.613421 96.6582838,123.476142 97.0701258,123.476142 L102.192386,123.476142 C102.604228,123.476142 102.956004,123.613421 103.247726,123.887982 C103.539447,124.162544 103.685306,124.50574 103.685306,124.917582 L103.685306,130.606122 Z M110.859013,133.823622 C110.464331,133.823622 110.129715,133.686344 109.855153,133.411782 C109.580592,133.137221 109.443313,132.802604 109.443313,132.407922 L109.443313,117.221322 C109.443313,116.82664 109.580592,116.492024 109.855153,116.217462 C110.129715,115.942901 110.464331,115.805622 110.859013,115.805622 L119.275993,115.805622 C119.653515,115.805622 119.983842,115.942901 120.266983,116.217462 C120.550125,116.492024 120.691693,116.82664 120.691693,117.221322 C120.691693,117.616004 120.550125,117.954911 120.266983,118.238052 C119.983842,118.521194 119.653515,118.662762 119.275993,118.662762 L112.300453,118.662762 L112.300453,123.373182 L118.297873,123.373182 C118.675395,123.373182 119.005722,123.514751 119.288863,123.797892 C119.572005,124.081034 119.713573,124.41565 119.713573,124.801752 C119.713573,125.187854 119.576295,125.522471 119.301733,125.805612 C119.027172,126.088754 118.692555,126.230322 118.297873,126.230322 L112.300453,126.230322 L112.300453,130.966482 L119.275993,130.966482 C119.653515,130.966482 119.983842,131.108051 120.266983,131.391192 C120.550125,131.674334 120.691693,132.00895 120.691693,132.395052 C120.691693,132.781154 120.550125,133.115771 120.266983,133.398912 C119.983842,133.682054 119.653515,133.823622 119.275993,133.823622 L110.936233,133.823622 L110.884753,133.797882 L110.859013,133.823622 Z M132.447121,127.311402 L132.395641,127.311402 C131.897998,127.311402 131.503322,127.114064 131.211601,126.719382 L127.530781,121.571382 L127.530781,132.407922 C127.530781,132.802604 127.389212,133.137221 127.106071,133.411782 C126.822929,133.686344 126.484022,133.823622 126.089341,133.823622 C125.694659,133.823622 125.360042,133.686344 125.085481,133.411782 C124.810919,133.137221 124.673641,132.802604 124.673641,132.407922 L124.673641,117.221322 C124.673641,116.82664 124.810919,116.492024 125.085481,116.217462 C125.360042,115.942901 125.694659,115.805622 126.089341,115.805622 L126.166561,115.805622 C126.664203,115.805622 127.041719,116.00296 127.299121,116.397642 L132.421381,123.501882 L137.543641,116.397642 C137.835362,116.00296 138.221458,115.805622 138.701941,115.805622 L138.727681,115.805622 C139.122362,115.822782 139.461269,115.968641 139.744411,116.243202 C140.027552,116.517764 140.169121,116.8438 140.169121,117.221322 L140.169121,132.407922 C140.169121,132.785444 140.027552,133.115771 139.744411,133.398912 C139.461269,133.682054 139.122362,133.823622 138.727681,133.823622 C138.332999,133.823622 137.998382,133.686344 137.723821,133.411782 C137.449259,133.137221 137.311981,132.802604 137.311981,132.407922 L137.311981,121.571382 L133.605421,126.719382 C133.313699,127.114064 132.927603,127.311402 132.447121,127.311402 L132.447121,127.311402 Z M147.780408,133.823622 C147.385726,133.823622 147.051109,133.686344 146.776548,133.411782 C146.501986,133.137221 146.364708,132.802604 146.364708,132.407922 L146.364708,117.221322 C146.364708,116.82664 146.501986,116.492024 146.776548,116.217462 C147.051109,115.942901 147.385726,115.805622 147.780408,115.805622 L156.197388,115.805622 C156.57491,115.805622 156.905236,115.942901 157.188378,116.217462 C157.471519,116.492024 157.613088,116.82664 157.613088,117.221322 C157.613088,117.616004 157.471519,117.954911 157.188378,118.238052 C156.905236,118.521194 156.57491,118.662762 156.197388,118.662762 L149.221848,118.662762 L149.221848,123.373182 L155.219268,123.373182 C155.59679,123.373182 155.927116,123.514751 156.210258,123.797892 C156.493399,124.081034 156.634968,124.41565 156.634968,124.801752 C156.634968,125.187854 156.497689,125.522471 156.223128,125.805612 C155.948566,126.088754 155.61395,126.230322 155.219268,126.230322 L149.221848,126.230322 L149.221848,130.966482 L156.197388,130.966482 C156.57491,130.966482 156.905236,131.108051 157.188378,131.391192 C157.471519,131.674334 157.613088,132.00895 157.613088,132.395052 C157.613088,132.781154 157.471519,133.115771 157.188378,133.398912 C156.905236,133.682054 156.57491,133.823622 156.197388,133.823622 L147.857628,133.823622 L147.806148,133.797882 L147.780408,133.823622 Z M164.426435,121.725822 L164.426435,132.407922 C164.426435,132.785444 164.289157,133.115771 164.014595,133.398912 C163.740034,133.682054 163.409707,133.823622 163.023605,133.823622 C162.637503,133.823622 162.307177,133.686344 162.032615,133.411782 C161.758054,133.137221 161.620775,132.802604 161.620775,132.407922 L161.620775,117.427242 C161.586455,116.9296 161.753763,116.552084 162.122705,116.294682 C162.491647,116.037281 162.864873,115.938612 163.242395,115.998672 C163.619917,116.058733 163.920214,116.243201 164.143295,116.552082 L172.457315,128.057862 L172.457315,117.452982 C172.457315,117.07546 172.594594,116.749424 172.869155,116.474862 C173.143717,116.200301 173.469753,116.063022 173.847275,116.063022 C174.224797,116.063022 174.555124,116.200301 174.838265,116.474862 C175.121407,116.749424 175.262975,117.07546 175.262975,117.452982 L175.262975,132.407922 C175.262975,132.802604 175.121407,133.137221 174.838265,133.411782 C174.555124,133.686344 174.216217,133.823622 173.821535,133.823622 C173.426853,133.823622 173.083657,133.652024 172.791935,133.308822 C172.723295,133.240182 172.680395,133.188703 172.663235,133.154382 L164.426435,121.725822 Z M193.839503,117.221322 C193.839503,117.616004 193.697934,117.954911 193.414793,118.238052 C193.131651,118.521194 192.801324,118.662762 192.423803,118.662762 L188.331143,118.662762 L188.331143,132.407922 C188.331143,132.802604 188.193864,133.137221 187.919303,133.411782 C187.644741,133.686344 187.310125,133.823622 186.915443,133.823622 C186.520761,133.823622 186.186144,133.686344 185.911583,133.411782 C185.637021,133.137221 185.499743,132.802604 185.499743,132.407922 L185.499743,118.662762 L181.432823,118.662762 C181.038141,118.662762 180.703524,118.521194 180.428963,118.238052 C180.154401,117.954911 180.017123,117.616004 180.017123,117.221322 C180.017123,116.82664 180.154401,116.492024 180.428963,116.217462 C180.703524,115.942901 181.038141,115.805622 181.432823,115.805622 L192.423803,115.805622 C192.818485,115.805622 193.153101,115.942901 193.427663,116.217462 C193.702224,116.492024 193.839503,116.82664 193.839503,117.221322 L193.839503,117.221322 Z" id="UX-MANAGEMENT" fill="#4A4A4A"></path>
                <use id="Rectangle-2-Copy-2" stroke="#979797" mask="url(#mask-2)" stroke-width="2.2297275" xlink:href="#path-1"></use>
                <use id="Rectangle-2-Copy-3" stroke="#979797" mask="url(#mask-4)" stroke-width="2.2297275" xlink:href="#path-3"></use>
                <ellipse id="Oval-Copy-5" stroke="#979797" stroke-width="1.11486375" cx="229.474413" cy="154.011923" rx="4.46211057" ry="4.43837588"></ellipse>
            </g>
        </g>
    </g>
</svg>