<?xml version="1.0" encoding="UTF-8" standalone="no"?>
<svg width="203px" height="198px" viewBox="0 0 203 198" version="1.1" xmlns="http://www.w3.org/2000/svg" xmlns:xlink="http://www.w3.org/1999/xlink">
    <!-- Generator: Sketch 40.2 (33826) - http://www.bohemiancoding.com/sketch -->
    <title>Group 8</title>
    <desc>Created with Sketch.</desc>
    <defs>
        <rect id="path-1" x="5" y="112" width="203" height="36"></rect>
        <mask id="mask-2" maskContentUnits="userSpaceOnUse" maskUnits="objectBoundingBox" x="0" y="0" width="203" height="36" fill="white">
            <use xlink:href="#path-1"></use>
        </mask>
    </defs>
    <g id="Page-1" stroke="none" stroke-width="1" fill="none" fill-rule="evenodd">
        <g id="Desktop-HD-Copy-2" transform="translate(-928.000000, -605.000000)">
            <g id="Group-8" transform="translate(923.000000, 606.000000)">
                <g id="Group-3">
                    <text id="03" font-family="DINCondensed-Bold, DIN Condensed" font-size="240" font-weight="bold" letter-spacing="-4.61000013" fill="#F8E71C">
                        <tspan x="20.5250001" y="195">0</tspan>
                        <tspan x="105.195" y="195">3</tspan>
                    </text>
                    <path d="M203.739496,183.544277 C196.057123,183.544277 196.057123,175.534509 188.373637,175.534509 C180.687922,175.534509 180.687922,183.544277 173.002208,183.544277 C165.319835,183.544277 165.319835,175.534509 157.635235,175.534509 C149.947293,175.534509 149.947293,183.544277 142.259351,183.544277 C134.570295,183.544277 134.570295,175.534509 126.882353,175.534509" id="Page-1-Copy-2" stroke="#A8A8A8" stroke-width="1.125" stroke-linecap="round"></path>
                    <path d="M14.657,98.25 C14.3043316,98.25 14.0053346,98.1273346 13.76,97.882 C13.5146654,97.6366654 13.392,97.3376684 13.392,96.985 L13.392,83.415 C13.392,83.0623316 13.5146654,82.7633346 13.76,82.518 C14.0053346,82.2726654 14.3043316,82.15 14.657,82.15 C15.0096684,82.15 15.3124987,82.2726654 15.5655,82.518 C15.8185013,82.7633346 15.945,83.0623316 15.945,83.415 L15.945,88.935 L21.902,88.935 L21.902,83.415 C21.902,83.0623316 22.0246654,82.7633346 22.27,82.518 C22.5153346,82.2726654 22.8143316,82.15 23.167,82.15 C23.5196684,82.15 23.8224987,82.2726654 24.0755,82.518 C24.3285013,82.7633346 24.455,83.0623316 24.455,83.415 L24.455,96.985 C24.455,97.3376684 24.3285013,97.6366654 24.0755,97.882 C23.8224987,98.1273346 23.5196684,98.25 23.167,98.25 C22.8143316,98.25 22.5153346,98.1273346 22.27,97.882 C22.0246654,97.6366654 21.902,97.3376684 21.902,96.985 L21.902,91.465 L15.945,91.465 L15.945,96.985 C15.945,97.3376684 15.8185013,97.6366654 15.5655,97.882 C15.3124987,98.1273346 15.0096684,98.25 14.657,98.25 L14.657,98.25 Z M30.1083999,98.25 C29.7557315,98.25 29.4567345,98.1273346 29.2113999,97.882 C28.9660654,97.6366654 28.8433999,97.3376684 28.8433999,96.985 L28.8433999,83.415 C28.8433999,83.0623316 28.9660654,82.7633346 29.2113999,82.518 C29.4567345,82.2726654 29.7557315,82.15 30.1083999,82.15 L37.6293999,82.15 C37.966735,82.15 38.2618987,82.2726654 38.5148999,82.518 C38.7679012,82.7633346 38.8943999,83.0623316 38.8943999,83.415 C38.8943999,83.7676684 38.7679012,84.0704987 38.5148999,84.3235 C38.2618987,84.5765013 37.966735,84.703 37.6293999,84.703 L31.3963999,84.703 L31.3963999,88.912 L36.7553999,88.912 C37.092735,88.912 37.3878987,89.0384987 37.6408999,89.2915 C37.8939012,89.5445013 38.0203999,89.8434983 38.0203999,90.1885 C38.0203999,90.5335017 37.8977345,90.8324987 37.6523999,91.0855 C37.4070654,91.3385013 37.1080684,91.465 36.7553999,91.465 L31.3963999,91.465 L31.3963999,95.697 L37.6293999,95.697 C37.966735,95.697 38.2618987,95.8234987 38.5148999,96.0765 C38.7679012,96.3295013 38.8943999,96.6284983 38.8943999,96.9735 C38.8943999,97.3185017 38.7679012,97.6174987 38.5148999,97.8705 C38.2618987,98.1235013 37.966735,98.25 37.6293999,98.25 L30.1773999,98.25 L30.1313999,98.227 L30.1083999,98.25 Z M49.8147999,90.867 C50.8574718,91.6643373 51.3787999,92.7759929 51.3787999,94.202 C51.3634665,94.7080025 51.3941328,95.1603313 51.4707999,95.559 C51.8694685,95.6816673 52.1377992,95.9461646 52.2757999,96.3525 C52.4138006,96.7588354 52.3524679,97.1383316 52.0917999,97.491 C51.8311319,97.8436684 51.455469,98.02 50.9647999,98.02 L50.9417999,98.02 C50.2517964,98.02 49.7074685,97.6673369 49.3087999,96.962 C48.9867983,96.28733 48.8257999,95.3673392 48.8257999,94.202 C48.7951331,93.4966631 48.4731363,92.9446687 47.8597999,92.546 C47.4611312,92.285332 47.0318022,92.1013339 46.5717999,91.994 L43.8577999,91.994 L43.8577999,96.985 C43.8577999,97.3376684 43.7313011,97.6366654 43.4782999,97.882 C43.2252986,98.1273346 42.9224683,98.25 42.5697999,98.25 C42.2171315,98.25 41.9181344,98.1273346 41.6727999,97.882 C41.4274653,97.6366654 41.3047999,97.3376684 41.3047999,96.985 L41.3047999,83.415 C41.3047999,83.0623316 41.4274653,82.7633346 41.6727999,82.518 C41.9181344,82.2726654 42.2171315,82.15 42.5697999,82.15 L46.6867999,82.15 C48.0514734,82.15 49.2129618,82.6329952 50.1712999,83.599 C51.129638,84.5650048 51.6087999,85.7686595 51.6087999,87.21 C51.6087999,88.6513405 51.0108059,89.8703284 49.8147999,90.867 L49.8147999,90.867 Z M46.6867999,89.441 C47.3461365,89.441 47.9057976,89.2110023 48.3657999,88.751 C48.8258022,88.2909977 49.0557999,87.7351699 49.0557999,87.0835 C49.0557999,86.4318301 48.8258022,85.872169 48.3657999,85.4045 C47.9057976,84.936831 47.3461365,84.703 46.6867999,84.703 L43.8577999,84.703 L43.8577999,89.441 L46.6867999,89.441 Z M63.3341998,90.867 C64.3768717,91.6643373 64.8981998,92.7759929 64.8981998,94.202 C64.8828664,94.7080025 64.9135328,95.1603313 64.9901998,95.559 C65.3888685,95.6816673 65.6571991,95.9461646 65.7951998,96.3525 C65.9332005,96.7588354 65.8718678,97.1383316 65.6111998,97.491 C65.3505319,97.8436684 64.9748689,98.02 64.4841998,98.02 L64.4611998,98.02 C63.7711964,98.02 63.2268685,97.6673369 62.8281998,96.962 C62.5061982,96.28733 62.3451998,95.3673392 62.3451998,94.202 C62.314533,93.4966631 61.9925362,92.9446687 61.3791998,92.546 C60.9805312,92.285332 60.5512021,92.1013339 60.0911998,91.994 L57.3771998,91.994 L57.3771998,96.985 C57.3771998,97.3376684 57.2507011,97.6366654 56.9976998,97.882 C56.7446986,98.1273346 56.4418683,98.25 56.0891998,98.25 C55.7365314,98.25 55.4375344,98.1273346 55.1921998,97.882 C54.9468653,97.6366654 54.8241998,97.3376684 54.8241998,96.985 L54.8241998,83.415 C54.8241998,83.0623316 54.9468653,82.7633346 55.1921998,82.518 C55.4375344,82.2726654 55.7365314,82.15 56.0891998,82.15 L60.2061998,82.15 C61.5708733,82.15 62.7323617,82.6329952 63.6906998,83.599 C64.6490379,84.5650048 65.1281998,85.7686595 65.1281998,87.21 C65.1281998,88.6513405 64.5302058,89.8703284 63.3341998,90.867 L63.3341998,90.867 Z M60.2061998,89.441 C60.8655365,89.441 61.4251975,89.2110023 61.8851998,88.751 C62.3452021,88.2909977 62.5751998,87.7351699 62.5751998,87.0835 C62.5751998,86.4318301 62.3452021,85.872169 61.8851998,85.4045 C61.4251975,84.936831 60.8655365,84.703 60.2061998,84.703 L57.3771998,84.703 L57.3771998,89.441 L60.2061998,89.441 Z M78.0035998,97.445 L76.8765998,94.455 L71.2875998,94.455 L70.1605998,97.445 C69.945932,97.9816694 69.5741024,98.25 69.0450998,98.25 C68.5160971,98.25 68.1366009,98.0621685 67.9065998,97.6865 C67.6765986,97.3108315 67.6305991,96.9236687 67.7685998,96.525 L72.8515998,82.978 C72.9589336,82.7326654 73.1237653,82.5333341 73.3460998,82.38 C73.5684342,82.2266659 73.8099318,82.1576666 74.0705998,82.173 C74.6532693,82.1423332 75.0595986,82.4106638 75.2895998,82.978 L80.3725998,96.525 C80.5106005,96.9236687 80.4646009,97.3108315 80.2345998,97.6865 C80.0045986,98.0621685 79.6251024,98.25 79.0960998,98.25 C78.5670971,98.25 78.2029341,97.9816694 78.0035998,97.445 L78.0035998,97.445 Z M72.2075998,91.925 L75.9335998,91.925 L74.0705998,86.98 L72.2075998,91.925 Z M89.6139997,92.431 L89.5679997,92.431 C89.1233308,92.431 88.7706677,92.2546684 88.5099997,91.902 L85.2209997,87.302 L85.2209997,96.985 C85.2209997,97.3376684 85.094501,97.6366654 84.8414997,97.882 C84.5884984,98.1273346 84.2856681,98.25 83.9329997,98.25 C83.5803313,98.25 83.2813343,98.1273346 83.0359997,97.882 C82.7906651,97.6366654 82.6679997,97.3376684 82.6679997,96.985 L82.6679997,83.415 C82.6679997,83.0623316 82.7906651,82.7633346 83.0359997,82.518 C83.2813343,82.2726654 83.5803313,82.15 83.9329997,82.15 L84.0019997,82.15 C84.4466686,82.15 84.7839986,82.3263316 85.0139997,82.679 L89.5909997,89.027 L94.1679997,82.679 C94.4286677,82.3263316 94.7736642,82.15 95.2029997,82.15 L95.2259997,82.15 C95.5786681,82.1653334 95.8814984,82.2956654 96.1344997,82.541 C96.387501,82.7863346 96.5139997,83.077665 96.5139997,83.415 L96.5139997,96.985 C96.5139997,97.322335 96.387501,97.6174987 96.1344997,97.8705 C95.8814984,98.1235013 95.5786681,98.25 95.2259997,98.25 C94.8733313,98.25 94.5743343,98.1273346 94.3289997,97.882 C94.0836651,97.6366654 93.9609997,97.3376684 93.9609997,96.985 L93.9609997,87.302 L90.6489997,91.902 C90.3883317,92.2546684 90.0433352,92.431 89.6139997,92.431 L89.6139997,92.431 Z M101.3854,83.415 C101.3854,83.0623316 101.508065,82.7633346 101.7534,82.518 C101.998734,82.2726654 102.297731,82.15 102.6504,82.15 C103.003068,82.15 103.305898,82.2726654 103.5589,82.518 C103.811901,82.7633346 103.9384,83.0623316 103.9384,83.415 L103.9384,96.985 C103.9384,97.3376684 103.811901,97.6366654 103.5589,97.882 C103.305898,98.1273346 103.003068,98.25 102.6504,98.25 C102.297731,98.25 101.998734,98.1273346 101.7534,97.882 C101.508065,97.6366654 101.3854,97.3376684 101.3854,96.985 L101.3854,83.415 Z M108.6488,98.25 C108.296131,98.25 107.997134,98.1273346 107.7518,97.882 C107.506465,97.6366654 107.3838,97.3376684 107.3838,96.985 L107.3838,83.415 C107.3838,83.0623316 107.506465,82.7633346 107.7518,82.518 C107.997134,82.2726654 108.296131,82.15 108.6488,82.15 L116.1698,82.15 C116.507135,82.15 116.802298,82.2726654 117.0553,82.518 C117.308301,82.7633346 117.4348,83.0623316 117.4348,83.415 C117.4348,83.7676684 117.308301,84.0704987 117.0553,84.3235 C116.802298,84.5765013 116.507135,84.703 116.1698,84.703 L109.9368,84.703 L109.9368,88.912 L115.2958,88.912 C115.633135,88.912 115.928298,89.0384987 116.1813,89.2915 C116.434301,89.5445013 116.5608,89.8434983 116.5608,90.1885 C116.5608,90.5335017 116.438134,90.8324987 116.1928,91.0855 C115.947465,91.3385013 115.648468,91.465 115.2958,91.465 L109.9368,91.465 L109.9368,95.697 L116.1698,95.697 C116.507135,95.697 116.802298,95.8234987 117.0553,96.0765 C117.308301,96.3295013 117.4348,96.6284983 117.4348,96.9735 C117.4348,97.3185017 117.308301,97.6174987 117.0553,97.8705 C116.802298,98.1235013 116.507135,98.25 116.1698,98.25 L108.7178,98.25 L108.6718,98.227 L108.6488,98.25 Z M122.6972,87.44 L122.6972,96.985 C122.6972,97.322335 122.574534,97.6174987 122.3292,97.8705 C122.083865,98.1235013 121.788701,98.25 121.4437,98.25 C121.098698,98.25 120.803534,98.1273346 120.5582,97.882 C120.312865,97.6366654 120.1902,97.3376684 120.1902,96.985 L120.1902,83.599 C120.159533,83.1543311 120.309031,82.8170012 120.6387,82.587 C120.968368,82.3569989 121.301865,82.2688331 121.6392,82.3225 C121.976535,82.3761669 122.244865,82.5409986 122.4442,82.817 L129.8732,93.098 L129.8732,83.622 C129.8732,83.284665 129.995865,82.9933346 130.2412,82.748 C130.486534,82.5026654 130.777865,82.38 131.1152,82.38 C131.452535,82.38 131.747698,82.5026654 132.0007,82.748 C132.253701,82.9933346 132.3802,83.284665 132.3802,83.622 L132.3802,96.985 C132.3802,97.3376684 132.253701,97.6366654 132.0007,97.882 C131.747698,98.1273346 131.444868,98.25 131.0922,98.25 C130.739531,98.25 130.432867,98.0966682 130.1722,97.79 C130.110866,97.7286664 130.072533,97.6826668 130.0572,97.652 L122.6972,87.44 Z M148.153599,83.415 C148.153599,83.7676684 148.027101,84.0704987 147.774099,84.3235 C147.521098,84.5765013 147.225934,84.703 146.888599,84.703 L143.231599,84.703 L143.231599,96.985 C143.231599,97.3376684 143.108934,97.6366654 142.863599,97.882 C142.618265,98.1273346 142.319268,98.25 141.966599,98.25 C141.613931,98.25 141.314934,98.1273346 141.069599,97.882 C140.824265,97.6366654 140.701599,97.3376684 140.701599,96.985 L140.701599,84.703 L137.067599,84.703 C136.714931,84.703 136.415934,84.5765013 136.170599,84.3235 C135.925265,84.0704987 135.802599,83.7676684 135.802599,83.415 C135.802599,83.0623316 135.925265,82.7633346 136.170599,82.518 C136.415934,82.2726654 136.714931,82.15 137.067599,82.15 L146.888599,82.15 C147.241268,82.15 147.540265,82.2726654 147.785599,82.518 C148.030934,82.7633346 148.153599,83.0623316 148.153599,83.415 L148.153599,83.415 Z M160.430999,97.445 L159.303999,94.455 L153.714999,94.455 L152.587999,97.445 C152.373332,97.9816694 152.001502,98.25 151.472499,98.25 C150.943497,98.25 150.564001,98.0621685 150.333999,97.6865 C150.103998,97.3108315 150.057999,96.9236687 150.195999,96.525 L155.278999,82.978 C155.386333,82.7326654 155.551165,82.5333341 155.773499,82.38 C155.995834,82.2266659 156.237331,82.1576666 156.497999,82.173 C157.080669,82.1423332 157.486998,82.4106638 157.716999,82.978 L162.799999,96.525 C162.938,96.9236687 162.892001,97.3108315 162.661999,97.6865 C162.431998,98.0621685 162.052502,98.25 161.523499,98.25 C160.994497,98.25 160.630334,97.9816694 160.430999,97.445 L160.430999,97.445 Z M154.634999,91.925 L158.360999,91.925 L156.497999,86.98 L154.634999,91.925 Z M174.525399,93.351 C174.525399,92.1856608 173.17608,91.3500025 170.477399,90.844 L170.431399,90.844 C169.235393,90.6139989 168.200404,90.2920021 167.326399,89.878 C166.452395,89.4639979 165.812235,88.9311699 165.405899,88.2795 C164.999564,87.6278301 164.796399,86.9570035 164.796399,86.267 C164.796399,84.9329933 165.382893,83.836671 166.555899,82.978 C167.728905,82.119329 169.082058,81.69 170.615399,81.69 C171.290069,81.69 171.980062,81.8049989 172.685399,82.035 C173.390736,82.2650012 173.915898,82.4796657 174.260899,82.679 C174.605901,82.8783343 175.062063,83.1619982 175.629399,83.53 C175.890067,83.7140009 176.054899,83.9669984 176.123899,84.289 C176.1929,84.6110016 176.139234,84.9061653 175.962899,85.1745 C175.786565,85.4428347 175.537401,85.6114997 175.215399,85.6805 C174.893398,85.7495003 174.594401,85.6920009 174.318399,85.508 C173.597729,85.0173309 172.957569,84.6493346 172.397899,84.404 C171.83823,84.1586654 171.244069,84.036 170.615399,84.036 C169.603394,84.036 168.775403,84.2736643 168.131399,84.749 C167.487396,85.2243357 167.165399,85.7303307 167.165399,86.267 C167.165399,86.527668 167.226732,86.7499991 167.349399,86.934 C167.778735,87.6393369 168.93639,88.1683316 170.822399,88.521 L170.868399,88.521 C172.156406,88.781668 173.214395,89.1036648 174.042399,89.487 C175.943742,90.422338 176.894399,91.7103251 176.894399,93.351 C176.894399,94.7770071 176.265739,95.9461621 175.008399,96.8585 C173.75106,97.7708379 172.302074,98.227 170.661399,98.227 C168.652723,98.2116666 166.690076,97.4450076 164.773399,95.927 C164.528065,95.7276657 164.386233,95.459335 164.347899,95.122 C164.309566,94.784665 164.390065,94.4933346 164.589399,94.248 C164.788734,94.0026654 165.057064,93.8608335 165.394399,93.8225 C165.731734,93.7841665 166.023065,93.8723323 166.268399,94.087 C167.740407,95.283006 169.204725,95.8733334 170.661399,95.858 C171.811405,95.858 172.742896,95.5935026 173.455899,95.0645 C174.168903,94.5354974 174.525399,93.9643364 174.525399,93.351 L174.525399,93.351 Z" id="HERRAMIENTAS" fill="#4A4A4A"></path>
                    <path d="M13.392,136.985 L13.392,123.415 C13.392,123.062332 13.5146654,122.763335 13.76,122.518 C14.0053346,122.272665 14.3043316,122.15 14.657,122.15 L17.371,122.15 C19.5943444,122.15 21.4879922,122.935825 23.052,124.5075 C24.6160078,126.079175 25.398,127.976656 25.398,130.2 C25.398,132.423344 24.6160078,134.320825 23.052,135.8925 C21.4879922,137.464175 19.5943444,138.25 17.371,138.25 L14.657,138.25 C14.3043316,138.25 14.0053346,138.127335 13.76,137.882 C13.5146654,137.636665 13.392,137.337668 13.392,136.985 L13.392,136.985 Z M15.945,124.703 L15.945,135.697 L17.371,135.697 C18.8890076,135.681667 20.180828,135.141172 21.2465,134.0755 C22.312172,133.009828 22.845,131.718008 22.845,130.2 C22.845,128.681992 22.312172,127.386339 21.2465,126.313 C20.180828,125.239661 18.8890076,124.703 17.371,124.703 L15.945,124.703 Z M30.3383999,138.25 C29.9857315,138.25 29.6867345,138.127335 29.4413999,137.882 C29.1960654,137.636665 29.0733999,137.337668 29.0733999,136.985 L29.0733999,123.415 C29.0733999,123.062332 29.1960654,122.763335 29.4413999,122.518 C29.6867345,122.272665 29.9857315,122.15 30.3383999,122.15 L37.8593999,122.15 C38.196735,122.15 38.4918987,122.272665 38.7448999,122.518 C38.9979012,122.763335 39.1243999,123.062332 39.1243999,123.415 C39.1243999,123.767668 38.9979012,124.070499 38.7448999,124.3235 C38.4918987,124.576501 38.196735,124.703 37.8593999,124.703 L31.6263999,124.703 L31.6263999,128.912 L36.9853999,128.912 C37.322735,128.912 37.6178987,129.038499 37.8708999,129.2915 C38.1239012,129.544501 38.2503999,129.843498 38.2503999,130.1885 C38.2503999,130.533502 38.1277345,130.832499 37.8823999,131.0855 C37.6370654,131.338501 37.3380684,131.465 36.9853999,131.465 L31.6263999,131.465 L31.6263999,135.697 L37.8593999,135.697 C38.196735,135.697 38.4918987,135.823499 38.7448999,136.0765 C38.9979012,136.329501 39.1243999,136.628498 39.1243999,136.9735 C39.1243999,137.318502 38.9979012,137.617499 38.7448999,137.8705 C38.4918987,138.123501 38.196735,138.25 37.8593999,138.25 L30.4073999,138.25 L30.3613999,138.227 L30.3383999,138.25 Z M47.9011998,136.985 L47.9011998,123.415 C47.9011998,123.062332 48.0238653,122.763335 48.2691998,122.518 C48.5145344,122.272665 48.8135314,122.15 49.1661998,122.15 L51.8801998,122.15 C54.1035443,122.15 55.997192,122.935825 57.5611998,124.5075 C59.1252076,126.079175 59.9071998,127.976656 59.9071998,130.2 C59.9071998,132.423344 59.1252076,134.320825 57.5611998,135.8925 C55.997192,137.464175 54.1035443,138.25 51.8801998,138.25 L49.1661998,138.25 C48.8135314,138.25 48.5145344,138.127335 48.2691998,137.882 C48.0238653,137.636665 47.9011998,137.337668 47.9011998,136.985 L47.9011998,136.985 Z M50.4541998,124.703 L50.4541998,135.697 L51.8801998,135.697 C53.3982074,135.681667 54.6900278,135.141172 55.7556998,134.0755 C56.8213718,133.009828 57.3541998,131.718008 57.3541998,130.2 C57.3541998,128.681992 56.8213718,127.386339 55.7556998,126.313 C54.6900278,125.239661 53.3982074,124.703 51.8801998,124.703 L50.4541998,124.703 Z M63.7435998,123.415 C63.7435998,123.062332 63.8662652,122.763335 64.1115998,122.518 C64.3569343,122.272665 64.6559313,122.15 65.0085998,122.15 C65.3612682,122.15 65.6640985,122.272665 65.9170998,122.518 C66.170101,122.763335 66.2965998,123.062332 66.2965998,123.415 L66.2965998,136.985 C66.2965998,137.337668 66.170101,137.636665 65.9170998,137.882 C65.6640985,138.127335 65.3612682,138.25 65.0085998,138.25 C64.6559313,138.25 64.3569343,138.127335 64.1115998,137.882 C63.8662652,137.636665 63.7435998,137.337668 63.7435998,136.985 L63.7435998,123.415 Z M79.1719997,133.351 C79.1719997,132.185661 77.8226799,131.350003 75.1239997,130.844 L75.0779997,130.844 C73.8819937,130.613999 72.8470041,130.292002 71.9729997,129.878 C71.0989953,129.463998 70.4588351,128.93117 70.0524997,128.2795 C69.6461643,127.62783 69.4429997,126.957003 69.4429997,126.267 C69.4429997,124.932993 70.0294938,123.836671 71.2024997,122.978 C72.3755056,122.119329 73.7286587,121.69 75.2619997,121.69 C75.9366697,121.69 76.6266628,121.804999 77.3319997,122.035 C78.0373366,122.265001 78.562498,122.479666 78.9074997,122.679 C79.2525014,122.878334 79.7086635,123.161998 80.2759997,123.53 C80.5366677,123.714001 80.7014994,123.966998 80.7704997,124.289 C80.8395,124.611002 80.7858339,124.906165 80.6094997,125.1745 C80.4331655,125.442835 80.1840013,125.6115 79.8619997,125.6805 C79.5399981,125.7495 79.2410011,125.692001 78.9649997,125.508 C78.2443294,125.017331 77.6041692,124.649335 77.0444997,124.404 C76.4848302,124.158665 75.8906695,124.036 75.2619997,124.036 C74.2499946,124.036 73.4220029,124.273664 72.7779997,124.749 C72.1339965,125.224336 71.8119997,125.730331 71.8119997,126.267 C71.8119997,126.527668 71.8733324,126.749999 71.9959997,126.934 C72.4253352,127.639337 73.5829903,128.168332 75.4689997,128.521 L75.5149997,128.521 C76.8030061,128.781668 77.8609956,129.103665 78.6889997,129.487 C80.5903425,130.422338 81.5409997,131.710325 81.5409997,133.351 C81.5409997,134.777007 80.9123393,135.946162 79.6549997,136.8585 C78.3976601,137.770838 76.9486746,138.227 75.3079997,138.227 C73.299323,138.211667 71.336676,137.445008 69.4199997,135.927 C69.1746651,135.727666 69.0328332,135.459335 68.9944997,135.122 C68.9561662,134.784665 69.0366654,134.493335 69.2359997,134.248 C69.435334,134.002665 69.7036647,133.860834 70.0409997,133.8225 C70.3783347,133.784166 70.6696651,133.872332 70.9149997,134.087 C72.3870071,135.283006 73.8513258,135.873333 75.3079997,135.858 C76.4580055,135.858 77.3894961,135.593503 78.1024997,135.0645 C78.8155033,134.535497 79.1719997,133.964336 79.1719997,133.351 L79.1719997,133.351 Z M85.4923996,138.25 C85.1397312,138.25 84.8407342,138.127335 84.5953996,137.882 C84.3500651,137.636665 84.2273996,137.337668 84.2273996,136.985 L84.2273996,123.415 C84.2273996,123.062332 84.3500651,122.763335 84.5953996,122.518 C84.8407342,122.272665 85.1397312,122.15 85.4923996,122.15 L93.0133996,122.15 C93.3507347,122.15 93.6458984,122.272665 93.8988996,122.518 C94.1519009,122.763335 94.2783996,123.062332 94.2783996,123.415 C94.2783996,123.767668 94.1519009,124.070499 93.8988996,124.3235 C93.6458984,124.576501 93.3507347,124.703 93.0133996,124.703 L86.7803996,124.703 L86.7803996,128.912 L92.1393996,128.912 C92.4767347,128.912 92.7718984,129.038499 93.0248996,129.2915 C93.2779009,129.544501 93.4043996,129.843498 93.4043996,130.1885 C93.4043996,130.533502 93.2817342,130.832499 93.0363996,131.0855 C92.7910651,131.338501 92.4920681,131.465 92.1393996,131.465 L86.7803996,131.465 L86.7803996,135.697 L93.0133996,135.697 C93.3507347,135.697 93.6458984,135.823499 93.8988996,136.0765 C94.1519009,136.329501 94.2783996,136.628498 94.2783996,136.9735 C94.2783996,137.318502 94.1519009,137.617499 93.8988996,137.8705 C93.6458984,138.123501 93.3507347,138.25 93.0133996,138.25 L85.5613996,138.25 L85.5153996,138.227 L85.4923996,138.25 Z M99.5407996,127.44 L99.5407996,136.985 C99.5407996,137.322335 99.4181341,137.617499 99.1727996,137.8705 C98.927465,138.123501 98.6323013,138.25 98.2872996,138.25 C97.9422979,138.25 97.6471341,138.127335 97.4017996,137.882 C97.156465,137.636665 97.0337996,137.337668 97.0337996,136.985 L97.0337996,123.599 C97.0031328,123.154331 97.1526313,122.817001 97.4822996,122.587 C97.8119679,122.356999 98.1454646,122.268833 98.4827996,122.3225 C98.8201346,122.376167 99.0884653,122.540999 99.2877996,122.817 L106.7168,133.098 L106.7168,123.622 C106.7168,123.284665 106.839465,122.993335 107.0848,122.748 C107.330134,122.502665 107.621465,122.38 107.9588,122.38 C108.296135,122.38 108.591298,122.502665 108.8443,122.748 C109.097301,122.993335 109.2238,123.284665 109.2238,123.622 L109.2238,136.985 C109.2238,137.337668 109.097301,137.636665 108.8443,137.882 C108.591298,138.127335 108.288468,138.25 107.9358,138.25 C107.583131,138.25 107.276468,138.096668 107.0158,137.79 C106.954466,137.728666 106.916133,137.682667 106.9008,137.652 L99.5407996,127.44 Z M100.5298,119.781 C100.330465,120.087668 100.096634,120.241 99.8282996,120.241 C99.5599649,120.241 99.3414671,120.164334 99.1727996,120.011 C99.0041321,119.857666 98.9197996,119.696668 98.9197996,119.528 C98.9197996,119.359332 98.9504659,119.167668 99.0117996,118.953 C99.2724676,118.247663 99.5829645,117.722502 99.9432996,117.3775 C100.303635,117.032498 100.744464,116.86 101.2658,116.86 C101.787136,116.86 102.423462,117.013332 103.1748,117.32 C103.926137,117.626668 104.424465,117.78 104.6698,117.78 C105.114468,117.78 105.467132,117.534669 105.7278,117.044 C105.927134,116.737332 106.160965,116.584 106.4293,116.584 C106.697634,116.584 106.916132,116.660666 107.0848,116.814 C107.253467,116.967334 107.3378,117.128332 107.3378,117.297 C107.3378,117.465668 107.307133,117.657332 107.2458,117.872 C106.985132,118.577337 106.674635,119.102498 106.3143,119.4475 C105.953964,119.792502 105.513136,119.965 104.9918,119.965 C104.470464,119.965 103.834137,119.811668 103.0828,119.505 C102.331462,119.198332 101.833134,119.045 101.5878,119.045 C101.143131,119.045 100.790468,119.290331 100.5298,119.781 L100.5298,119.781 Z M113.6122,129.97 C113.6122,127.700655 114.375025,125.753341 115.9007,124.128 C117.426374,122.502659 119.285522,121.69 121.4782,121.69 C123.670877,121.69 125.530025,122.514158 127.0557,124.1625 C128.581374,125.810842 129.3442,127.754322 129.3442,129.993 C129.3442,132.231678 128.569874,134.163659 127.0212,135.789 C126.331196,136.55567 125.503204,137.157498 124.5372,137.5945 C123.571195,138.031502 122.566871,138.25 121.5242,138.25 C119.300855,138.25 117.426374,137.437341 115.9007,135.812 C114.375025,134.186659 113.6122,132.239345 113.6122,129.97 L113.6122,129.97 Z M117.7752,133.9605 C118.802538,135.072172 120.040692,135.628 121.4897,135.628 C122.938707,135.628 124.173028,135.064506 125.1927,133.9375 C126.212371,132.810494 126.7222,131.488008 126.7222,129.97 C126.7222,128.451992 126.216205,127.129506 125.2042,126.0025 C124.192194,124.875494 122.95404,124.312 121.4897,124.312 C120.025359,124.312 118.783371,124.867828 117.7637,125.9795 C116.744028,127.091172 116.2342,128.421326 116.2342,129.97 C116.2342,131.518674 116.747861,132.848828 117.7752,133.9605 L117.7752,133.9605 Z" id="DE-DISEÑO" fill="#4A4A4A"></path>
                    <use id="Rectangle-2-Copy-4" stroke="#979797" mask="url(#mask-2)" stroke-width="2.25" xlink:href="#path-1"></use>
                    <circle id="Oval-Copy-4" stroke="#979797" stroke-width="1.125" cx="11.5" cy="22.5" r="4.5"></circle>
                    <circle id="Oval-Copy-4" stroke="#979797" stroke-width="1.125" cx="11.5" cy="4.5" r="4.5"></circle>
                    <ellipse id="Oval-Copy-6" stroke="#979797" stroke-width="1.125" cx="194" cy="129.5" rx="4" ry="4.5"></ellipse>
                    <path d="M205.844106,17 L159.813859,62.8722947" id="Line-Copy-4" stroke="#979797" stroke-width="1.125" stroke-linecap="square"></path>
                </g>
            </g>
        </g>
    </g>
</svg>