<?xml version="1.0" encoding="UTF-8"?>
<svg width="260px" height="216px" viewBox="0 0 260 216" version="1.1" xmlns="http://www.w3.org/2000/svg" xmlns:xlink="http://www.w3.org/1999/xlink" style="background: #FFFFFF;">
    <!-- Generator: Sketch 41 (35326) - http://www.bohemiancoding.com/sketch -->
    <title>episode-082</title>
    <desc>Created with Sketch.</desc>
    <defs>
        <rect id="path-1" x="0" y="86.4801146" width="123" height="42.2048986"></rect>
        <mask id="mask-2" maskContentUnits="userSpaceOnUse" maskUnits="objectBoundingBox" x="0" y="0" width="123" height="42.2048986" fill="white">
            <use xlink:href="#path-1"></use>
        </mask>
    </defs>
    <g id="Page-1" stroke="none" stroke-width="1" fill="none" fill-rule="evenodd">
        <g id="episode-082">
            <g id="Group-2" transform="translate(17.000000, 16.000000)">
                <text id="08" font-family="DINCondensed-Bold, DIN Condensed" font-size="261.025352" font-weight="bold" letter-spacing="-0.339643514" fill="#50E3C2">
                    <tspan x="35.5944764" y="186.234076">08</tspan>
                </text>
                <use id="Rectangle-2-Copy-2" stroke="#979797" mask="url(#mask-2)" stroke-width="2.35534595" xlink:href="#path-1"></use>
                <ellipse id="Oval-Copy-5" stroke="#979797" stroke-width="1.17767298" cx="7.10677439" cy="26.890385" rx="4.71349708" ry="4.68943318"></ellipse>
            </g>
            <path d="M32.452,94 C32.0226645,94 31.6586682,93.8506682 31.36,93.552 C31.0613318,93.2533318 30.912,92.8893355 30.912,92.46 L30.912,75.94 C30.912,75.5106645 31.0613318,75.1466682 31.36,74.848 C31.6586682,74.5493318 32.0226645,74.4 32.452,74.4 L41.608,74.4 C42.0186687,74.4 42.3779985,74.5493318 42.686,74.848 C42.9940015,75.1466682 43.148,75.5106645 43.148,75.94 C43.148,76.3693355 42.9940015,76.7379985 42.686,77.046 C42.3779985,77.3540015 42.0186687,77.508 41.608,77.508 L34.02,77.508 L34.02,82.632 L40.544,82.632 C40.9546687,82.632 41.3139985,82.7859985 41.622,83.094 C41.9300015,83.4020015 42.084,83.7659979 42.084,84.186 C42.084,84.6060021 41.9346682,84.9699985 41.636,85.278 C41.3373318,85.5860015 40.9733355,85.74 40.544,85.74 L34.02,85.74 L34.02,90.892 L41.608,90.892 C42.0186687,90.892 42.3779985,91.0459985 42.686,91.354 C42.9940015,91.6620015 43.148,92.0259979 43.148,92.446 C43.148,92.8660021 42.9940015,93.2299985 42.686,93.538 C42.3779985,93.8460015 42.0186687,94 41.608,94 L32.536,94 L32.48,93.972 L32.452,94 Z M47.4795667,92.46 L47.4795667,75.94 C47.4795667,75.5106645 47.6288985,75.1466682 47.9275667,74.848 C48.2262348,74.5493318 48.5902312,74.4 49.0195667,74.4 L52.3235667,74.4 C55.0302469,74.4 57.3355571,75.3566571 59.2395667,77.27 C61.1435762,79.1833429 62.0955667,81.4933198 62.0955667,84.2 C62.0955667,86.9066802 61.1435762,89.2166571 59.2395667,91.13 C57.3355571,93.0433429 55.0302469,94 52.3235667,94 L49.0195667,94 C48.5902312,94 48.2262348,93.8506682 47.9275667,93.552 C47.6288985,93.2533318 47.4795667,92.8893355 47.4795667,92.46 Z M50.5875667,77.508 L50.5875667,90.892 L52.3235667,90.892 C54.1715759,90.8733332 55.7442268,90.2153398 57.0415667,88.918 C58.3389065,87.6206602 58.9875667,86.0480092 58.9875667,84.2 C58.9875667,82.3519908 58.3389065,80.7746732 57.0415667,79.468 C55.7442268,78.1613268 54.1715759,77.508 52.3235667,77.508 L50.5875667,77.508 Z M83.7871333,85.908 C83.7871333,88.1293444 82.9984745,90.0333254 81.4211333,91.62 C79.8437921,93.2066746 77.9351445,94 75.6951333,94 C73.4551221,94 71.5464745,93.2113412 69.9691333,91.634 C68.3917921,90.0566588 67.6031333,88.1480112 67.6031333,85.908 L67.6031333,75.94 C67.6031333,75.5106645 67.7524652,75.1466682 68.0511333,74.848 C68.3498015,74.5493318 68.7137978,74.4 69.1431333,74.4 C69.5724688,74.4 69.9411318,74.5493318 70.2491333,74.848 C70.5571349,75.1466682 70.7111333,75.5106645 70.7111333,75.94 L70.7111333,85.908 C70.7111333,87.2706735 71.1964618,88.4419951 72.1671333,89.422 C73.1378048,90.4020049 74.3137931,90.892 75.6951333,90.892 C77.0764736,90.892 78.2524618,90.4066715 79.2231333,89.436 C80.1938048,88.4653285 80.6791333,87.2893402 80.6791333,85.908 L80.6791333,75.94 C80.6791333,75.5106645 80.8331318,75.1466682 81.1411333,74.848 C81.4491349,74.5493318 81.8177978,74.4 82.2471333,74.4 C82.6764688,74.4 83.0404652,74.5493318 83.3391333,74.848 C83.6378015,75.1466682 83.7871333,75.5106645 83.7871333,75.94 L83.7871333,85.908 Z M94.6987,79.048 C93.3360265,80.448007 92.6547,82.0906572 92.6547,83.976 C92.6547,85.8613428 93.3500264,87.4713267 94.7407,88.806 C96.1313736,90.1406733 97.7413575,90.808 99.5707,90.808 C101.400042,90.808 102.958694,90.2946718 104.2467,89.268 C104.564035,89.0253321 104.946698,88.9319997 105.3947,88.988 C105.842702,89.0440003 106.206699,89.2399983 106.4867,89.576 C106.748035,89.9306684 106.8507,90.3273311 106.7947,90.766 C106.7387,91.2046689 106.542702,91.5546654 106.2067,91.816 C104.340024,93.2720073 102.184046,94 99.7387,94 C96.938686,94 94.5307101,93.0153432 92.5147,91.046 C90.4986899,89.0766568 89.4813667,86.7013472 89.4627,83.92 C89.4813667,81.1573195 90.4986899,78.7913432 92.5147,76.822 C94.5307101,74.8526568 96.938686,73.8586668 99.7387,73.84 C102.184046,73.84 104.340024,74.5679927 106.2067,76.024 C106.542702,76.3040014 106.7387,76.6586645 106.7947,77.088 C106.8507,77.5173355 106.743368,77.9093316 106.4727,78.264 C106.202032,78.6186684 105.842702,78.8239997 105.3947,78.88 C104.946698,78.9360003 104.564035,78.8333346 104.2467,78.572 C102.996027,77.5453282 101.451376,77.032 99.6127,77.032 C97.7740241,77.032 96.1360405,77.7039933 94.6987,79.048 Z M123.250267,93.02 L121.878267,89.38 L115.074267,89.38 L113.702267,93.02 C113.440932,93.6733366 112.98827,94 112.344267,94 C111.700263,94 111.238268,93.7713356 110.958267,93.314 C110.678265,92.8566644 110.622266,92.3853358 110.790267,91.9 L116.978267,75.408 C117.108934,75.1093318 117.309599,74.8666676 117.580267,74.68 C117.850935,74.4933324 118.144932,74.4093332 118.462267,74.428 C119.171604,74.3906665 119.666265,74.7173299 119.946267,75.408 L126.134267,91.9 C126.302267,92.3853358 126.246268,92.8566644 125.966267,93.314 C125.686265,93.7713356 125.22427,94 124.580267,94 C123.936263,94 123.492935,93.6733366 123.250267,93.02 Z M116.194267,86.3 L120.730267,86.3 L118.462267,80.28 L116.194267,86.3 Z M134.301833,79.048 C132.93916,80.448007 132.257833,82.0906572 132.257833,83.976 C132.257833,85.8613428 132.95316,87.4713267 134.343833,88.806 C135.734507,90.1406733 137.344491,90.808 139.173833,90.808 C141.003176,90.808 142.561827,90.2946718 143.849833,89.268 C144.167168,89.0253321 144.549831,88.9319997 144.997833,88.988 C145.445836,89.0440003 145.809832,89.2399983 146.089833,89.576 C146.351168,89.9306684 146.453834,90.3273311 146.397833,90.766 C146.341833,91.2046689 146.145835,91.5546654 145.809833,91.816 C143.943157,93.2720073 141.787179,94 139.341833,94 C136.541819,94 134.133843,93.0153432 132.117833,91.046 C130.101823,89.0766568 129.0845,86.7013472 129.065833,83.92 C129.0845,81.1573195 130.101823,78.7913432 132.117833,76.822 C134.133843,74.8526568 136.541819,73.8586668 139.341833,73.84 C141.787179,73.84 143.943157,74.5679927 145.809833,76.024 C146.145835,76.3040014 146.341833,76.6586645 146.397833,77.088 C146.453834,77.5173355 146.346501,77.9093316 146.075833,78.264 C145.805165,78.6186684 145.445836,78.8239997 144.997833,78.88 C144.549831,78.9360003 144.167168,78.8333346 143.849833,78.572 C142.59916,77.5453282 141.054509,77.032 139.215833,77.032 C137.377157,77.032 135.739174,77.7039933 134.301833,79.048 Z M151.6814,75.94 C151.6814,75.5106645 151.830732,75.1466682 152.1294,74.848 C152.428068,74.5493318 152.792064,74.4 153.2214,74.4 C153.650735,74.4 154.019398,74.5493318 154.3274,74.848 C154.635402,75.1466682 154.7894,75.5106645 154.7894,75.94 L154.7894,92.46 C154.7894,92.8893355 154.635402,93.2533318 154.3274,93.552 C154.019398,93.8506682 153.650735,94 153.2214,94 C152.792064,94 152.428068,93.8506682 152.1294,93.552 C151.830732,93.2533318 151.6814,92.8893355 151.6814,92.46 L151.6814,75.94 Z M159.120967,83.92 C159.120967,81.1573195 160.049624,78.7866766 161.906967,76.808 C163.764309,74.8293234 166.02762,73.84 168.696967,73.84 C171.366313,73.84 173.629624,74.8433233 175.486967,76.85 C177.344309,78.8566767 178.272967,81.222653 178.272967,83.948 C178.272967,86.673347 177.330309,89.0253234 175.444967,91.004 C174.604962,91.937338 173.596973,92.6699973 172.420967,93.202 C171.244961,93.7340027 170.022306,94 168.752967,94 C166.046286,94 163.764309,93.0106766 161.906967,91.032 C160.049624,89.0533234 159.120967,86.6826805 159.120967,83.92 Z M164.188967,88.778 C165.43964,90.1313401 166.946958,90.808 168.710967,90.808 C170.474975,90.808 171.977627,90.1220069 173.218967,88.75 C174.460306,87.3779931 175.080967,85.7680092 175.080967,83.92 C175.080967,82.0719908 174.464973,80.4620069 173.232967,79.09 C172.00096,77.7179931 170.493642,77.032 168.710967,77.032 C166.928291,77.032 165.416306,77.7086599 164.174967,79.062 C162.933627,80.4153401 162.312967,82.0346572 162.312967,83.92 C162.312967,85.8053428 162.938294,87.4246599 164.188967,88.778 Z M172.224967,71.124 C171.683631,71.6280025 171.07697,71.88 170.404967,71.88 C169.732963,71.88 169.396967,71.684002 169.396967,71.292 C169.396967,71.1053324 169.471633,70.9000011 169.620967,70.676 L171.216967,68.212 C171.552968,67.670664 171.977631,67.4 172.490967,67.4 C173.004303,67.4 173.480298,67.5166655 173.918967,67.75 C174.357635,67.9833345 174.576967,68.235332 174.576967,68.506 C174.576967,68.776668 174.418302,69.0519986 174.100967,69.332 L172.224967,71.124 Z M186.832533,80.84 L186.832533,92.46 C186.832533,92.8706687 186.683201,93.2299985 186.384533,93.538 C186.085865,93.8460015 185.726535,94 185.306533,94 C184.886531,94 184.527201,93.8506682 184.228533,93.552 C183.929865,93.2533318 183.780533,92.8893355 183.780533,92.46 L183.780533,76.164 C183.7432,75.622664 183.925198,75.2120014 184.326533,74.932 C184.727869,74.6519986 185.133865,74.5446663 185.544533,74.61 C185.955202,74.6753337 186.281865,74.8759983 186.524533,75.212 L195.568533,87.728 L195.568533,76.192 C195.568533,75.7813313 195.717865,75.4266682 196.016533,75.128 C196.315201,74.8293318 196.669865,74.68 197.080533,74.68 C197.491202,74.68 197.850532,74.8293318 198.158533,75.128 C198.466535,75.4266682 198.620533,75.7813313 198.620533,76.192 L198.620533,92.46 C198.620533,92.8893355 198.466535,93.2533318 198.158533,93.552 C197.850532,93.8506682 197.481869,94 197.052533,94 C196.623198,94 196.249868,93.8133352 195.932533,93.44 C195.857866,93.365333 195.8112,93.3093335 195.792533,93.272 L186.832533,80.84 Z M47.124,125.908 C47.124,128.129344 46.3353412,130.033325 44.758,131.62 C43.1806588,133.206675 41.2720112,134 39.032,134 C36.7919888,134 34.8833412,133.211341 33.306,131.634 C31.7286588,130.056659 30.94,128.148011 30.94,125.908 L30.94,115.94 C30.94,115.510665 31.0893318,115.146668 31.388,114.848 C31.6866682,114.549332 32.0506645,114.4 32.48,114.4 C32.9093355,114.4 33.2779985,114.549332 33.586,114.848 C33.8940015,115.146668 34.048,115.510665 34.048,115.94 L34.048,125.908 C34.048,127.270673 34.5333285,128.441995 35.504,129.422 C36.4746715,130.402005 37.6506598,130.892 39.032,130.892 C40.4133402,130.892 41.5893285,130.406672 42.56,129.436 C43.5306715,128.465328 44.016,127.28934 44.016,125.908 L44.016,115.94 C44.016,115.510665 44.1699985,115.146668 44.478,114.848 C44.7860015,114.549332 45.1546645,114.4 45.584,114.4 C46.0133355,114.4 46.3773318,114.549332 46.676,114.848 C46.9746682,115.146668 47.124,115.510665 47.124,115.94 L47.124,125.908 Z M66.2115667,114.638 C66.6222354,114.572666 67.0002316,114.665999 67.3455667,114.918 C67.6909017,115.170001 67.896233,115.501331 67.9615667,115.912 C68.0269003,116.322669 67.9382345,116.705332 67.6955667,117.06 L62.3755667,124.284 L67.6955667,131.564 C68.0502351,132.068003 68.0829014,132.599997 67.7935667,133.16 C67.5042319,133.720003 67.0842361,134 66.5335667,134 C65.9828972,134 65.5395683,133.785335 65.2035667,133.356 L60.4995667,126.888 L55.7675667,133.356 C55.431565,133.785335 54.9882361,134 54.4375667,134 C53.8868972,134 53.4669014,133.720003 53.1775667,133.16 C52.8882319,132.599997 52.9208982,132.068003 53.2755667,131.564 L58.5955667,124.284 L53.2755667,117.06 C53.0328988,116.705332 52.944233,116.322669 53.0095667,115.912 C53.0749003,115.501331 53.2802316,115.170001 53.6255667,114.918 C53.9709017,114.665999 54.3535646,114.572666 54.7735667,114.638 C55.1935688,114.703334 55.5248988,114.913332 55.7675667,115.268 L60.4995667,121.708 L65.2035667,115.268 C65.4649013,114.913332 65.8008979,114.703334 66.2115667,114.638 Z" id="EDUCACIÓN-UX" fill="#4A4A4A"></path>
            <path d="M236.85588,187.890446 C229.27359,187.890446 229.27359,180 221.690201,180 C214.104613,180 214.104613,187.890446 206.519025,187.890446 C198.936735,187.890446 198.936735,180 191.352246,180 C183.764459,180 183.764459,187.890446 176.176673,187.890446 C168.587787,187.890446 168.587787,180 161,180" id="Page-1-Copy" stroke="#5D3799" stroke-width="1.11486375" stroke-linecap="round"></path>
        </g>
    </g>
</svg>