<?xml version="1.0" encoding="UTF-8"?>
<svg width="260px" height="216px" viewBox="0 0 260 216" version="1.1" xmlns="http://www.w3.org/2000/svg" xmlns:xlink="http://www.w3.org/1999/xlink" style="background: #FFFFFF;">
    <!-- Generator: Sketch 41.2 (35397) - http://www.bohemiancoding.com/sketch -->
    <title>episode-09</title>
    <desc>Created with Sketch.</desc>
    <defs>
        <rect id="path-1" x="0" y="68.7182175" width="182.946533" height="39.945383"></rect>
        <mask id="mask-2" maskContentUnits="userSpaceOnUse" maskUnits="objectBoundingBox" x="0" y="0" width="182.946533" height="39.945383" fill="white">
            <use xlink:href="#path-1"></use>
        </mask>
    </defs>
    <g id="Page-1" stroke="none" stroke-width="1" fill="none" fill-rule="evenodd">
        <g id="episode-09">
            <g id="Group-2" transform="translate(13.000000, 21.000000)">
                <path d="M39.2576403,38.6191679 C39.2576403,32.6886422 40.2872301,27.4171429 42.3464403,22.8045119 C44.4056506,18.1918808 47.164951,14.2382563 50.6244243,10.9435199 C54.0838976,7.6487834 58.0787057,5.13658452 62.6089683,3.40684787 C67.139231,1.67711122 71.8753436,0.81225587 76.8174483,0.81225587 C81.7595531,0.81225587 86.4956657,1.67711122 91.0259283,3.40684787 C95.556191,5.13658452 99.550999,7.6487834 103.010472,10.9435199 C106.469946,14.2382563 109.229246,18.1918808 111.288456,22.8045119 C113.347667,27.4171429 114.377256,32.6886422 114.377256,38.6191679 L114.377256,141.90864 C114.377256,147.839166 113.347667,153.110665 111.288456,157.723296 C109.229246,162.335927 106.469946,166.289551 103.010472,169.584288 C99.550999,172.879024 95.556191,175.391223 91.0259283,177.12096 C86.4956657,178.850697 81.7595531,179.715552 76.8174483,179.715552 C71.8753436,179.715552 67.139231,178.850697 62.6089683,177.12096 C58.0787057,175.391223 54.0838976,172.879024 50.6244243,169.584288 C47.164951,166.289551 44.4056506,162.335927 42.3464403,157.723296 C40.2872301,153.110665 39.2576403,147.839166 39.2576403,141.90864 L39.2576403,38.6191679 Z M64.4622483,141.90864 C64.4622483,145.53285 65.6153888,148.539252 67.9217043,150.927936 C70.2280199,153.31662 73.1932382,154.510944 76.8174483,154.510944 C80.4416585,154.510944 83.4068768,153.31662 85.7131923,150.927936 C88.0195079,148.539252 89.1726483,145.53285 89.1726483,141.90864 L89.1726483,38.6191679 C89.1726483,34.9949577 88.0195079,31.9885558 85.7131923,29.5998719 C83.4068768,27.2111879 80.4416585,26.0168639 76.8174483,26.0168639 C73.1932382,26.0168639 70.2280199,27.2111879 67.9217043,29.5998719 C65.6153888,31.9885558 64.4622483,34.9949577 64.4622483,38.6191679 L64.4622483,141.90864 Z M168.665711,104.348832 L168.171503,103.854624 C167.347819,104.513571 166.071128,105.048958 164.341391,105.4608 C162.611655,105.872642 160.346557,106.07856 157.546031,106.07856 C153.098137,106.07856 148.979778,105.007787 145.190831,102.866208 C141.401884,100.724629 138.436666,98.0065123 136.295087,94.7117759 C135.141929,93.0644076 134.23589,91.2935133 133.576943,89.3990399 C132.917996,87.5045664 132.382609,85.0747347 131.970767,82.1094719 C131.558925,79.144209 131.27064,75.3965025 131.105903,70.8662399 C130.941166,66.3359772 130.858799,60.6114585 130.858799,53.6925119 C130.858799,47.926723 130.941166,43.1906104 131.105903,39.4840319 C131.27064,35.7774533 131.558925,32.6475006 131.970767,30.0940799 C132.382609,27.5406591 132.959179,25.3579289 133.700495,23.5458239 C134.441811,21.7337188 135.389033,19.8392738 136.542191,17.8624319 C139.836928,12.4261167 144.243572,8.2253907 149.762255,5.26012787 C155.280939,2.29486504 161.499661,0.81225587 168.418607,0.81225587 C175.337554,0.81225587 181.515092,2.33604863 186.951407,5.38367987 C192.387722,8.43131111 196.753183,12.5908535 200.047919,17.8624319 C201.201077,19.8392738 202.189483,21.7337188 203.013167,23.5458239 C203.836851,25.3579289 204.454605,27.5406591 204.866447,30.0940799 C205.278289,32.6475006 205.566574,35.7774533 205.731311,39.4840319 C205.896048,43.1906104 205.978415,47.926723 205.978415,53.6925119 C205.978415,59.1288271 205.896048,63.6178382 205.731311,67.1596799 C205.566574,70.7015216 205.278289,73.7491071 204.866447,76.3025279 C204.454605,78.8559486 203.960402,81.1622296 203.383823,83.2214399 C202.807244,85.2806502 202.107123,87.4633803 201.283439,89.7696959 L168.171503,178.232928 L140.001647,178.232928 L168.665711,104.348832 Z M156.063407,71.2368959 C156.063407,75.0258428 157.298915,78.0734283 159.769967,80.3797439 C162.24102,82.6860594 165.123871,83.8391999 168.418607,83.8391999 C171.713344,83.8391999 174.596195,82.6860594 177.067247,80.3797439 C179.5383,78.0734283 180.773807,75.0258428 180.773807,71.2368959 L180.773807,38.6191679 C180.773807,34.8302209 179.5383,31.7826354 177.067247,29.4763199 C174.596195,27.1700043 171.713344,26.0168639 168.418607,26.0168639 C165.123871,26.0168639 162.24102,27.1700043 159.769967,29.4763199 C157.298915,31.7826354 156.063407,34.8302209 156.063407,38.6191679 L156.063407,71.2368959 Z" id="09" fill="#F8E71C"></path>
                <path d="M78.8558797,18.890446 C71.2735898,18.890446 71.2735898,11 63.6902006,11 C56.1046126,11 56.1046126,18.890446 48.5190246,18.890446 C40.9367347,18.890446 40.9367347,11 33.3522461,11 C25.7644594,11 25.7644594,18.890446 18.1766727,18.890446 C10.5877867,18.890446 10.5877867,11 3,11" id="Page-1-Copy" stroke="#5D3799" stroke-width="1.11486375" stroke-linecap="round"></path>
                <use id="Rectangle-2-Copy-2" stroke="#979797" mask="url(#mask-2)" stroke-width="2.2297275" xlink:href="#path-1"></use>
                <ellipse id="Oval-Copy-5" stroke="#979797" stroke-width="1.11486375" cx="194.474413" cy="172.011923" rx="4.46211057" ry="4.43837588"></ellipse>
            </g>
            <path d="M26.108,101.94 C26.108,101.510665 26.2573318,101.146668 26.556,100.848 C26.8546682,100.549332 27.2186645,100.4 27.648,100.4 C28.0773355,100.4 28.4459985,100.549332 28.754,100.848 C29.0620015,101.146668 29.216,101.510665 29.216,101.94 L29.216,118.46 C29.216,118.889335 29.0620015,119.253332 28.754,119.552 C28.4459985,119.850668 28.0773355,120 27.648,120 C27.2186645,120 26.8546682,119.850668 26.556,119.552 C26.2573318,119.253332 26.108,118.889335 26.108,118.46 L26.108,101.94 Z M37.4955667,106.84 L37.4955667,118.46 C37.4955667,118.870669 37.3462348,119.229998 37.0475667,119.538 C36.7488985,119.846002 36.3895688,120 35.9695667,120 C35.5495646,120 35.1902348,119.850668 34.8915667,119.552 C34.5928985,119.253332 34.4435667,118.889335 34.4435667,118.46 L34.4435667,102.164 C34.4062331,101.622664 34.5882313,101.212001 34.9895667,100.932 C35.390902,100.651999 35.7968979,100.544666 36.2075667,100.61 C36.6182354,100.675334 36.9448988,100.875998 37.1875667,101.212 L46.2315667,113.728 L46.2315667,102.192 C46.2315667,101.781331 46.3808985,101.426668 46.6795667,101.128 C46.9782348,100.829332 47.3328979,100.68 47.7435667,100.68 C48.1542354,100.68 48.5135651,100.829332 48.8215667,101.128 C49.1295682,101.426668 49.2835667,101.781331 49.2835667,102.192 L49.2835667,118.46 C49.2835667,118.889335 49.1295682,119.253332 48.8215667,119.552 C48.5135651,119.850668 48.1449021,120 47.7155667,120 C47.2862312,120 46.9129016,119.813335 46.5955667,119.44 C46.5208996,119.365333 46.4742334,119.309334 46.4555667,119.272 L37.4955667,106.84 Z M57.5071333,120 C57.0777978,120 56.7138015,119.850668 56.4151333,119.552 C56.1164652,119.253332 55.9671333,118.889335 55.9671333,118.46 L55.9671333,101.94 C55.9671333,101.510665 56.1164652,101.146668 56.4151333,100.848 C56.7138015,100.549332 57.0777978,100.4 57.5071333,100.4 L66.6631333,100.4 C67.073802,100.4 67.4331318,100.553998 67.7411333,100.862 C68.0491349,101.170002 68.2031333,101.533998 68.2031333,101.954 C68.2031333,102.374002 68.0491349,102.737998 67.7411333,103.046 C67.4331318,103.354002 67.073802,103.508 66.6631333,103.508 L59.0751333,103.508 L59.0751333,108.632 L65.5991333,108.632 C66.009802,108.632 66.3691318,108.785998 66.6771333,109.094 C66.9851349,109.402002 67.1391333,109.765998 67.1391333,110.186 C67.1391333,110.606002 66.9898015,110.969998 66.6911333,111.278 C66.3924652,111.586002 66.0284688,111.74 65.5991333,111.74 L59.0751333,111.74 L59.0751333,118.46 C59.0751333,118.889335 58.9211349,119.253332 58.6131333,119.552 C58.3051318,119.850668 57.9364688,120 57.5071333,120 Z M72.0027,109.92 C72.0027,107.15732 72.9313574,104.786677 74.7887,102.808 C76.6460426,100.829323 78.9093533,99.84 81.5787,99.84 C84.2480467,99.84 86.5113574,100.843323 88.3687,102.85 C90.2260426,104.856677 91.1547,107.222653 91.1547,109.948 C91.1547,112.673347 90.2120427,115.025323 88.3267,117.004 C87.4866958,117.937338 86.4787059,118.669997 85.3027,119.202 C84.1266941,119.734003 82.9040397,120 81.6347,120 C78.9280198,120 76.6460426,119.010677 74.7887,117.032 C72.9313574,115.053323 72.0027,112.68268 72.0027,109.92 Z M77.0707,114.778 C78.3213729,116.13134 79.8286912,116.808 81.5927,116.808 C83.3567088,116.808 84.8593604,116.122007 86.1007,114.75 C87.3420395,113.377993 87.9627,111.768009 87.9627,109.92 C87.9627,108.071991 87.3467061,106.462007 86.1147,105.09 C84.8826938,103.717993 83.3753756,103.032 81.5927,103.032 C79.8100244,103.032 78.2980395,103.70866 77.0567,105.062 C75.8153604,106.41534 75.1947,108.034657 75.1947,109.92 C75.1947,111.805343 75.8200271,113.42466 77.0707,114.778 Z M69.788,151.908 C69.788,154.129344 68.9993412,156.033325 67.422,157.62 C65.8446588,159.206675 63.9360112,160 61.696,160 C59.4559888,160 57.5473412,159.211341 55.97,157.634 C54.3926588,156.056659 53.604,154.148011 53.604,151.908 L53.604,141.94 C53.604,141.510665 53.7533318,141.146668 54.052,140.848 C54.3506682,140.549332 54.7146645,140.4 55.144,140.4 C55.5733355,140.4 55.9419985,140.549332 56.25,140.848 C56.5580015,141.146668 56.712,141.510665 56.712,141.94 L56.712,151.908 C56.712,153.270673 57.1973285,154.441995 58.168,155.422 C59.1386715,156.402005 60.3146598,156.892 61.696,156.892 C63.0773402,156.892 64.2533285,156.406672 65.224,155.436 C66.1946715,154.465328 66.68,153.28934 66.68,151.908 L66.68,141.94 C66.68,141.510665 66.8339985,141.146668 67.142,140.848 C67.4500015,140.549332 67.8186645,140.4 68.248,140.4 C68.6773355,140.4 69.0413318,140.549332 69.34,140.848 C69.6386682,141.146668 69.788,141.510665 69.788,141.94 L69.788,151.908 Z M65.252,137.124 C64.710664,137.628003 64.1040034,137.88 63.432,137.88 C62.7599966,137.88 62.424,137.684002 62.424,137.292 C62.424,137.105332 62.4986659,136.900001 62.648,136.676 L64.244,134.212 C64.5800017,133.670664 65.0046641,133.4 65.518,133.4 C66.0313359,133.4 66.5073311,133.516665 66.946,133.75 C67.3846689,133.983335 67.604,134.235332 67.604,134.506 C67.604,134.776668 67.4453349,135.051999 67.128,135.332 L65.252,137.124 Z M88.6795667,141.94 C88.6795667,142.369335 88.5255682,142.737998 88.2175667,143.046 C87.9095651,143.354002 87.5502354,143.508 87.1395667,143.508 L82.6875667,143.508 L82.6875667,158.46 C82.6875667,158.889335 82.5382348,159.253332 82.2395667,159.552 C81.9408985,159.850668 81.5769021,160 81.1475667,160 C80.7182312,160 80.3542348,159.850668 80.0555667,159.552 C79.7568985,159.253332 79.6075667,158.889335 79.6075667,158.46 L79.6075667,143.508 L75.1835667,143.508 C74.7542312,143.508 74.3902348,143.354002 74.0915667,143.046 C73.7928985,142.737998 73.6435667,142.369335 73.6435667,141.94 C73.6435667,141.510665 73.7928985,141.146668 74.0915667,140.848 C74.3902348,140.549332 74.7542312,140.4 75.1835667,140.4 L87.1395667,140.4 C87.5689021,140.4 87.9328985,140.549332 88.2315667,140.848 C88.5302348,141.146668 88.6795667,141.510665 88.6795667,141.94 Z M93.4591333,141.94 C93.4591333,141.510665 93.6084652,141.146668 93.9071333,140.848 C94.2058015,140.549332 94.5697978,140.4 94.9991333,140.4 C95.4284688,140.4 95.7971318,140.549332 96.1051333,140.848 C96.4131349,141.146668 96.5671333,141.510665 96.5671333,141.94 L96.5671333,158.46 C96.5671333,158.889335 96.4131349,159.253332 96.1051333,159.552 C95.7971318,159.850668 95.4284688,160 94.9991333,160 C94.5697978,160 94.2058015,159.850668 93.9071333,159.552 C93.6084652,159.253332 93.4591333,158.889335 93.4591333,158.46 L93.4591333,141.94 Z M103.3067,160 C102.877365,160 102.513368,159.850668 102.2147,159.552 C101.916032,159.253332 101.7667,158.889335 101.7667,158.46 L101.7667,141.94 C101.7667,141.510665 101.916032,141.146668 102.2147,140.848 C102.513368,140.549332 102.877365,140.4 103.3067,140.4 C103.736035,140.4 104.104698,140.549332 104.4127,140.848 C104.720702,141.146668 104.8747,141.510665 104.8747,141.94 L104.8747,156.892 L112.4627,156.892 C112.873369,156.892 113.232698,157.045998 113.5407,157.354 C113.848702,157.662002 114.0027,158.025998 114.0027,158.446 C114.0027,158.866002 113.848702,159.229998 113.5407,159.538 C113.232698,159.846002 112.873369,160 112.4627,160 L103.3067,160 Z" id="INFO-ÚTIL" fill="#4A4A4A"></path>
        </g>
    </g>
</svg>