<?xml version="1.0" encoding="UTF-8"?>
<svg width="260px" height="216px" viewBox="0 0 260 216" version="1.1" xmlns="http://www.w3.org/2000/svg" xmlns:xlink="http://www.w3.org/1999/xlink" style="background: #FFFFFF;">
    <!-- Generator: Sketch 41 (35326) - http://www.bohemiancoding.com/sketch -->
    <title>episode-07</title>
    <desc>Created with Sketch.</desc>
    <defs>
        <rect id="path-1" x="0" y="66.7182175" width="182.946533" height="39.945383"></rect>
        <mask id="mask-2" maskContentUnits="userSpaceOnUse" maskUnits="objectBoundingBox" x="0" y="0" width="182.946533" height="39.945383" fill="white">
            <use xlink:href="#path-1"></use>
        </mask>
    </defs>
    <g id="Page-1" stroke="none" stroke-width="1" fill="none" fill-rule="evenodd">
        <g id="episode-07">
            <g id="Group-2" transform="translate(13.000000, 23.000000)">
                <text id="07" font-family="DINCondensed-Bold, DIN Condensed" font-size="247.104" font-weight="bold" letter-spacing="-0.321529189" fill="#50E3C2">
                    <tspan x="30.8561043" y="176.232928">07</tspan>
                </text>
                <path d="M78.8558797,16.890446 C71.2735898,16.890446 71.2735898,9 63.6902006,9 C56.1046126,9 56.1046126,16.890446 48.5190246,16.890446 C40.9367347,16.890446 40.9367347,9 33.3522461,9 C25.7644594,9 25.7644594,16.890446 18.1766727,16.890446 C10.5877867,16.890446 10.5877867,9 3,9" id="Page-1-Copy" stroke="#5D3799" stroke-width="1.11486375" stroke-linecap="round"></path>
                <use id="Rectangle-2-Copy-2" stroke="#979797" mask="url(#mask-2)" stroke-width="2.2297275" xlink:href="#path-1"></use>
                <ellipse id="Oval-Copy-5" stroke="#979797" stroke-width="1.11486375" cx="194.474413" cy="170.011923" rx="4.46211057" ry="4.43837588"></ellipse>
            </g>
            <path d="M28.452,119 C28.0226645,119 27.6586682,118.850668 27.36,118.552 C27.0613318,118.253332 26.912,117.889335 26.912,117.46 L26.912,100.94 C26.912,100.510665 27.0613318,100.146668 27.36,99.848 C27.6586682,99.5493318 28.0226645,99.4 28.452,99.4 C28.8813355,99.4 29.2499985,99.5493318 29.558,99.848 C29.8660015,100.146668 30.02,100.510665 30.02,100.94 L30.02,107.66 L37.272,107.66 L37.272,100.94 C37.272,100.510665 37.4213318,100.146668 37.72,99.848 C38.0186682,99.5493318 38.3826645,99.4 38.812,99.4 C39.2413355,99.4 39.6099985,99.5493318 39.918,99.848 C40.2260015,100.146668 40.38,100.510665 40.38,100.94 L40.38,117.46 C40.38,117.889335 40.2260015,118.253332 39.918,118.552 C39.6099985,118.850668 39.2413355,119 38.812,119 C38.3826645,119 38.0186682,118.850668 37.72,118.552 C37.4213318,118.253332 37.272,117.889335 37.272,117.46 L37.272,110.74 L30.02,110.74 L30.02,117.46 C30.02,117.889335 29.8660015,118.253332 29.558,118.552 C29.2499985,118.850668 28.8813355,119 28.452,119 Z M62.9395667,110.908 C62.9395667,113.129344 62.1509079,115.033325 60.5735667,116.62 C58.9962254,118.206675 57.0875779,119 54.8475667,119 C52.6075555,119 50.6989079,118.211341 49.1215667,116.634 C47.5442254,115.056659 46.7555667,113.148011 46.7555667,110.908 L46.7555667,100.94 C46.7555667,100.510665 46.9048985,100.146668 47.2035667,99.848 C47.5022348,99.5493318 47.8662312,99.4 48.2955667,99.4 C48.7249021,99.4 49.0935651,99.5493318 49.4015667,99.848 C49.7095682,100.146668 49.8635667,100.510665 49.8635667,100.94 L49.8635667,110.908 C49.8635667,112.270673 50.3488951,113.441995 51.3195667,114.422 C52.2902382,115.402005 53.4662264,115.892 54.8475667,115.892 C56.2289069,115.892 57.4048951,115.406672 58.3755667,114.436 C59.3462382,113.465328 59.8315667,112.28934 59.8315667,110.908 L59.8315667,100.94 C59.8315667,100.510665 59.9855651,100.146668 60.2935667,99.848 C60.6015682,99.5493318 60.9702312,99.4 61.3995667,99.4 C61.8289021,99.4 62.1928985,99.5493318 62.4915667,99.848 C62.7902348,100.146668 62.9395667,100.510665 62.9395667,100.94 L62.9395667,110.908 Z M77.9391333,111.916 L77.8831333,111.916 C77.3417973,111.916 76.9124682,111.701335 76.5951333,111.272 L72.5911333,105.672 L72.5911333,117.46 C72.5911333,117.889335 72.4371349,118.253332 72.1291333,118.552 C71.8211318,118.850668 71.4524688,119 71.0231333,119 C70.5937978,119 70.2298015,118.850668 69.9311333,118.552 C69.6324652,118.253332 69.4831333,117.889335 69.4831333,117.46 L69.4831333,100.94 C69.4831333,100.510665 69.6324652,100.146668 69.9311333,99.848 C70.2298015,99.5493318 70.5937978,99.4 71.0231333,99.4 L71.1071333,99.4 C71.6484694,99.4 72.0591319,99.6146645 72.3391333,100.044 L77.9111333,107.772 L83.4831333,100.044 C83.8004682,99.6146645 84.220464,99.4 84.7431333,99.4 L84.7711333,99.4 C85.2004688,99.4186668 85.5691318,99.5773318 85.8771333,99.876 C86.1851349,100.174668 86.3391333,100.529331 86.3391333,100.94 L86.3391333,117.46 C86.3391333,117.870669 86.1851349,118.229998 85.8771333,118.538 C85.5691318,118.846002 85.2004688,119 84.7711333,119 C84.3417978,119 83.9778015,118.850668 83.6791333,118.552 C83.3804652,118.253332 83.2311333,117.889335 83.2311333,117.46 L83.2311333,105.672 L79.1991333,111.272 C78.8817984,111.701335 78.4618026,111.916 77.9391333,111.916 Z M104.4467,118.02 L103.0747,114.38 L96.2707,114.38 L94.8987,118.02 C94.6373653,118.673337 94.1847032,119 93.5407,119 C92.8966968,119 92.4347014,118.771336 92.1547,118.314 C91.8746986,117.856664 91.8186991,117.385336 91.9867,116.9 L98.1747,100.408 C98.3053673,100.109332 98.506032,99.8666676 98.7767,99.68 C99.047368,99.4933324 99.3413651,99.4093332 99.6587,99.428 C100.368037,99.3906665 100.862699,99.7173299 101.1427,100.408 L107.3307,116.9 C107.498701,117.385336 107.442701,117.856664 107.1627,118.314 C106.882699,118.771336 106.420703,119 105.7767,119 C105.132697,119 104.689368,118.673337 104.4467,118.02 Z M97.3907,111.3 L101.9267,111.3 L99.6587,105.28 L97.3907,111.3 Z M114.210267,105.84 L114.210267,117.46 C114.210267,117.870669 114.060935,118.229998 113.762267,118.538 C113.463598,118.846002 113.104269,119 112.684267,119 C112.264265,119 111.904935,118.850668 111.606267,118.552 C111.307598,118.253332 111.158267,117.889335 111.158267,117.46 L111.158267,101.164 C111.120933,100.622664 111.302931,100.212001 111.704267,99.932 C112.105602,99.6519986 112.511598,99.5446663 112.922267,99.61 C113.332935,99.6753337 113.659599,99.8759983 113.902267,100.212 L122.946267,112.728 L122.946267,101.192 C122.946267,100.781331 123.095598,100.426668 123.394267,100.128 C123.692935,99.8293318 124.047598,99.68 124.458267,99.68 C124.868935,99.68 125.228265,99.8293318 125.536267,100.128 C125.844268,100.426668 125.998267,100.781331 125.998267,101.192 L125.998267,117.46 C125.998267,117.889335 125.844268,118.253332 125.536267,118.552 C125.228265,118.850668 124.859602,119 124.430267,119 C124.000931,119 123.627602,118.813335 123.310267,118.44 C123.2356,118.365333 123.188933,118.309334 123.170267,118.272 L114.210267,105.84 Z M28.452,159 C28.0226645,159 27.6586682,158.850668 27.36,158.552 C27.0613318,158.253332 26.912,157.889335 26.912,157.46 L26.912,140.94 C26.912,140.510665 27.0613318,140.146668 27.36,139.848 C27.6586682,139.549332 28.0226645,139.4 28.452,139.4 L37.608,139.4 C38.0186687,139.4 38.3779985,139.549332 38.686,139.848 C38.9940015,140.146668 39.148,140.510665 39.148,140.94 C39.148,141.369335 38.9940015,141.737998 38.686,142.046 C38.3779985,142.354002 38.0186687,142.508 37.608,142.508 L30.02,142.508 L30.02,147.632 L36.544,147.632 C36.9546687,147.632 37.3139985,147.785998 37.622,148.094 C37.9300015,148.402002 38.084,148.765998 38.084,149.186 C38.084,149.606002 37.9346682,149.969998 37.636,150.278 C37.3373318,150.586002 36.9733355,150.74 36.544,150.74 L30.02,150.74 L30.02,155.892 L37.608,155.892 C38.0186687,155.892 38.3779985,156.045998 38.686,156.354 C38.9940015,156.662002 39.148,157.025998 39.148,157.446 C39.148,157.866002 38.9940015,158.229998 38.686,158.538 C38.3779985,158.846002 38.0186687,159 37.608,159 L28.536,159 L28.48,158.972 L28.452,159 Z M56.0235667,139.638 C56.4342354,139.572666 56.8122316,139.665999 57.1575667,139.918 C57.5029017,140.170001 57.708233,140.501331 57.7735667,140.912 C57.8389003,141.322669 57.7502345,141.705332 57.5075667,142.06 L52.1875667,149.284 L57.5075667,156.564 C57.8622351,157.068003 57.8949014,157.599997 57.6055667,158.16 C57.3162319,158.720003 56.8962361,159 56.3455667,159 C55.7948972,159 55.3515683,158.785335 55.0155667,158.356 L50.3115667,151.888 L45.5795667,158.356 C45.243565,158.785335 44.8002361,159 44.2495667,159 C43.6988972,159 43.2789014,158.720003 42.9895667,158.16 C42.7002319,157.599997 42.7328982,157.068003 43.0875667,156.564 L48.4075667,149.284 L43.0875667,142.06 C42.8448988,141.705332 42.756233,141.322669 42.8215667,140.912 C42.8869003,140.501331 43.0922316,140.170001 43.4375667,139.918 C43.7829017,139.665999 44.1655646,139.572666 44.5855667,139.638 C45.0055688,139.703334 45.3368988,139.913332 45.5795667,140.268 L50.3115667,146.708 L55.0155667,140.268 C55.2769013,139.913332 55.6128979,139.703334 56.0235667,139.638 Z M74.4671333,141.164 C75.6431392,142.340006 76.2311333,143.753992 76.2311333,145.406 C76.2311333,147.058008 75.6431392,148.467328 74.4671333,149.634 C73.2911274,150.800673 71.872475,151.384 70.2111333,151.384 L66.7671333,151.384 L66.7671333,157.46 C66.7671333,157.889335 66.6131349,158.253332 66.3051333,158.552 C65.9971318,158.850668 65.6284688,159 65.1991333,159 C64.7697978,159 64.4058015,158.850668 64.1071333,158.552 C63.8084652,158.253332 63.6591333,157.889335 63.6591333,157.46 L63.6591333,140.94 C63.6591333,140.510665 63.8084652,140.146668 64.1071333,139.848 C64.4058015,139.549332 64.7697978,139.4 65.1991333,139.4 L70.2111333,139.4 C71.872475,139.4 73.2911274,139.987994 74.4671333,141.164 Z M66.7671333,142.508 L66.7671333,148.276 L70.2111333,148.276 C71.013804,148.276 71.6951305,147.996003 72.2551333,147.436 C72.8151361,146.875997 73.1044666,146.204004 73.1231333,145.42 C73.1044666,144.598663 72.8151361,143.908003 72.2551333,143.348 C71.6951305,142.787997 71.013804,142.508 70.2111333,142.508 L66.7671333,142.508 Z M81.4867,159 C81.0573645,159 80.6933681,158.850668 80.3947,158.552 C80.0960318,158.253332 79.9467,157.889335 79.9467,157.46 L79.9467,140.94 C79.9467,140.510665 80.0960318,140.146668 80.3947,139.848 C80.6933681,139.549332 81.0573645,139.4 81.4867,139.4 L90.6427,139.4 C91.0533687,139.4 91.4126984,139.549332 91.7207,139.848 C92.0287015,140.146668 92.1827,140.510665 92.1827,140.94 C92.1827,141.369335 92.0287015,141.737998 91.7207,142.046 C91.4126984,142.354002 91.0533687,142.508 90.6427,142.508 L83.0547,142.508 L83.0547,147.632 L89.5787,147.632 C89.9893687,147.632 90.3486984,147.785998 90.6567,148.094 C90.9647015,148.402002 91.1187,148.765998 91.1187,149.186 C91.1187,149.606002 90.9693681,149.969998 90.6707,150.278 C90.3720318,150.586002 90.0080355,150.74 89.5787,150.74 L83.0547,150.74 L83.0547,155.892 L90.6427,155.892 C91.0533687,155.892 91.4126984,156.045998 91.7207,156.354 C92.0287015,156.662002 92.1827,157.025998 92.1827,157.446 C92.1827,157.866002 92.0287015,158.229998 91.7207,158.538 C91.4126984,158.846002 91.0533687,159 90.6427,159 L81.5707,159 L81.5147,158.972 L81.4867,159 Z M106.482267,150.012 C107.751606,150.982672 108.386267,152.335991 108.386267,154.072 C108.3676,154.688003 108.404933,155.238664 108.498267,155.724 C108.983602,155.873334 109.310266,156.195331 109.478267,156.69 C109.646267,157.184669 109.571602,157.646665 109.254267,158.076 C108.936932,158.505335 108.479603,158.72 107.882267,158.72 L107.854267,158.72 C107.014262,158.72 106.351602,158.290671 105.866267,157.432 C105.474265,156.610663 105.278267,155.490674 105.278267,154.072 C105.240933,153.213329 104.848937,152.541336 104.102267,152.056 C103.616931,151.738665 103.094269,151.514667 102.534267,151.384 L99.2302666,151.384 L99.2302666,157.46 C99.2302666,157.889335 99.0762682,158.253332 98.7682666,158.552 C98.4602651,158.850668 98.0916021,159 97.6622666,159 C97.2329312,159 96.8689348,158.850668 96.5702666,158.552 C96.2715985,158.253332 96.1222666,157.889335 96.1222666,157.46 L96.1222666,140.94 C96.1222666,140.510665 96.2715985,140.146668 96.5702666,139.848 C96.8689348,139.549332 97.2329312,139.4 97.6622666,139.4 L102.674267,139.4 C104.335608,139.4 105.749594,139.987994 106.916267,141.164 C108.082939,142.340006 108.666267,143.805325 108.666267,145.56 C108.666267,147.314675 107.938274,148.798661 106.482267,150.012 Z M102.674267,148.276 C103.476937,148.276 104.158264,147.996003 104.718267,147.436 C105.278269,146.875997 105.558267,146.199337 105.558267,145.406 C105.558267,144.612663 105.278269,143.931336 104.718267,143.362 C104.158264,142.792664 103.476937,142.508 102.674267,142.508 L99.2302666,142.508 L99.2302666,148.276 L102.674267,148.276 Z M114.173833,140.94 C114.173833,140.510665 114.323165,140.146668 114.621833,139.848 C114.920501,139.549332 115.284498,139.4 115.713833,139.4 C116.143169,139.4 116.511832,139.549332 116.819833,139.848 C117.127835,140.146668 117.281833,140.510665 117.281833,140.94 L117.281833,157.46 C117.281833,157.889335 117.127835,158.253332 116.819833,158.552 C116.511832,158.850668 116.143169,159 115.713833,159 C115.284498,159 114.920501,158.850668 114.621833,158.552 C114.323165,158.253332 114.173833,157.889335 114.173833,157.46 L114.173833,140.94 Z M124.0214,159 C123.592064,159 123.228068,158.850668 122.9294,158.552 C122.630732,158.253332 122.4814,157.889335 122.4814,157.46 L122.4814,140.94 C122.4814,140.510665 122.630732,140.146668 122.9294,139.848 C123.228068,139.549332 123.592064,139.4 124.0214,139.4 L133.1774,139.4 C133.588069,139.4 133.947398,139.549332 134.2554,139.848 C134.563402,140.146668 134.7174,140.510665 134.7174,140.94 C134.7174,141.369335 134.563402,141.737998 134.2554,142.046 C133.947398,142.354002 133.588069,142.508 133.1774,142.508 L125.5894,142.508 L125.5894,147.632 L132.1134,147.632 C132.524069,147.632 132.883398,147.785998 133.1914,148.094 C133.499402,148.402002 133.6534,148.765998 133.6534,149.186 C133.6534,149.606002 133.504068,149.969998 133.2054,150.278 C132.906732,150.586002 132.542735,150.74 132.1134,150.74 L125.5894,150.74 L125.5894,155.892 L133.1774,155.892 C133.588069,155.892 133.947398,156.045998 134.2554,156.354 C134.563402,156.662002 134.7174,157.025998 134.7174,157.446 C134.7174,157.866002 134.563402,158.229998 134.2554,158.538 C133.947398,158.846002 133.588069,159 133.1774,159 L124.1054,159 L124.0494,158.972 L124.0214,159 Z M142.128967,145.84 L142.128967,157.46 C142.128967,157.870669 141.979635,158.229998 141.680967,158.538 C141.382298,158.846002 141.022969,159 140.602967,159 C140.182965,159 139.823635,158.850668 139.524967,158.552 C139.226298,158.253332 139.076967,157.889335 139.076967,157.46 L139.076967,141.164 C139.039633,140.622664 139.221631,140.212001 139.622967,139.932 C140.024302,139.651999 140.430298,139.544666 140.840967,139.61 C141.251635,139.675334 141.578299,139.875998 141.820967,140.212 L150.864967,152.728 L150.864967,141.192 C150.864967,140.781331 151.014298,140.426668 151.312967,140.128 C151.611635,139.829332 151.966298,139.68 152.376967,139.68 C152.787635,139.68 153.146965,139.829332 153.454967,140.128 C153.762968,140.426668 153.916967,140.781331 153.916967,141.192 L153.916967,157.46 C153.916967,157.889335 153.762968,158.253332 153.454967,158.552 C153.146965,158.850668 152.778302,159 152.348967,159 C151.919631,159 151.546302,158.813335 151.228967,158.44 C151.1543,158.365333 151.107633,158.309334 151.088967,158.272 L142.128967,145.84 Z M164.968533,144.048 C163.60586,145.448007 162.924533,147.090657 162.924533,148.976 C162.924533,150.861343 163.61986,152.471327 165.010533,153.806 C166.401207,155.140673 168.011191,155.808 169.840533,155.808 C171.669876,155.808 173.228527,155.294672 174.516533,154.268 C174.833868,154.025332 175.216531,153.932 175.664533,153.988 C176.112536,154.044 176.476532,154.239998 176.756533,154.576 C177.017868,154.930668 177.120534,155.327331 177.064533,155.766 C177.008533,156.204669 176.812535,156.554665 176.476533,156.816 C174.609857,158.272007 172.453879,159 170.008533,159 C167.208519,159 164.800543,158.015343 162.784533,156.046 C160.768523,154.076657 159.7512,151.701347 159.732533,148.92 C159.7512,146.15732 160.768523,143.791343 162.784533,141.822 C164.800543,139.852657 167.208519,138.858667 170.008533,138.84 C172.453879,138.84 174.609857,139.567993 176.476533,141.024 C176.812535,141.304001 177.008533,141.658665 177.064533,142.088 C177.120534,142.517335 177.013201,142.909332 176.742533,143.264 C176.471865,143.618668 176.112536,143.824 175.664533,143.88 C175.216531,143.936 174.833868,143.833335 174.516533,143.572 C173.26586,142.545328 171.721209,142.032 169.882533,142.032 C168.043857,142.032 166.405874,142.703993 164.968533,144.048 Z M183.6921,159 C183.262764,159 182.898768,158.850668 182.6001,158.552 C182.301432,158.253332 182.1521,157.889335 182.1521,157.46 L182.1521,140.94 C182.1521,140.510665 182.301432,140.146668 182.6001,139.848 C182.898768,139.549332 183.262764,139.4 183.6921,139.4 L192.8481,139.4 C193.258769,139.4 193.618098,139.549332 193.9261,139.848 C194.234101,140.146668 194.3881,140.510665 194.3881,140.94 C194.3881,141.369335 194.234101,141.737998 193.9261,142.046 C193.618098,142.354002 193.258769,142.508 192.8481,142.508 L185.2601,142.508 L185.2601,147.632 L191.7841,147.632 C192.194769,147.632 192.554098,147.785998 192.8621,148.094 C193.170101,148.402002 193.3241,148.765998 193.3241,149.186 C193.3241,149.606002 193.174768,149.969998 192.8761,150.278 C192.577432,150.586002 192.213435,150.74 191.7841,150.74 L185.2601,150.74 L185.2601,155.892 L192.8481,155.892 C193.258769,155.892 193.618098,156.045998 193.9261,156.354 C194.234101,156.662002 194.3881,157.025998 194.3881,157.446 C194.3881,157.866002 194.234101,158.229998 193.9261,158.538 C193.618098,158.846002 193.258769,159 192.8481,159 L183.7761,159 L183.7201,158.972 L183.6921,159 Z" id="HUMAN-EXPERIENCE" fill="#4A4A4A"></path>
        </g>
    </g>
</svg>