<?xml version="1.0" encoding="UTF-8"?>
<svg width="260px" height="216px" viewBox="0 0 260 216" version="1.1" xmlns="http://www.w3.org/2000/svg" xmlns:xlink="http://www.w3.org/1999/xlink" style="background: #FFFFFF;">
    <!-- Generator: Sketch 40.3 (33839) - http://www.bohemiancoding.com/sketch -->
    <title>episode-05</title>
    <desc>Created with Sketch.</desc>
    <defs>
        <rect id="path-1" x="0" y="70.4801146" width="193.25338" height="42.2048986"></rect>
        <mask id="mask-2" maskContentUnits="userSpaceOnUse" maskUnits="objectBoundingBox" x="0" y="0" width="193.25338" height="42.2048986" fill="white">
            <use xlink:href="#path-1"></use>
        </mask>
        <rect id="path-3" x="193.25338" y="14.387329" width="25.9242339" height="21.1024493"></rect>
        <mask id="mask-4" maskContentUnits="userSpaceOnUse" maskUnits="objectBoundingBox" x="0" y="0" width="25.9242339" height="21.1024493" fill="white">
            <use xlink:href="#path-3"></use>
        </mask>
    </defs>
    <g id="Page-1" stroke="none" stroke-width="1" fill="none" fill-rule="evenodd">
        <g id="episode-05">
            <g id="Group-2" transform="translate(20.000000, 16.000000)">
                <text id="05" font-family="DINCondensed-Bold, DIN Condensed" font-size="261.025352" font-weight="bold" letter-spacing="-0.339643514" fill="#50E3C2">
                    <tspan x="32.5944764" y="186.234076">05</tspan>
                </text>
                <path d="M82.4861989,185.769982 C74.4767378,185.769982 74.4767378,177.433212 66.4661153,177.433212 C58.4531703,177.433212 58.4531703,185.769982 50.4402253,185.769982 C42.4307641,185.769982 42.4307641,177.433212 34.4189804,177.433212 C26.4037127,177.433212 26.4037127,185.769982 18.3884451,185.769982 C10.3720162,185.769982 10.3720162,177.433212 2.35674854,177.433212" id="Page-1-Copy" stroke="#5D3799" stroke-width="1.17767298" stroke-linecap="round"></path>
                <path d="M25.1069117,84.3990837 C26.2489033,85.5410753 26.8198906,86.9141637 26.8198906,88.51839 C26.8198906,90.1226163 26.2489033,91.4911731 25.1069117,92.6241013 C23.9649201,93.7570295 22.5873001,94.3234851 20.9740103,94.3234851 L17.629623,94.3234851 L17.629623,100.223746 C17.629623,100.640663 17.4800787,100.994132 17.1809857,101.284161 C16.8818926,101.574191 16.5238927,101.719203 16.1069751,101.719203 C15.6900575,101.719203 15.3365892,101.574191 15.0465596,101.284161 C14.75653,100.994132 14.6115174,100.640663 14.6115174,100.223746 L14.6115174,84.1815625 C14.6115174,83.764645 14.75653,83.4111767 15.0465596,83.1211471 C15.3365892,82.8311174 15.6900575,82.6861048 16.1069751,82.6861048 L20.9740103,82.6861048 C22.5873001,82.6861048 23.9649201,83.257092 25.1069117,84.3990837 L25.1069117,84.3990837 Z M17.629623,85.7042104 L17.629623,91.3053794 L20.9740103,91.3053794 C21.7534649,91.3053794 22.4150851,91.0334808 22.9588906,90.4896752 C23.5026961,89.9458697 23.7836581,89.2933128 23.801785,88.5319851 C23.7836581,87.7344036 23.5026961,87.0637202 22.9588906,86.5199147 C22.4150851,85.9761091 21.7534649,85.7042104 20.9740103,85.7042104 L17.629623,85.7042104 Z M40.10768,92.9911682 C41.3403059,93.9337644 41.9566096,95.2479414 41.9566096,96.9337386 C41.9384828,97.5319247 41.9747359,98.0666588 42.0653702,98.5379569 C42.5366683,98.6829717 42.8538835,98.9956552 43.0170251,99.4760168 C43.1801668,99.9563783 43.1076605,100.405011 42.799504,100.821929 C42.4913475,101.238846 42.0472463,101.447302 41.4671871,101.447302 L41.4399969,101.447302 C40.6242886,101.447302 39.9807951,101.030391 39.5094969,100.196556 C39.1288331,99.3989741 38.938504,98.3113793 38.938504,96.9337386 C38.9022503,96.0999034 38.5215921,95.4473466 37.7965181,94.9760485 C37.3252199,94.667892 36.8176757,94.450373 36.2738702,94.3234851 L33.0654336,94.3234851 L33.0654336,100.223746 C33.0654336,100.640663 32.9158893,100.994132 32.6167962,101.284161 C32.3177032,101.574191 31.9597033,101.719203 31.5427857,101.719203 C31.1258681,101.719203 30.7723998,101.574191 30.4823702,101.284161 C30.1923406,100.994132 30.0473279,100.640663 30.0473279,100.223746 L30.0473279,84.1815625 C30.0473279,83.764645 30.1923406,83.4111767 30.4823702,83.1211471 C30.7723998,82.8311174 31.1258681,82.6861048 31.5427857,82.6861048 L36.4098209,82.6861048 C38.0231106,82.6861048 39.396199,83.257092 40.5291272,84.3990837 C41.6620554,85.5410753 42.228511,86.9640118 42.228511,88.6679358 C42.228511,90.3718598 41.5215744,91.8129229 40.10768,92.9911682 L40.10768,92.9911682 Z M36.4098209,91.3053794 C37.1892755,91.3053794 37.8508956,91.0334808 38.3947012,90.4896752 C38.9385067,89.9458697 39.2104054,89.2887812 39.2104054,88.51839 C39.2104054,87.7479988 38.9385067,87.0863787 38.3947012,86.5335097 C37.8508956,85.9806408 37.1892755,85.7042104 36.4098209,85.7042104 L33.0654336,85.7042104 L33.0654336,91.3053794 L36.4098209,91.3053794 Z M46.543554,91.9307527 C46.543554,89.2479787 47.4453513,86.9459031 49.248973,85.0244569 C51.0525947,83.1030107 53.2504424,82.142302 55.8425822,82.142302 C58.4347219,82.142302 60.6325696,83.1166056 62.4361913,85.0652421 C64.239813,87.0138786 65.1416103,89.3114226 65.1416103,91.9579428 C65.1416103,94.6044631 64.2262181,96.8884121 62.3954061,98.8098583 C61.5796978,99.7162009 60.6008625,100.427669 59.4588709,100.944284 C58.3168793,101.4609 57.1295883,101.719203 55.8969624,101.719203 C53.268569,101.719203 51.0525947,100.758495 49.248973,98.8370485 C47.4453513,96.9156022 46.543554,94.6135267 46.543554,91.9307527 L46.543554,91.9307527 Z M51.4649695,96.6482421 C52.6794685,97.9624388 54.1431898,98.6195273 55.8561772,98.6195273 C57.5691647,98.6195273 59.0283543,97.9533755 60.2337899,96.621052 C61.4392255,95.2887284 62.0419343,93.725311 62.0419343,91.9307527 C62.0419343,90.1361944 61.4437572,88.572777 60.247385,87.2404534 C59.0510128,85.9081298 57.5872915,85.241978 55.8561772,85.241978 C54.1250629,85.241978 52.65681,85.8990665 51.4513744,87.2132633 C50.2459388,88.52746 49.6432301,90.0999407 49.6432301,91.9307527 C49.6432301,93.7615647 50.2504705,95.3340454 51.4649695,96.6482421 L51.4649695,96.6482421 Z M70.4626885,100.223746 L70.4626885,84.1815625 C70.4626885,83.764645 70.6077012,83.4111767 70.8977308,83.1211471 C71.1877604,82.8311174 71.5412287,82.6861048 71.9581463,82.6861048 L75.1665829,82.6861048 C77.7949763,82.6861048 80.0336089,83.615092 81.8825477,85.4730942 C83.7314865,87.3310965 84.655942,89.5742607 84.655942,92.2026541 C84.655942,94.8310475 83.7314865,97.0742117 81.8825477,98.932214 C80.0336089,100.790216 77.7949763,101.719203 75.1665829,101.719203 L71.9581463,101.719203 C71.5412287,101.719203 71.1877604,101.574191 70.8977308,101.284161 C70.6077012,100.994132 70.4626885,100.640663 70.4626885,100.223746 L70.4626885,100.223746 Z M73.4807942,85.7042104 L73.4807942,98.7010978 L75.1665829,98.7010978 C76.9611412,98.6829709 78.4883055,98.044009 79.7481216,96.7841928 C81.0079378,95.5243767 81.6378364,93.9972124 81.6378364,92.2026541 C81.6378364,90.4080958 81.0079378,88.8763999 79.7481216,87.6075203 C78.4883055,86.3386407 76.9611412,85.7042104 75.1665829,85.7042104 L73.4807942,85.7042104 Z M105.720112,93.8612527 C105.720112,96.018348 104.954264,97.8672591 103.422545,99.4080414 C101.890826,100.948824 100.037383,101.719203 97.8621611,101.719203 C95.6869389,101.719203 93.8334962,100.953355 92.3017773,99.4216365 C90.7700583,97.8899176 90.0042104,96.0364748 90.0042104,93.8612527 L90.0042104,84.1815625 C90.0042104,83.764645 90.149223,83.4111767 90.4392526,83.1211471 C90.7292822,82.8311174 91.0827505,82.6861048 91.4996681,82.6861048 C91.9165857,82.6861048 92.2745856,82.8311174 92.5736787,83.1211471 C92.8727717,83.4111767 93.022316,83.764645 93.022316,84.1815625 L93.022316,93.8612527 C93.022316,95.1845128 93.4936071,96.3219557 94.4362033,97.2736154 C95.3787996,98.2252751 96.5207741,98.7010978 97.8621611,98.7010978 C99.2035481,98.7010978 100.345523,98.2298067 101.288119,97.2872104 C102.230715,96.3446142 102.702006,95.2026397 102.702006,93.8612527 L102.702006,84.1815625 C102.702006,83.764645 102.85155,83.4111767 103.150643,83.1211471 C103.449737,82.8311174 103.807736,82.6861048 104.224654,82.6861048 C104.641572,82.6861048 104.99504,82.8311174 105.28507,83.1211471 C105.575099,83.4111767 105.720112,83.764645 105.720112,84.1815625 L105.720112,93.8612527 Z M116.316077,87.1996682 C114.992817,88.559182 114.331197,90.154321 114.331197,91.985133 C114.331197,93.8159449 115.006412,95.3793624 116.356862,96.6754323 C117.707313,97.9715021 119.27073,98.6195273 121.047162,98.6195273 C122.823593,98.6195273 124.337163,98.1210464 125.587915,97.1240696 C125.896072,96.8884205 126.267667,96.7977876 126.702711,96.8521682 C127.137756,96.9065487 127.491224,97.0968778 127.763127,97.4231611 C128.016902,97.7675713 128.116599,98.1527611 128.062218,98.5787421 C128.007838,99.0047231 127.817508,99.3445965 127.491225,99.5983724 C125.67854,101.012267 123.58492,101.719203 121.210303,101.719203 C118.491275,101.719203 116.152946,100.763026 114.195246,98.8506435 C112.237546,96.9382607 111.249648,94.6316535 111.231521,91.9307527 C111.249648,89.2479787 112.237546,86.9504348 114.195246,85.038052 C116.152946,83.1256692 118.491275,82.1604288 121.210303,82.142302 C123.58492,82.142302 125.67854,82.8492386 127.491225,84.263133 C127.817508,84.5350357 128.007838,84.8794407 128.062218,85.2963583 C128.116599,85.7132759 128.012371,86.0939341 127.749532,86.4383442 C127.486692,86.7827544 127.137756,86.9821468 126.702711,87.0365273 C126.267667,87.0909079 125.896072,86.9912117 125.587915,86.7374358 C124.373416,85.740459 122.873442,85.241978 121.087947,85.241978 C119.302452,85.241978 117.711845,85.8945349 116.316077,87.1996682 L116.316077,87.1996682 Z M146.135472,84.1815625 C146.135472,84.5984801 145.985928,84.9564801 145.686835,85.2555731 C145.387742,85.5546662 145.038805,85.7042104 144.640015,85.7042104 L140.316782,85.7042104 L140.316782,100.223746 C140.316782,100.640663 140.17177,100.994132 139.88174,101.284161 C139.59171,101.574191 139.238242,101.719203 138.821324,101.719203 C138.404407,101.719203 138.050939,101.574191 137.760909,101.284161 C137.470879,100.994132 137.325867,100.640663 137.325867,100.223746 L137.325867,85.7042104 L133.029824,85.7042104 C132.612907,85.7042104 132.259439,85.5546662 131.969409,85.2555731 C131.679379,84.9564801 131.534367,84.5984801 131.534367,84.1815625 C131.534367,83.764645 131.679379,83.4111767 131.969409,83.1211471 C132.259439,82.8311174 132.612907,82.6861048 133.029824,82.6861048 L144.640015,82.6861048 C145.056932,82.6861048 145.4104,82.8311174 145.70043,83.1211471 C145.99046,83.4111767 146.135472,83.764645 146.135472,84.1815625 L146.135472,84.1815625 Z M22.8229399,134.880979 L22.7685596,134.880979 C22.2428809,134.880979 21.8259696,134.672523 21.5178131,134.255606 L17.629623,128.817578 L17.629623,140.264627 C17.629623,140.681544 17.4800787,141.035013 17.1809857,141.325042 C16.8818926,141.615072 16.5238927,141.760085 16.1069751,141.760085 C15.6900575,141.760085 15.3365892,141.615072 15.0465596,141.325042 C14.75653,141.035013 14.6115174,140.681544 14.6115174,140.264627 L14.6115174,124.222444 C14.6115174,123.805526 14.75653,123.452058 15.0465596,123.162028 C15.3365892,122.871999 15.6900575,122.726986 16.1069751,122.726986 L16.1885455,122.726986 C16.7142242,122.726986 17.113009,122.935442 17.3849117,123.352359 L22.7957497,130.856838 L28.2065878,123.352359 C28.5147442,122.935442 28.9225923,122.726986 29.4301441,122.726986 L29.4573343,122.726986 C29.8742518,122.745113 30.2322518,122.899189 30.5313448,123.189218 C30.8304379,123.479248 30.9799821,123.823653 30.9799821,124.222444 L30.9799821,140.264627 C30.9799821,140.663418 30.8304379,141.012354 30.5313448,141.311447 C30.2322518,141.61054 29.8742518,141.760085 29.4573343,141.760085 C29.0404167,141.760085 28.6869484,141.615072 28.3969188,141.325042 C28.1068891,141.035013 27.9618765,140.681544 27.9618765,140.264627 L27.9618765,128.817578 L24.0464962,134.255606 C23.7383398,134.672523 23.3304917,134.880979 22.8229399,134.880979 L22.8229399,134.880979 Z M48.5638138,140.80843 L47.2314969,137.273711 L40.6242927,137.273711 L39.2919758,140.80843 C39.0381999,141.442869 38.5986304,141.760085 37.973254,141.760085 C37.3478776,141.760085 36.8992448,141.538034 36.627342,141.093926 C36.3554392,140.649818 36.3010595,140.192122 36.4642012,139.720824 L42.4732223,123.705831 C42.6001103,123.415801 42.794971,123.180156 43.0578103,122.998887 C43.3206497,122.817619 43.6061433,122.736049 43.9142998,122.754176 C44.6031201,122.717922 45.0834745,123.035138 45.3553772,123.705831 L51.3643984,139.720824 C51.52754,140.192122 51.4731603,140.649818 51.2012575,141.093926 C50.9293547,141.538034 50.4807219,141.760085 49.8553455,141.760085 C49.2299692,141.760085 48.7994629,141.442869 48.5638138,140.80843 L48.5638138,140.80843 Z M41.7118984,134.282796 L46.1167012,134.282796 L43.9142998,128.436916 L41.7118984,134.282796 Z M58.0449836,128.980718 L58.0449836,140.264627 C58.0449836,140.663418 57.8999709,141.012354 57.6099413,141.311447 C57.3199117,141.61054 56.9709751,141.760085 56.5631209,141.760085 C56.1552667,141.760085 55.8063301,141.615072 55.5163005,141.325042 C55.2262709,141.035013 55.0812582,140.681544 55.0812582,140.264627 L55.0812582,124.439965 C55.0450045,123.914286 55.2217387,123.515501 55.611466,123.243599 C56.0011933,122.971696 56.3954464,122.867468 56.7942371,122.930912 C57.1930278,122.994356 57.510243,123.189217 57.745892,123.5155 L66.5283075,135.669493 L66.5283075,124.467155 C66.5283075,124.068364 66.6733202,123.723959 66.9633498,123.43393 C67.2533794,123.1439 67.5977844,122.998887 67.9965751,122.998887 C68.3953659,122.998887 68.7443025,123.1439 69.0433955,123.43393 C69.3424886,123.723959 69.4920329,124.068364 69.4920329,124.467155 L69.4920329,140.264627 C69.4920329,140.681544 69.3424886,141.035013 69.0433955,141.325042 C68.7443025,141.615072 68.3863026,141.760085 67.969385,141.760085 C67.5524674,141.760085 67.1899358,141.578819 66.8817794,141.216282 C66.8092719,141.143774 66.7639555,141.089395 66.7458286,141.053141 L58.0449836,128.980718 Z M87.0214843,140.80843 L85.6891674,137.273711 L79.0819632,137.273711 L77.7496463,140.80843 C77.4958703,141.442869 77.0563008,141.760085 76.4309244,141.760085 C75.8055481,141.760085 75.3569152,141.538034 75.0850125,141.093926 C74.8131097,140.649818 74.75873,140.192122 74.9218716,139.720824 L80.9308927,123.705831 C81.0577807,123.415801 81.2526414,123.180156 81.5154808,122.998887 C81.7783201,122.817619 82.0638137,122.736049 82.3719702,122.754176 C83.0607906,122.717922 83.5411449,123.035138 83.8130477,123.705831 L89.8220688,139.720824 C89.9852105,140.192122 89.9308307,140.649818 89.658928,141.093926 C89.3870252,141.538034 88.9383923,141.760085 88.313016,141.760085 C87.6876396,141.760085 87.2571334,141.442869 87.0214843,140.80843 L87.0214843,140.80843 Z M80.1695688,134.282796 L84.5743716,134.282796 L82.3719702,128.436916 L80.1695688,134.282796 Z M109.526731,138.361317 C109.526731,138.578839 109.481415,138.778232 109.390781,138.9595 L109.390781,138.98669 C109.300147,139.240466 109.127944,139.457985 108.874168,139.639254 C107.061483,141.053148 105.004116,141.760085 102.702006,141.760085 C99.9285979,141.760085 97.5630793,140.812971 95.6053794,138.918715 C93.6476794,137.024459 92.6688442,134.717852 92.6688442,131.998824 C92.6688442,129.279796 93.6476794,126.964126 95.6053794,125.051743 C97.5630793,123.13936 99.9285979,122.183183 102.702006,122.183183 C105.04037,122.183183 107.1068,122.89012 108.901358,124.304014 C109.245768,124.55779 109.445161,124.902195 109.499541,125.337239 C109.553922,125.772284 109.454226,126.157474 109.20045,126.49282 C108.946674,126.828167 108.602269,127.023028 108.167224,127.077408 C107.73218,127.131789 107.342459,127.02303 106.998048,126.751127 C105.729169,125.772277 104.220131,125.282859 102.47089,125.282859 C100.721649,125.282859 99.1672946,125.935416 97.8077808,127.240549 C96.4482669,128.545683 95.7685202,130.122695 95.7685202,131.971634 C95.7685202,133.820573 96.4527986,135.397585 97.8213759,136.702718 C99.1899531,138.007852 100.816814,138.660408 102.702006,138.660408 C103.989013,138.660408 105.230683,138.316003 106.427055,137.627183 L106.427055,133.902134 L102.538865,133.902134 C102.121948,133.902134 101.759416,133.748058 101.45126,133.439901 C101.143103,133.131745 100.989027,132.764682 100.989027,132.338701 C100.989027,131.91272 101.138572,131.55472 101.437665,131.26469 C101.736758,130.974661 102.103821,130.829648 102.538865,130.829648 L107.949703,130.829648 C108.384748,130.829648 108.756343,130.974661 109.064499,131.26469 C109.372656,131.55472 109.526731,131.917251 109.526731,132.352296 L109.526731,138.361317 Z M117.104591,141.760085 C116.687674,141.760085 116.334205,141.615072 116.044176,141.325042 C115.754146,141.035013 115.609134,140.681544 115.609134,140.264627 L115.609134,124.222444 C115.609134,123.805526 115.754146,123.452058 116.044176,123.162028 C116.334205,122.871999 116.687674,122.726986 117.104591,122.726986 L125.995767,122.726986 C126.394558,122.726986 126.743495,122.871999 127.042588,123.162028 C127.341681,123.452058 127.491225,123.805526 127.491225,124.222444 C127.491225,124.639361 127.341681,124.997361 127.042588,125.296454 C126.743495,125.595547 126.394558,125.745092 125.995767,125.745092 L118.627239,125.745092 L118.627239,130.720887 L124.962542,130.720887 C125.361333,130.720887 125.710269,130.870432 126.009362,131.169525 C126.308456,131.468618 126.458,131.822086 126.458,132.22994 C126.458,132.637794 126.312987,132.991263 126.022958,133.290356 C125.732928,133.589449 125.37946,133.738993 124.962542,133.738993 L118.627239,133.738993 L118.627239,138.741979 L125.995767,138.741979 C126.394558,138.741979 126.743495,138.891523 127.042588,139.190616 C127.341681,139.489709 127.491225,139.843178 127.491225,140.251032 C127.491225,140.658886 127.341681,141.012354 127.042588,141.311447 C126.743495,141.61054 126.394558,141.760085 125.995767,141.760085 L117.186162,141.760085 L117.131782,141.732894 L117.104591,141.760085 Z M139.90893,134.880979 L139.85455,134.880979 C139.328871,134.880979 138.91196,134.672523 138.603803,134.255606 L134.715613,128.817578 L134.715613,140.264627 C134.715613,140.681544 134.566069,141.035013 134.266976,141.325042 C133.967883,141.615072 133.609883,141.760085 133.192965,141.760085 C132.776048,141.760085 132.422579,141.615072 132.13255,141.325042 C131.84252,141.035013 131.697508,140.681544 131.697508,140.264627 L131.697508,124.222444 C131.697508,123.805526 131.84252,123.452058 132.13255,123.162028 C132.422579,122.871999 132.776048,122.726986 133.192965,122.726986 L133.274536,122.726986 C133.800214,122.726986 134.198999,122.935442 134.470902,123.352359 L139.88174,130.856838 L145.292578,123.352359 C145.600734,122.935442 146.008583,122.726986 146.516134,122.726986 L146.543324,122.726986 C146.960242,122.745113 147.318242,122.899189 147.617335,123.189218 C147.916428,123.479248 148.065972,123.823653 148.065972,124.222444 L148.065972,140.264627 C148.065972,140.663418 147.916428,141.012354 147.617335,141.311447 C147.318242,141.61054 146.960242,141.760085 146.543324,141.760085 C146.126407,141.760085 145.772939,141.615072 145.482909,141.325042 C145.192879,141.035013 145.047867,140.681544 145.047867,140.264627 L145.047867,128.817578 L141.132486,134.255606 C140.82433,134.672523 140.416482,134.880979 139.90893,134.880979 L139.90893,134.880979 Z M156.106065,141.760085 C155.689147,141.760085 155.335679,141.615072 155.045649,141.325042 C154.75562,141.035013 154.610607,140.681544 154.610607,140.264627 L154.610607,124.222444 C154.610607,123.805526 154.75562,123.452058 155.045649,123.162028 C155.335679,122.871999 155.689147,122.726986 156.106065,122.726986 L164.997241,122.726986 C165.396031,122.726986 165.744968,122.871999 166.044061,123.162028 C166.343154,123.452058 166.492698,123.805526 166.492698,124.222444 C166.492698,124.639361 166.343154,124.997361 166.044061,125.296454 C165.744968,125.595547 165.396031,125.745092 164.997241,125.745092 L157.628713,125.745092 L157.628713,130.720887 L163.964015,130.720887 C164.362806,130.720887 164.711743,130.870432 165.010836,131.169525 C165.309929,131.468618 165.459473,131.822086 165.459473,132.22994 C165.459473,132.637794 165.31446,132.991263 165.024431,133.290356 C164.734401,133.589449 164.380933,133.738993 163.964015,133.738993 L157.628713,133.738993 L157.628713,138.741979 L164.997241,138.741979 C165.396031,138.741979 165.744968,138.891523 166.044061,139.190616 C166.343154,139.489709 166.492698,139.843178 166.492698,140.251032 C166.492698,140.658886 166.343154,141.012354 166.044061,141.311447 C165.744968,141.61054 165.396031,141.760085 164.997241,141.760085 L156.187635,141.760085 L156.133255,141.732894 L156.106065,141.760085 Z M173.689896,128.980718 L173.689896,140.264627 C173.689896,140.663418 173.544884,141.012354 173.254854,141.311447 C172.964824,141.61054 172.615888,141.760085 172.208034,141.760085 C171.80018,141.760085 171.451243,141.615072 171.161213,141.325042 C170.871184,141.035013 170.726171,140.681544 170.726171,140.264627 L170.726171,124.439965 C170.689917,123.914286 170.866651,123.515501 171.256379,123.243599 C171.646106,122.971696 172.040359,122.867468 172.43915,122.930912 C172.837941,122.994356 173.155156,123.189217 173.390805,123.5155 L182.17322,135.669493 L182.17322,124.467155 C182.17322,124.068364 182.318233,123.723959 182.608263,123.43393 C182.898292,123.1439 183.242697,122.998887 183.641488,122.998887 C184.040279,122.998887 184.389215,123.1439 184.688308,123.43393 C184.987401,123.723959 185.136946,124.068364 185.136946,124.467155 L185.136946,140.264627 C185.136946,140.681544 184.987401,141.035013 184.688308,141.325042 C184.389215,141.615072 184.031215,141.760085 183.614298,141.760085 C183.19738,141.760085 182.834849,141.578819 182.526692,141.216282 C182.454185,141.143774 182.408868,141.089395 182.390741,141.053141 L173.689896,128.980718 Z M204.760038,124.222444 C204.760038,124.639361 204.610494,124.997361 204.311401,125.296454 C204.012308,125.595547 203.663371,125.745092 203.26458,125.745092 L198.941348,125.745092 L198.941348,140.264627 C198.941348,140.681544 198.796335,141.035013 198.506306,141.325042 C198.216276,141.615072 197.862808,141.760085 197.44589,141.760085 C197.028972,141.760085 196.675504,141.615072 196.385475,141.325042 C196.095445,141.035013 195.950432,140.681544 195.950432,140.264627 L195.950432,125.745092 L191.65439,125.745092 C191.237472,125.745092 190.884004,125.595547 190.593975,125.296454 C190.303945,124.997361 190.158932,124.639361 190.158932,124.222444 C190.158932,123.805526 190.303945,123.452058 190.593975,123.162028 C190.884004,122.871999 191.237472,122.726986 191.65439,122.726986 L203.26458,122.726986 C203.681498,122.726986 204.034966,122.871999 204.324996,123.162028 C204.615025,123.452058 204.760038,123.805526 204.760038,124.222444 L204.760038,124.222444 Z" id="PRODUCT-MANAGEMENT" fill="#4A4A4A"></path>
                <use id="Rectangle-2-Copy-2" stroke="#979797" mask="url(#mask-2)" stroke-width="2.35534595" xlink:href="#path-1"></use>
                <use id="Rectangle-2-Copy-3" stroke="#979797" mask="url(#mask-4)" stroke-width="2.35534595" xlink:href="#path-3"></use>
                <ellipse id="Oval-Copy-5" stroke="#979797" stroke-width="1.17767298" cx="5.10677439" cy="40.890385" rx="4.71349708" ry="4.68943318"></ellipse>
            </g>
        </g>
    </g>
</svg>