<?xml version="1.0" encoding="UTF-8"?>
<svg width="260px" height="216px" viewBox="0 0 260 216" version="1.1" xmlns="http://www.w3.org/2000/svg" xmlns:xlink="http://www.w3.org/1999/xlink" style="background: #FFFFFF;">
    <!-- Generator: Sketch 41.2 (35397) - http://www.bohemiancoding.com/sketch -->
    <title>episode-10</title>
    <desc>Created with Sketch.</desc>
    <defs>
        <rect id="path-1" x="0" y="47.4801146" width="172" height="42.2048986"></rect>
        <mask id="mask-2" maskContentUnits="userSpaceOnUse" maskUnits="objectBoundingBox" x="0" y="0" width="172" height="42.2048986" fill="white">
            <use xlink:href="#path-1"></use>
        </mask>
    </defs>
    <g id="Page-1" stroke="none" stroke-width="1" fill="none" fill-rule="evenodd">
        <g id="episode-10">
            <g id="Group-2" transform="translate(17.000000, 14.000000)">
                <path d="M76.053406,30.5747635 L49.4288201,50.1516649 L49.4288201,21.9609269 L76.053406,2.38402549 L102.677992,2.38402549 L102.677992,188.234076 L76.053406,188.234076 L76.053406,30.5747635 Z M141.231126,40.7547523 C141.231126,34.4901125 142.318721,28.9216273 144.493943,24.0491297 C146.669165,19.1766321 149.583919,15.0002682 153.238292,11.5199128 C156.892665,8.03955738 161.112533,5.38582618 165.898022,3.55863957 C170.68351,1.73145297 175.686446,0.817873377 180.906979,0.817873377 C186.127513,0.817873377 191.130448,1.73145297 195.915937,3.55863957 C200.701426,5.38582618 204.921294,8.03955738 208.575667,11.5199128 C212.23004,15.0002682 215.144794,19.1766321 217.320016,24.0491297 C219.495238,28.9216273 220.582833,34.4901125 220.582833,40.7547523 L220.582833,149.863349 C220.582833,156.127989 219.495238,161.696474 217.320016,166.568972 C215.144794,171.44147 212.23004,175.617833 208.575667,179.098189 C204.921294,182.578544 200.701426,185.232276 195.915937,187.059462 C191.130448,188.886649 186.127513,189.800228 180.906979,189.800228 C175.686446,189.800228 170.68351,188.886649 165.898022,187.059462 C161.112533,185.232276 156.892665,182.578544 153.238292,179.098189 C149.583919,175.617833 146.669165,171.44147 144.493943,166.568972 C142.318721,161.696474 141.231126,156.127989 141.231126,149.863349 L141.231126,40.7547523 Z M167.855712,149.863349 C167.855712,153.69174 169.073818,156.867517 171.510067,159.390775 C173.946316,161.914032 177.078588,163.175642 180.906979,163.175642 C184.73537,163.175642 187.867643,161.914032 190.303892,159.390775 C192.740141,156.867517 193.958247,153.69174 193.958247,149.863349 L193.958247,40.7547523 C193.958247,36.9263613 192.740141,33.7505846 190.303892,31.2273269 C187.867643,28.7040692 184.73537,27.4424593 180.906979,27.4424593 C177.078588,27.4424593 173.946316,28.7040692 171.510067,31.2273269 C169.073818,33.7505846 167.855712,36.9263613 167.855712,40.7547523 L167.855712,149.863349 Z" id="10" fill="#50E3C2"></path>
                <use id="Rectangle-2-Copy-2" stroke="#979797" mask="url(#mask-2)" stroke-width="2.35534595" xlink:href="#path-1"></use>
                <ellipse id="Oval-Copy-5" stroke="#979797" stroke-width="1.17767298" cx="7.10677439" cy="28.890385" rx="4.71349708" ry="4.68943318"></ellipse>
            </g>
            <path d="M236.85588,187.890446 C229.27359,187.890446 229.27359,180 221.690201,180 C214.104613,180 214.104613,187.890446 206.519025,187.890446 C198.936735,187.890446 198.936735,180 191.352246,180 C183.764459,180 183.764459,187.890446 176.176673,187.890446 C168.587787,187.890446 168.587787,180 161,180" id="Page-1-Copy" stroke="#5D3799" stroke-width="1.11486375" stroke-linecap="round"></path>
            <path d="M30.452,92 C30.0226645,92 29.6586682,91.8506682 29.36,91.552 C29.0613318,91.2533318 28.912,90.8893355 28.912,90.46 L28.912,73.94 C28.912,73.5106645 29.0613318,73.1466682 29.36,72.848 C29.6586682,72.5493318 30.0226645,72.4 30.452,72.4 C30.8813355,72.4 31.2499985,72.5493318 31.558,72.848 C31.8660015,73.1466682 32.02,73.5106645 32.02,73.94 L32.02,80.66 L39.272,80.66 L39.272,73.94 C39.272,73.5106645 39.4213318,73.1466682 39.72,72.848 C40.0186682,72.5493318 40.3826645,72.4 40.812,72.4 C41.2413355,72.4 41.6099985,72.5493318 41.918,72.848 C42.2260015,73.1466682 42.38,73.5106645 42.38,73.94 L42.38,90.46 C42.38,90.8893355 42.2260015,91.2533318 41.918,91.552 C41.6099985,91.8506682 41.2413355,92 40.812,92 C40.3826645,92 40.0186682,91.8506682 39.72,91.552 C39.4213318,91.2533318 39.272,90.8893355 39.272,90.46 L39.272,83.74 L32.02,83.74 L32.02,90.46 C32.02,90.8893355 31.8660015,91.2533318 31.558,91.552 C31.2499985,91.8506682 30.8813355,92 30.452,92 Z M60.0955667,91.02 L58.7235667,87.38 L51.9195667,87.38 L50.5475667,91.02 C50.286232,91.6733366 49.8335699,92 49.1895667,92 C48.5455634,92 48.0835681,91.7713356 47.8035667,91.314 C47.5235653,90.8566644 47.4675658,90.3853358 47.6355667,89.9 L53.8235667,73.408 C53.954234,73.1093318 54.1548986,72.8666676 54.4255667,72.68 C54.6962347,72.4933324 54.9902317,72.4093332 55.3075667,72.428 C56.0169035,72.3906665 56.5115653,72.7173299 56.7915667,73.408 L62.9795667,89.9 C63.1475675,90.3853358 63.0915681,90.8566644 62.8115667,91.314 C62.5315653,91.7713356 62.0695699,92 61.4255667,92 C60.7815634,92 60.3382345,91.6733366 60.0955667,91.02 Z M53.0395667,84.3 L57.5755667,84.3 L55.3075667,78.28 L53.0395667,84.3 Z M68.4311333,92 L68.4031333,91.972 C68.3844666,91.972 68.3564668,91.9813332 68.3191333,92 C67.8897978,92 67.5258015,91.8506682 67.2271333,91.552 C66.9284652,91.2533318 66.7791333,90.8893355 66.7791333,90.46 L66.7791333,73.94 C66.7791333,73.5106645 66.9284652,73.1466682 67.2271333,72.848 C67.5258015,72.5493318 67.8897978,72.4 68.3191333,72.4 L72.2951333,72.4 C73.7698074,72.4 75.0251281,72.9179948 76.0611333,73.954 C77.0971385,74.9900052 77.6151333,76.17066 77.6151333,77.496 C77.6151333,78.82134 77.2604702,79.9599952 76.5511333,80.912 C77.4098043,81.453336 78.0957974,82.1719955 78.6091333,83.068 C79.1224692,83.9640045 79.3791333,84.9346614 79.3791333,85.98 C79.3791333,87.6413416 78.7958058,89.0599941 77.6291333,90.236 C76.4624608,91.4120059 75.048475,92 73.3871333,92 L68.4311333,92 Z M69.8871333,75.508 L69.8871333,79.988 L72.2951333,79.988 C72.9111364,79.988 73.4337978,79.7640022 73.8631333,79.316 C74.2924688,78.8679978 74.5071333,78.3360031 74.5071333,77.72 C74.5071333,77.1039969 74.2924688,76.5813355 73.8631333,76.152 C73.4337978,75.7226645 72.9111364,75.508 72.2951333,75.508 L69.8871333,75.508 Z M69.8871333,83.096 L69.8871333,88.892 L73.3871333,88.892 C74.189804,88.8733332 74.8711305,88.5840028 75.4311333,88.024 C75.9911361,87.4639972 76.2711333,86.7826707 76.2711333,85.98 C76.2711333,85.1773293 75.9911361,84.5006694 75.4311333,83.95 C74.8711305,83.3993306 74.189804,83.1146668 73.3871333,83.096 L69.8871333,83.096 Z M84.9147,92 C84.4853645,92 84.1213681,91.8506682 83.8227,91.552 C83.5240318,91.2533318 83.3747,90.8893355 83.3747,90.46 L83.3747,73.94 C83.3747,73.5106645 83.5240318,73.1466682 83.8227,72.848 C84.1213681,72.5493318 84.4853645,72.4 84.9147,72.4 C85.3440355,72.4 85.7126984,72.5493318 86.0207,72.848 C86.3287015,73.1466682 86.4827,73.5106645 86.4827,73.94 L86.4827,88.892 L94.0707,88.892 C94.4813687,88.892 94.8406984,89.0459985 95.1487,89.354 C95.4567015,89.6620015 95.6107,90.0259979 95.6107,90.446 C95.6107,90.8660021 95.4567015,91.2299985 95.1487,91.538 C94.8406984,91.8460015 94.4813687,92 94.0707,92 L84.9147,92 Z M100.642267,92 C100.212931,92 99.8489348,91.8506682 99.5502666,91.552 C99.2515985,91.2533318 99.1022666,90.8893355 99.1022666,90.46 L99.1022666,73.94 C99.1022666,73.5106645 99.2515985,73.1466682 99.5502666,72.848 C99.8489348,72.5493318 100.212931,72.4 100.642267,72.4 L109.798267,72.4 C110.208935,72.4 110.568265,72.5493318 110.876267,72.848 C111.184268,73.1466682 111.338267,73.5106645 111.338267,73.94 C111.338267,74.3693355 111.184268,74.7379985 110.876267,75.046 C110.568265,75.3540015 110.208935,75.508 109.798267,75.508 L102.210267,75.508 L102.210267,80.632 L108.734267,80.632 C109.144935,80.632 109.504265,80.7859985 109.812267,81.094 C110.120268,81.4020015 110.274267,81.7659979 110.274267,82.186 C110.274267,82.6060021 110.124935,82.9699985 109.826267,83.278 C109.527598,83.5860015 109.163602,83.74 108.734267,83.74 L102.210267,83.74 L102.210267,88.892 L109.798267,88.892 C110.208935,88.892 110.568265,89.0459985 110.876267,89.354 C111.184268,89.6620015 111.338267,90.0259979 111.338267,90.446 C111.338267,90.8660021 111.184268,91.2299985 110.876267,91.538 C110.568265,91.8460015 110.208935,92 109.798267,92 L100.726267,92 L100.670267,91.972 L100.642267,92 Z M124.125833,84.916 L124.069833,84.916 C123.528497,84.916 123.099168,84.7013355 122.781833,84.272 L118.777833,78.672 L118.777833,90.46 C118.777833,90.8893355 118.623835,91.2533318 118.315833,91.552 C118.007832,91.8506682 117.639169,92 117.209833,92 C116.780498,92 116.416501,91.8506682 116.117833,91.552 C115.819165,91.2533318 115.669833,90.8893355 115.669833,90.46 L115.669833,73.94 C115.669833,73.5106645 115.819165,73.1466682 116.117833,72.848 C116.416501,72.5493318 116.780498,72.4 117.209833,72.4 L117.293833,72.4 C117.835169,72.4 118.245832,72.6146645 118.525833,73.044 L124.097833,80.772 L129.669833,73.044 C129.987168,72.6146645 130.407164,72.4 130.929833,72.4 L130.957833,72.4 C131.387169,72.4186668 131.755832,72.5773318 132.063833,72.876 C132.371835,73.1746682 132.525833,73.5293313 132.525833,73.94 L132.525833,90.46 C132.525833,90.8706687 132.371835,91.2299985 132.063833,91.538 C131.755832,91.8460015 131.387169,92 130.957833,92 C130.528498,92 130.164501,91.8506682 129.865833,91.552 C129.567165,91.2533318 129.417833,90.8893355 129.417833,90.46 L129.417833,78.672 L125.385833,84.272 C125.068498,84.7013355 124.648503,84.916 124.125833,84.916 Z M138.3974,81.92 C138.3974,79.1573195 139.326057,76.7866766 141.1834,74.808 C143.040743,72.8293234 145.304053,71.84 147.9734,71.84 C150.642747,71.84 152.906057,72.8433233 154.7634,74.85 C156.620743,76.8566767 157.5494,79.222653 157.5494,81.948 C157.5494,84.673347 156.606743,87.0253234 154.7214,89.004 C153.881396,89.937338 152.873406,90.6699973 151.6974,91.202 C150.521394,91.7340027 149.29874,92 148.0294,92 C145.32272,92 143.040743,91.0106766 141.1834,89.032 C139.326057,87.0533234 138.3974,84.6826805 138.3974,81.92 Z M143.4654,86.778 C144.716073,88.1313401 146.223391,88.808 147.9874,88.808 C149.751409,88.808 151.25406,88.1220069 152.4954,86.75 C153.73674,85.3779931 154.3574,83.7680092 154.3574,81.92 C154.3574,80.0719908 153.741406,78.4620069 152.5094,77.09 C151.277394,75.7179931 149.770076,75.032 147.9874,75.032 C146.204724,75.032 144.69274,75.7086599 143.4514,77.062 C142.21006,78.4153401 141.5894,80.0346572 141.5894,81.92 C141.5894,83.8053428 142.214727,85.4246599 143.4654,86.778 Z M174.508967,86.036 C174.508967,84.6173262 172.866316,83.6000031 169.580967,82.984 L169.524967,82.984 C168.068959,82.7039986 166.808972,82.3120025 165.744967,81.808 C164.680961,81.3039975 163.901636,80.6553373 163.406967,79.862 C162.912297,79.0686627 162.664967,78.2520042 162.664967,77.412 C162.664967,75.7879919 163.378959,74.4533386 164.806967,73.408 C166.234974,72.3626614 167.882291,71.84 169.748967,71.84 C170.570304,71.84 171.410296,71.9799986 172.268967,72.26 C173.127638,72.5400014 173.766965,72.8013321 174.186967,73.044 C174.606969,73.2866679 175.162297,73.6319978 175.852967,74.08 C176.170302,74.3040011 176.370966,74.611998 176.454967,75.004 C176.538967,75.396002 176.473634,75.7553317 176.258967,76.082 C176.044299,76.4086683 175.740969,76.6139996 175.348967,76.698 C174.956965,76.7820004 174.592968,76.7120011 174.256967,76.488 C173.379629,75.8906637 172.600303,75.4426682 171.918967,75.144 C171.23763,74.8453318 170.514304,74.696 169.748967,74.696 C168.51696,74.696 167.508971,74.9853304 166.724967,75.564 C165.940963,76.1426696 165.548967,76.7586634 165.548967,77.412 C165.548967,77.7293349 165.623633,77.9999989 165.772967,78.224 C166.295636,79.082671 167.704955,79.7266645 170.000967,80.156 L170.056967,80.156 C171.624974,80.4733349 172.912962,80.865331 173.920967,81.332 C176.235645,82.4706724 177.392967,84.0386567 177.392967,86.036 C177.392967,87.7720087 176.627641,89.1953278 175.096967,90.306 C173.566292,91.4166722 171.80231,91.972 169.804967,91.972 C167.359621,91.9533332 164.970312,91.0200092 162.636967,89.172 C162.338298,88.9293321 162.165634,88.6026687 162.118967,88.192 C162.0723,87.7813313 162.170299,87.4266682 162.412967,87.128 C162.655635,86.8293318 162.982298,86.6566669 163.392967,86.61 C163.803635,86.5633331 164.158298,86.6706654 164.456967,86.932 C166.248976,88.3880073 168.031624,89.1066668 169.804967,89.088 C171.204974,89.088 172.338962,88.7660032 173.206967,88.122 C174.074971,87.4779968 174.508967,86.7826704 174.508967,86.036 Z M28.912,130.46 L28.912,113.94 C28.912,113.510665 29.0613318,113.146668 29.36,112.848 C29.6586682,112.549332 30.0226645,112.4 30.452,112.4 L33.756,112.4 C36.4626802,112.4 38.7679905,113.356657 40.672,115.27 C42.5760095,117.183343 43.528,119.49332 43.528,122.2 C43.528,124.90668 42.5760095,127.216657 40.672,129.13 C38.7679905,131.043343 36.4626802,132 33.756,132 L30.452,132 C30.0226645,132 29.6586682,131.850668 29.36,131.552 C29.0613318,131.253332 28.912,130.889335 28.912,130.46 Z M32.02,115.508 L32.02,128.892 L33.756,128.892 C35.6040092,128.873333 37.1766602,128.21534 38.474,126.918 C39.7713398,125.62066 40.42,124.048009 40.42,122.2 C40.42,120.351991 39.7713398,118.774673 38.474,117.468 C37.1766602,116.161327 35.6040092,115.508 33.756,115.508 L32.02,115.508 Z M50.5475667,132 C50.1182312,132 49.7542348,131.850668 49.4555667,131.552 C49.1568985,131.253332 49.0075667,130.889335 49.0075667,130.46 L49.0075667,113.94 C49.0075667,113.510665 49.1568985,113.146668 49.4555667,112.848 C49.7542348,112.549332 50.1182312,112.4 50.5475667,112.4 L59.7035667,112.4 C60.1142354,112.4 60.4735651,112.549332 60.7815667,112.848 C61.0895682,113.146668 61.2435667,113.510665 61.2435667,113.94 C61.2435667,114.369335 61.0895682,114.737998 60.7815667,115.046 C60.4735651,115.354002 60.1142354,115.508 59.7035667,115.508 L52.1155667,115.508 L52.1155667,120.632 L58.6395667,120.632 C59.0502354,120.632 59.4095651,120.785998 59.7175667,121.094 C60.0255682,121.402002 60.1795667,121.765998 60.1795667,122.186 C60.1795667,122.606002 60.0302348,122.969998 59.7315667,123.278 C59.4328985,123.586002 59.0689021,123.74 58.6395667,123.74 L52.1155667,123.74 L52.1155667,128.892 L59.7035667,128.892 C60.1142354,128.892 60.4735651,129.045998 60.7815667,129.354 C61.0895682,129.662002 61.2435667,130.025998 61.2435667,130.446 C61.2435667,130.866002 61.0895682,131.229998 60.7815667,131.538 C60.4735651,131.846002 60.1142354,132 59.7035667,132 L50.6315667,132 L50.5755667,131.972 L50.5475667,132 Z M90.1507,123.908 C90.1507,126.129344 89.3620412,128.033325 87.7847,129.62 C86.2073588,131.206675 84.2987112,132 82.0587,132 C79.8186888,132 77.9100412,131.211341 76.3327,129.634 C74.7553588,128.056659 73.9667,126.148011 73.9667,123.908 L73.9667,113.94 C73.9667,113.510665 74.1160318,113.146668 74.4147,112.848 C74.7133681,112.549332 75.0773645,112.4 75.5067,112.4 C75.9360355,112.4 76.3046984,112.549332 76.6127,112.848 C76.9207015,113.146668 77.0747,113.510665 77.0747,113.94 L77.0747,123.908 C77.0747,125.270673 77.5600285,126.441995 78.5307,127.422 C79.5013715,128.402005 80.6773597,128.892 82.0587,128.892 C83.4400402,128.892 84.6160285,128.406672 85.5867,127.436 C86.5573715,126.465328 87.0427,125.28934 87.0427,123.908 L87.0427,113.94 C87.0427,113.510665 87.1966984,113.146668 87.5047,112.848 C87.8127015,112.549332 88.1813645,112.4 88.6107,112.4 C89.0400355,112.4 89.4040318,112.549332 89.7027,112.848 C90.0013681,113.146668 90.1507,113.510665 90.1507,113.94 L90.1507,123.908 Z M108.174267,126.036 C108.174267,124.617326 106.531616,123.600003 103.246267,122.984 L103.190267,122.984 C101.734259,122.703999 100.474272,122.312003 99.4102666,121.808 C98.3462613,121.303997 97.5669358,120.655337 97.0722666,119.862 C96.5775975,119.068663 96.3302666,118.252004 96.3302666,117.412 C96.3302666,115.787992 97.0442595,114.453339 98.4722666,113.408 C99.9002738,112.362661 101.547591,111.84 103.414267,111.84 C104.235604,111.84 105.075596,111.979999 105.934267,112.26 C106.792938,112.540001 107.432265,112.801332 107.852267,113.044 C108.272269,113.286668 108.827597,113.631998 109.518267,114.08 C109.835602,114.304001 110.036266,114.611998 110.120267,115.004 C110.204267,115.396002 110.138934,115.755332 109.924267,116.082 C109.709599,116.408668 109.406269,116.614 109.014267,116.698 C108.622265,116.782 108.258268,116.712001 107.922267,116.488 C107.044929,115.890664 106.265603,115.442668 105.584267,115.144 C104.90293,114.845332 104.179604,114.696 103.414267,114.696 C102.18226,114.696 101.174271,114.98533 100.390267,115.564 C99.6062627,116.14267 99.2142666,116.758663 99.2142666,117.412 C99.2142666,117.729335 99.2889326,117.999999 99.4382666,118.224 C99.9609359,119.082671 101.370255,119.726665 103.666267,120.156 L103.722267,120.156 C105.290274,120.473335 106.578262,120.865331 107.586267,121.332 C109.900945,122.470672 111.058267,124.038657 111.058267,126.036 C111.058267,127.772009 110.292941,129.195328 108.762267,130.306 C107.231592,131.416672 105.46761,131.972 103.470267,131.972 C101.024921,131.953333 98.6356116,131.020009 96.3022666,129.172 C96.0035985,128.929332 95.8309335,128.602669 95.7842666,128.192 C95.7375997,127.781331 95.8355988,127.426668 96.0782666,127.128 C96.3209345,126.829332 96.6475979,126.656667 97.0582666,126.61 C97.4689354,126.563333 97.8235985,126.670665 98.1222666,126.932 C99.9142756,128.388007 101.696924,129.106667 103.470267,129.088 C104.870274,129.088 106.004262,128.766003 106.872267,128.122 C107.740271,127.477997 108.174267,126.78267 108.174267,126.036 Z M126.701833,131.02 L125.329833,127.38 L118.525833,127.38 L117.153833,131.02 C116.892499,131.673337 116.439837,132 115.795833,132 C115.15183,132 114.689835,131.771336 114.409833,131.314 C114.129832,130.856664 114.073832,130.385336 114.241833,129.9 L120.429833,113.408 C120.560501,113.109332 120.761165,112.866668 121.031833,112.68 C121.302501,112.493332 121.596498,112.409333 121.913833,112.428 C122.62317,112.390666 123.117832,112.71733 123.397833,113.408 L129.585833,129.9 C129.753834,130.385336 129.697835,130.856664 129.417833,131.314 C129.137832,131.771336 128.675837,132 128.031833,132 C127.38783,132 126.944501,131.673337 126.701833,131.02 Z M119.645833,124.3 L124.181833,124.3 L121.913833,118.28 L119.645833,124.3 Z M135.0374,132 L135.0094,131.972 C134.990733,131.972 134.962733,131.981333 134.9254,132 C134.496064,132 134.132068,131.850668 133.8334,131.552 C133.534732,131.253332 133.3854,130.889335 133.3854,130.46 L133.3854,113.94 C133.3854,113.510665 133.534732,113.146668 133.8334,112.848 C134.132068,112.549332 134.496064,112.4 134.9254,112.4 L138.9014,112.4 C140.376074,112.4 141.631395,112.917995 142.6674,113.954 C143.703405,114.990005 144.2214,116.17066 144.2214,117.496 C144.2214,118.82134 143.866737,119.959995 143.1574,120.912 C144.016071,121.453336 144.702064,122.171996 145.2154,123.068 C145.728736,123.964004 145.9854,124.934661 145.9854,125.98 C145.9854,127.641342 145.402072,129.059994 144.2354,130.236 C143.068727,131.412006 141.654742,132 139.9934,132 L135.0374,132 Z M136.4934,115.508 L136.4934,119.988 L138.9014,119.988 C139.517403,119.988 140.040064,119.764002 140.4694,119.316 C140.898735,118.867998 141.1134,118.336003 141.1134,117.72 C141.1134,117.103997 140.898735,116.581335 140.4694,116.152 C140.040064,115.722665 139.517403,115.508 138.9014,115.508 L136.4934,115.508 Z M136.4934,123.096 L136.4934,128.892 L139.9934,128.892 C140.796071,128.873333 141.477397,128.584003 142.0374,128.024 C142.597403,127.463997 142.8774,126.782671 142.8774,125.98 C142.8774,125.177329 142.597403,124.500669 142.0374,123.95 C141.477397,123.399331 140.796071,123.114667 139.9934,123.096 L136.4934,123.096 Z M150.176967,113.94 C150.176967,113.510665 150.326298,113.146668 150.624967,112.848 C150.923635,112.549332 151.287631,112.4 151.716967,112.4 C152.146302,112.4 152.514965,112.549332 152.822967,112.848 C153.130968,113.146668 153.284967,113.510665 153.284967,113.94 L153.284967,130.46 C153.284967,130.889335 153.130968,131.253332 152.822967,131.552 C152.514965,131.850668 152.146302,132 151.716967,132 C151.287631,132 150.923635,131.850668 150.624967,131.552 C150.326298,131.253332 150.176967,130.889335 150.176967,130.46 L150.176967,113.94 Z M160.024533,132 C159.595198,132 159.231201,131.850668 158.932533,131.552 C158.633865,131.253332 158.484533,130.889335 158.484533,130.46 L158.484533,113.94 C158.484533,113.510665 158.633865,113.146668 158.932533,112.848 C159.231201,112.549332 159.595198,112.4 160.024533,112.4 C160.453869,112.4 160.822532,112.549332 161.130533,112.848 C161.438535,113.146668 161.592533,113.510665 161.592533,113.94 L161.592533,128.892 L169.180533,128.892 C169.591202,128.892 169.950532,129.045998 170.258533,129.354 C170.566535,129.662002 170.720533,130.025998 170.720533,130.446 C170.720533,130.866002 170.566535,131.229998 170.258533,131.538 C169.950532,131.846002 169.591202,132 169.180533,132 L160.024533,132 Z M174.4081,113.94 C174.4081,113.510665 174.557432,113.146668 174.8561,112.848 C175.154768,112.549332 175.518764,112.4 175.9481,112.4 C176.377435,112.4 176.746098,112.549332 177.0541,112.848 C177.362101,113.146668 177.5161,113.510665 177.5161,113.94 L177.5161,130.46 C177.5161,130.889335 177.362101,131.253332 177.0541,131.552 C176.746098,131.850668 176.377435,132 175.9481,132 C175.518764,132 175.154768,131.850668 174.8561,131.552 C174.557432,131.253332 174.4081,130.889335 174.4081,130.46 L174.4081,113.94 Z M182.715667,130.46 L182.715667,113.94 C182.715667,113.510665 182.864998,113.146668 183.163667,112.848 C183.462335,112.549332 183.826331,112.4 184.255667,112.4 L187.559667,112.4 C190.266347,112.4 192.571657,113.356657 194.475667,115.27 C196.379676,117.183343 197.331667,119.49332 197.331667,122.2 C197.331667,124.90668 196.379676,127.216657 194.475667,129.13 C192.571657,131.043343 190.266347,132 187.559667,132 L184.255667,132 C183.826331,132 183.462335,131.850668 183.163667,131.552 C182.864998,131.253332 182.715667,130.889335 182.715667,130.46 Z M185.823667,115.508 L185.823667,128.892 L187.559667,128.892 C189.407676,128.873333 190.980327,128.21534 192.277667,126.918 C193.575006,125.62066 194.223667,124.048009 194.223667,122.2 C194.223667,120.351991 193.575006,118.774673 192.277667,117.468 C190.980327,116.161327 189.407676,115.508 187.559667,115.508 L185.823667,115.508 Z M214.179233,131.02 L212.807233,127.38 L206.003233,127.38 L204.631233,131.02 C204.369899,131.673337 203.917236,132 203.273233,132 C202.62923,132 202.167235,131.771336 201.887233,131.314 C201.607232,130.856664 201.551232,130.385336 201.719233,129.9 L207.907233,113.408 C208.037901,113.109332 208.238565,112.866668 208.509233,112.68 C208.779901,112.493332 209.073898,112.409333 209.391233,112.428 C210.10057,112.390666 210.595232,112.71733 210.875233,113.408 L217.063233,129.9 C217.231234,130.385336 217.175235,130.856664 216.895233,131.314 C216.615232,131.771336 216.153236,132 215.509233,132 C214.86523,132 214.421901,131.673337 214.179233,131.02 Z M207.123233,124.3 L211.659233,124.3 L209.391233,118.28 L207.123233,124.3 Z M220.8628,130.46 L220.8628,113.94 C220.8628,113.510665 221.012132,113.146668 221.3108,112.848 C221.609468,112.549332 221.973464,112.4 222.4028,112.4 L225.7068,112.4 C228.41348,112.4 230.71879,113.356657 232.6228,115.27 C234.526809,117.183343 235.4788,119.49332 235.4788,122.2 C235.4788,124.90668 234.526809,127.216657 232.6228,129.13 C230.71879,131.043343 228.41348,132 225.7068,132 L222.4028,132 C221.973464,132 221.609468,131.850668 221.3108,131.552 C221.012132,131.253332 220.8628,130.889335 220.8628,130.46 Z M223.9708,115.508 L223.9708,128.892 L225.7068,128.892 C227.554809,128.873333 229.12746,128.21534 230.4248,126.918 C231.72214,125.62066 232.3708,124.048009 232.3708,122.2 C232.3708,120.351991 231.72214,118.774673 230.4248,117.468 C229.12746,116.161327 227.554809,115.508 225.7068,115.508 L223.9708,115.508 Z" id="HABLEMOS-DE-USABILID" fill="#4A4A4A"></path>
        </g>
    </g>
</svg>