<?xml version="1.0" encoding="UTF-8"?>
<svg width="260px" height="216px" viewBox="0 0 260 216" version="1.1" xmlns="http://www.w3.org/2000/svg" xmlns:xlink="http://www.w3.org/1999/xlink" style="background: #FFFFFF;">
    <!-- Generator: Sketch 40.3 (33839) - http://www.bohemiancoding.com/sketch -->
    <title>episode-05 copy</title>
    <desc>Created with Sketch.</desc>
    <defs>
        <rect id="path-1" x="0" y="46.4801146" width="230" height="42.2048986"></rect>
        <mask id="mask-2" maskContentUnits="userSpaceOnUse" maskUnits="objectBoundingBox" x="0" y="0" width="230" height="42.2048986" fill="white">
            <use xlink:href="#path-1"></use>
        </mask>
    </defs>
    <g id="Page-1" stroke="none" stroke-width="1" fill="none" fill-rule="evenodd">
        <g id="episode-05-copy">
            <g id="Group-2" transform="translate(17.000000, 16.000000)">
                <text id="06" font-family="DINCondensed-Bold, DIN Condensed" font-size="261.025352" font-weight="bold" letter-spacing="-0.339643514" fill="#F8E71C">
                    <tspan x="35.5944764" y="186.234076">06</tspan>
                </text>
                <use id="Rectangle-2-Copy-2" stroke="#979797" mask="url(#mask-2)" stroke-width="2.35534595" xlink:href="#path-1"></use>
                <ellipse id="Oval-Copy-5" stroke="#979797" stroke-width="1.17767298" cx="213.106774" cy="26.890385" rx="4.71349708" ry="4.68943318"></ellipse>
            </g>
            <path d="M33.328775,92.0922156 C32.9113229,92.0922156 32.5574015,91.9470171 32.267,91.6566156 C31.9765985,91.3662142 31.8314,91.0122927 31.8314,90.5948406 L31.8314,74.5320906 C31.8314,74.1146385 31.9765985,73.7607171 32.267,73.4703156 C32.5574015,73.1799142 32.9113229,73.0347156 33.328775,73.0347156 C33.7462271,73.0347156 34.104686,73.1799142 34.4041625,73.4703156 C34.703639,73.7607171 34.853375,74.1146385 34.853375,74.5320906 L34.853375,81.0660906 L41.90465,81.0660906 L41.90465,74.5320906 C41.90465,74.1146385 42.0498485,73.7607171 42.34025,73.4703156 C42.6306515,73.1799142 42.9845729,73.0347156 43.402025,73.0347156 C43.8194771,73.0347156 44.177936,73.1799142 44.4774125,73.4703156 C44.776889,73.7607171 44.926625,74.1146385 44.926625,74.5320906 L44.926625,90.5948406 C44.926625,91.0122927 44.776889,91.3662142 44.4774125,91.6566156 C44.177936,91.9470171 43.8194771,92.0922156 43.402025,92.0922156 C42.9845729,92.0922156 42.6306515,91.9470171 42.34025,91.6566156 C42.0498485,91.3662142 41.90465,91.0122927 41.90465,90.5948406 L41.90465,84.0608406 L34.853375,84.0608406 L34.853375,90.5948406 C34.853375,91.0122927 34.703639,91.3662142 34.4041625,91.6566156 C34.104686,91.9470171 33.7462271,92.0922156 33.328775,92.0922156 L33.328775,92.0922156 Z M52.5958751,92.0922156 C52.178423,92.0922156 51.8245015,91.9470171 51.5341001,91.6566156 C51.2436986,91.3662142 51.0985001,91.0122927 51.0985001,90.5948406 L51.0985001,74.5320906 C51.0985001,74.1146385 51.2436986,73.7607171 51.5341001,73.4703156 C51.8245015,73.1799142 52.178423,73.0347156 52.5958751,73.0347156 L61.4984501,73.0347156 C61.8977521,73.0347156 62.2471361,73.1799142 62.5466126,73.4703156 C62.8460891,73.7607171 62.9958251,74.1146385 62.9958251,74.5320906 C62.9958251,74.9495427 62.8460891,75.3080016 62.5466126,75.6074781 C62.2471361,75.9069546 61.8977521,76.0566906 61.4984501,76.0566906 L54.1204751,76.0566906 L54.1204751,81.0388656 L60.4639001,81.0388656 C60.8632021,81.0388656 61.2125861,81.1886016 61.5120626,81.4880781 C61.8115391,81.7875546 61.9612751,82.1414761 61.9612751,82.5498531 C61.9612751,82.9582302 61.8160765,83.3121516 61.5256751,83.6116281 C61.2352736,83.9111046 60.8813522,84.0608406 60.4639001,84.0608406 L54.1204751,84.0608406 L54.1204751,89.0702406 L61.4984501,89.0702406 C61.8977521,89.0702406 62.2471361,89.2199766 62.5466126,89.5194531 C62.8460891,89.8189296 62.9958251,90.1728511 62.9958251,90.5812281 C62.9958251,90.9896052 62.8460891,91.3435266 62.5466126,91.6430031 C62.2471361,91.9424796 61.8977521,92.0922156 61.4984501,92.0922156 L52.6775501,92.0922156 L52.6231001,92.0649906 L52.5958751,92.0922156 Z M76.8996002,83.3529906 C78.1338063,84.2967953 78.7509002,85.6126572 78.7509002,87.3006156 C78.7327501,87.8995686 78.7690497,88.4349883 78.8598002,88.9068906 C79.3317025,89.0520914 79.6493243,89.3651757 79.8126752,89.8461531 C79.976026,90.3271305 79.9034267,90.7763385 79.5948752,91.1937906 C79.2863236,91.6112427 78.8416531,91.8199656 78.2608502,91.8199656 L78.2336252,91.8199656 C77.4168711,91.8199656 76.7725525,91.4025198 76.3006502,90.5676156 C75.9194982,89.7690116 75.7289252,88.6800225 75.7289252,87.3006156 C75.692625,86.4657115 75.3114788,85.812318 74.5854752,85.3404156 C74.1135728,85.0318641 73.6053779,84.8140663 73.0608752,84.6870156 L69.8483252,84.6870156 L69.8483252,90.5948406 C69.8483252,91.0122927 69.6985892,91.3662142 69.3991127,91.6566156 C69.0996362,91.9470171 68.7411772,92.0922156 68.3237252,92.0922156 C67.9062731,92.0922156 67.5523516,91.9470171 67.2619502,91.6566156 C66.9715487,91.3662142 66.8263502,91.0122927 66.8263502,90.5948406 L66.8263502,74.5320906 C66.8263502,74.1146385 66.9715487,73.7607171 67.2619502,73.4703156 C67.5523516,73.1799142 67.9062731,73.0347156 68.3237252,73.0347156 L73.1970002,73.0347156 C74.8123582,73.0347156 76.187207,73.6064349 77.3215877,74.7498906 C78.4559683,75.8933463 79.0231502,77.3181071 79.0231502,79.0242156 C79.0231502,80.7303242 78.3153072,82.1732347 76.8996002,83.3529906 L76.8996002,83.3529906 Z M73.1970002,81.6650406 C73.9774541,81.6650406 74.6399224,81.3927933 75.1844252,80.8482906 C75.7289279,80.3037879 76.0011752,79.645857 76.0011752,78.8744781 C76.0011752,78.1030993 75.7289279,77.4406309 75.1844252,76.8870531 C74.6399224,76.3334754 73.9774541,76.0566906 73.1970002,76.0566906 L69.8483252,76.0566906 L69.8483252,81.6650406 L73.1970002,81.6650406 Z M93.8798002,83.3529906 C95.1140064,84.2967953 95.7311002,85.6126572 95.7311002,87.3006156 C95.7129501,87.8995686 95.7492498,88.4349883 95.8400002,88.9068906 C96.3119026,89.0520914 96.6295244,89.3651757 96.7928752,89.8461531 C96.956226,90.3271305 96.8836268,90.7763385 96.5750752,91.1937906 C96.2665237,91.6112427 95.8218531,91.8199656 95.2410502,91.8199656 L95.2138252,91.8199656 C94.3970711,91.8199656 93.7527526,91.4025198 93.2808502,90.5676156 C92.8996983,89.7690116 92.7091252,88.6800225 92.7091252,87.3006156 C92.6728251,86.4657115 92.2916789,85.812318 91.5656752,85.3404156 C91.0937729,85.0318641 90.585578,84.8140663 90.0410752,84.6870156 L86.8285252,84.6870156 L86.8285252,90.5948406 C86.8285252,91.0122927 86.6787892,91.3662142 86.3793127,91.6566156 C86.0798362,91.9470171 85.7213773,92.0922156 85.3039252,92.0922156 C84.8864731,92.0922156 84.5325517,91.9470171 84.2421502,91.6566156 C83.9517488,91.3662142 83.8065502,91.0122927 83.8065502,90.5948406 L83.8065502,74.5320906 C83.8065502,74.1146385 83.9517488,73.7607171 84.2421502,73.4703156 C84.5325517,73.1799142 84.8864731,73.0347156 85.3039252,73.0347156 L90.1772002,73.0347156 C91.7925583,73.0347156 93.1674071,73.6064349 94.3017877,74.7498906 C95.4361684,75.8933463 96.0033502,77.3181071 96.0033502,79.0242156 C96.0033502,80.7303242 95.2955073,82.1732347 93.8798002,83.3529906 L93.8798002,83.3529906 Z M90.1772002,81.6650406 C90.9576541,81.6650406 91.6201225,81.3927933 92.1646252,80.8482906 C92.709128,80.3037879 92.9813752,79.645857 92.9813752,78.8744781 C92.9813752,78.1030993 92.709128,77.4406309 92.1646252,76.8870531 C91.6201225,76.3334754 90.9576541,76.0566906 90.1772002,76.0566906 L86.8285252,76.0566906 L86.8285252,81.6650406 L90.1772002,81.6650406 Z M112.22125,91.1393406 L110.887225,87.6000906 L104.27155,87.6000906 L102.937525,91.1393406 C102.683424,91.7745938 102.243291,92.0922156 101.617113,92.0922156 C100.990935,92.0922156 100.541727,91.8698803 100.269475,91.4252031 C99.9972239,90.9805259 99.9427745,90.522243 100.106125,90.0503406 L106.12285,74.0148156 C106.249901,73.7244142 106.445011,73.4884665 106.708188,73.3069656 C106.971364,73.1254647 107.257224,73.0437905 107.565775,73.0619406 C108.255479,73.0256404 108.736449,73.3432623 109.0087,74.0148156 L115.025425,90.0503406 C115.188776,90.522243 115.134327,90.9805259 114.862075,91.4252031 C114.589824,91.8698803 114.140616,92.0922156 113.514438,92.0922156 C112.88826,92.0922156 112.457201,91.7745938 112.22125,91.1393406 L112.22125,91.1393406 Z M105.36055,84.6053406 L109.771,84.6053406 L107.565775,78.7519656 L105.36055,84.6053406 Z M126.941775,85.2042906 L126.887325,85.2042906 C126.360973,85.2042906 125.943527,84.9955677 125.634975,84.5781156 L121.7418,79.1331156 L121.7418,90.5948406 C121.7418,91.0122927 121.592064,91.3662142 121.292588,91.6566156 C120.993111,91.9470171 120.634652,92.0922156 120.2172,92.0922156 C119.799748,92.0922156 119.445827,91.9470171 119.155425,91.6566156 C118.865024,91.3662142 118.719825,91.0122927 118.719825,90.5948406 L118.719825,74.5320906 C118.719825,74.1146385 118.865024,73.7607171 119.155425,73.4703156 C119.445827,73.1799142 119.799748,73.0347156 120.2172,73.0347156 L120.298875,73.0347156 C120.825228,73.0347156 121.224524,73.2434385 121.496775,73.6608906 L126.91455,81.1749906 L132.332325,73.6608906 C132.640877,73.2434385 133.049248,73.0347156 133.55745,73.0347156 L133.584675,73.0347156 C134.002127,73.0528657 134.360586,73.2071392 134.660063,73.4975406 C134.959539,73.7879421 135.109275,74.1327886 135.109275,74.5320906 L135.109275,90.5948406 C135.109275,90.9941426 134.959539,91.3435266 134.660063,91.6430031 C134.360586,91.9424796 134.002127,92.0922156 133.584675,92.0922156 C133.167223,92.0922156 132.813302,91.9470171 132.5229,91.6566156 C132.232499,91.3662142 132.0873,91.0122927 132.0873,90.5948406 L132.0873,79.1331156 L128.1669,84.5781156 C127.858349,84.9955677 127.449978,85.2042906 126.941775,85.2042906 L126.941775,85.2042906 Z M141.852875,74.5320906 C141.852875,74.1146385 141.998074,73.7607171 142.288475,73.4703156 C142.578877,73.1799142 142.932798,73.0347156 143.35025,73.0347156 C143.767703,73.0347156 144.126161,73.1799142 144.425638,73.4703156 C144.725114,73.7607171 144.87485,74.1146385 144.87485,74.5320906 L144.87485,90.5948406 C144.87485,91.0122927 144.725114,91.3662142 144.425638,91.6566156 C144.126161,91.9470171 143.767703,92.0922156 143.35025,92.0922156 C142.932798,92.0922156 142.578877,91.9470171 142.288475,91.6566156 C141.998074,91.3662142 141.852875,91.0122927 141.852875,90.5948406 L141.852875,74.5320906 Z M151.427876,92.0922156 C151.010423,92.0922156 150.656502,91.9470171 150.366101,91.6566156 C150.075699,91.3662142 149.930501,91.0122927 149.930501,90.5948406 L149.930501,74.5320906 C149.930501,74.1146385 150.075699,73.7607171 150.366101,73.4703156 C150.656502,73.1799142 151.010423,73.0347156 151.427876,73.0347156 L160.330451,73.0347156 C160.729753,73.0347156 161.079137,73.1799142 161.378613,73.4703156 C161.67809,73.7607171 161.827826,74.1146385 161.827826,74.5320906 C161.827826,74.9495427 161.67809,75.3080016 161.378613,75.6074781 C161.079137,75.9069546 160.729753,76.0566906 160.330451,76.0566906 L152.952476,76.0566906 L152.952476,81.0388656 L159.295901,81.0388656 C159.695203,81.0388656 160.044587,81.1886016 160.344063,81.4880781 C160.64354,81.7875546 160.793276,82.1414761 160.793276,82.5498531 C160.793276,82.9582302 160.648077,83.3121516 160.357676,83.6116281 C160.067274,83.9111046 159.713353,84.0608406 159.295901,84.0608406 L152.952476,84.0608406 L152.952476,89.0702406 L160.330451,89.0702406 C160.729753,89.0702406 161.079137,89.2199766 161.378613,89.5194531 C161.67809,89.8189296 161.827826,90.1728511 161.827826,90.5812281 C161.827826,90.9896052 161.67809,91.3435266 161.378613,91.6430031 C161.079137,91.9424796 160.729753,92.0922156 160.330451,92.0922156 L151.509551,92.0922156 L151.455101,92.0649906 L151.427876,92.0922156 Z M169.034251,79.2964656 L169.034251,90.5948406 C169.034251,90.9941426 168.889052,91.3435266 168.598651,91.6430031 C168.308249,91.9424796 167.958865,92.0922156 167.550488,92.0922156 C167.142111,92.0922156 166.792727,91.9470171 166.502326,91.6566156 C166.211924,91.3662142 166.066726,91.0122927 166.066726,90.5948406 L166.066726,74.7498906 C166.030425,74.223538 166.207386,73.824242 166.597613,73.5519906 C166.98784,73.2797393 167.382599,73.1753778 167.781901,73.2389031 C168.181203,73.3024284 168.498824,73.497539 168.734776,73.8242406 L177.528451,85.9938156 L177.528451,74.7771156 C177.528451,74.3778136 177.673649,74.0329671 177.964051,73.7425656 C178.254452,73.4521642 178.599299,73.3069656 178.998601,73.3069656 C179.397903,73.3069656 179.747287,73.4521642 180.046763,73.7425656 C180.34624,74.0329671 180.495976,74.3778136 180.495976,74.7771156 L180.495976,90.5948406 C180.495976,91.0122927 180.34624,91.3662142 180.046763,91.6566156 C179.747287,91.9470171 179.388828,92.0922156 178.971376,92.0922156 C178.553924,92.0922156 178.190927,91.9107174 177.882376,91.5477156 C177.809775,91.4751153 177.764401,91.4206658 177.746251,91.3843656 L169.034251,79.2964656 Z M200.144226,74.5320906 C200.144226,74.9495427 199.99449,75.3080016 199.695013,75.6074781 C199.395537,75.9069546 199.046153,76.0566906 198.646851,76.0566906 L194.318076,76.0566906 L194.318076,90.5948406 C194.318076,91.0122927 194.172877,91.3662142 193.882476,91.6566156 C193.592074,91.9470171 193.238153,92.0922156 192.820701,92.0922156 C192.403249,92.0922156 192.049327,91.9470171 191.758926,91.6566156 C191.468524,91.3662142 191.323326,91.0122927 191.323326,90.5948406 L191.323326,76.0566906 L187.021776,76.0566906 C186.604324,76.0566906 186.250402,75.9069546 185.960001,75.6074781 C185.669599,75.3080016 185.524401,74.9495427 185.524401,74.5320906 C185.524401,74.1146385 185.669599,73.7607171 185.960001,73.4703156 C186.250402,73.1799142 186.604324,73.0347156 187.021776,73.0347156 L198.646851,73.0347156 C199.064303,73.0347156 199.418224,73.1799142 199.708626,73.4703156 C199.999027,73.7607171 200.144226,74.1146385 200.144226,74.5320906 L200.144226,74.5320906 Z M215.654276,91.1393406 L214.320251,87.6000906 L207.704576,87.6000906 L206.370551,91.1393406 C206.11645,91.7745938 205.676316,92.0922156 205.050138,92.0922156 C204.42396,92.0922156 203.974752,91.8698803 203.702501,91.4252031 C203.430249,90.9805259 203.3758,90.522243 203.539151,90.0503406 L209.555876,74.0148156 C209.682926,73.7244142 209.878037,73.4884665 210.141213,73.3069656 C210.40439,73.1254647 210.690249,73.0437905 210.998801,73.0619406 C211.688504,73.0256404 212.169474,73.3432623 212.441726,74.0148156 L218.458451,90.0503406 C218.621802,90.522243 218.567352,90.9805259 218.295101,91.4252031 C218.022849,91.8698803 217.573641,92.0922156 216.947463,92.0922156 C216.321285,92.0922156 215.890227,91.7745938 215.654276,91.1393406 L215.654276,91.1393406 Z M208.793576,84.6053406 L213.204026,84.6053406 L210.998801,78.7519656 L208.793576,84.6053406 Z M233.315101,86.2932906 C233.315101,84.9138837 231.717917,83.9247186 228.523501,83.3257656 L228.469051,83.3257656 C227.053344,83.0535143 225.828231,82.6723681 224.793676,82.1823156 C223.759121,81.6922632 223.001366,81.061557 222.520388,80.2901781 C222.039411,79.5187993 221.798926,78.7247447 221.798926,77.9079906 C221.798926,76.3289327 222.493156,75.0312207 223.881638,74.0148156 C225.27012,72.9984105 226.871842,72.4902156 228.686851,72.4902156 C229.485455,72.4902156 230.302197,72.6263393 231.137101,72.8985906 C231.972005,73.170842 232.593636,73.4249394 233.002013,73.6608906 C233.41039,73.8968418 233.950347,74.2326134 234.621901,74.6682156 C234.930452,74.8860167 235.125563,75.1854887 235.207238,75.5666406 C235.288914,75.9477925 235.225389,76.2971765 235.016663,76.6148031 C234.807937,76.9324297 234.513003,77.1320777 234.131851,77.2137531 C233.750699,77.2954285 233.396777,77.2273667 233.070076,77.0095656 C232.217022,76.4287627 231.459267,75.9931671 230.796788,75.7027656 C230.13431,75.4123642 229.431005,75.2671656 228.686851,75.2671656 C227.488945,75.2671656 226.508855,75.5484878 225.746551,76.1111406 C224.984247,76.6737934 224.603101,77.2727374 224.603101,77.9079906 C224.603101,78.2165422 224.6757,78.4797145 224.820901,78.6975156 C225.329103,79.5324198 226.699415,80.1585885 228.931876,80.5760406 L228.986326,80.5760406 C230.510933,80.8845922 231.763271,81.2657384 232.743376,81.7194906 C234.993987,82.8266462 236.119276,84.3512309 236.119276,86.2932906 C236.119276,87.9812491 235.375133,89.3651727 233.886826,90.4451031 C232.398518,91.5250335 230.683361,92.0649906 228.741301,92.0649906 C226.363639,92.0468405 224.040462,91.1393496 221.771701,89.3424906 C221.481299,89.1065394 221.313414,88.7889176 221.268038,88.3896156 C221.222663,87.9903136 221.31795,87.6454671 221.553901,87.3550656 C221.789852,87.0646642 222.107474,86.8967784 222.506776,86.8514031 C222.906078,86.8060279 223.250924,86.9103894 223.541326,87.1644906 C225.283735,88.5801977 227.017042,89.2789657 228.741301,89.2608156 C230.102558,89.2608156 231.205159,88.9477313 232.049138,88.3215531 C232.893118,87.695375 233.315101,87.0192943 233.315101,86.2932906 L233.315101,86.2932906 Z M31.8314,130.687056 L31.8314,114.624306 C31.8314,114.206854 31.9765985,113.852933 32.267,113.562531 C32.5574015,113.27213 32.9113229,113.126931 33.328775,113.126931 L36.541325,113.126931 C39.1730882,113.126931 41.4145907,114.057109 43.2659,115.917494 C45.1172093,117.777878 46.04285,120.023918 46.04285,122.655681 C46.04285,125.287444 45.1172093,127.533484 43.2659,129.393869 C41.4145907,131.254253 39.1730882,132.184431 36.541325,132.184431 L33.328775,132.184431 C32.9113229,132.184431 32.5574015,132.039233 32.267,131.748831 C31.9765985,131.45843 31.8314,131.104508 31.8314,130.687056 L31.8314,130.687056 Z M34.853375,116.148906 L34.853375,129.162456 L36.541325,129.162456 C38.338184,129.144306 39.8673062,128.504525 41.1287375,127.243094 C42.3901688,125.981662 43.020875,124.45254 43.020875,122.655681 C43.020875,120.858822 42.3901688,119.325163 41.1287375,118.054656 C39.8673062,116.78415 38.338184,116.148906 36.541325,116.148906 L34.853375,116.148906 Z M52.8681251,132.184431 C52.450673,132.184431 52.0967515,132.039233 51.8063501,131.748831 C51.5159486,131.45843 51.3707501,131.104508 51.3707501,130.687056 L51.3707501,114.624306 C51.3707501,114.206854 51.5159486,113.852933 51.8063501,113.562531 C52.0967515,113.27213 52.450673,113.126931 52.8681251,113.126931 L61.7707001,113.126931 C62.1700021,113.126931 62.5193861,113.27213 62.8188626,113.562531 C63.1183391,113.852933 63.2680751,114.206854 63.2680751,114.624306 C63.2680751,115.041758 63.1183391,115.400217 62.8188626,115.699694 C62.5193861,115.99917 62.1700021,116.148906 61.7707001,116.148906 L54.3927251,116.148906 L54.3927251,121.131081 L60.7361501,121.131081 C61.1354521,121.131081 61.4848361,121.280817 61.7843126,121.580294 C62.0837891,121.87977 62.2335251,122.233692 62.2335251,122.642069 C62.2335251,123.050446 62.0883265,123.404367 61.7979251,123.703844 C61.5075236,124.00332 61.1536022,124.153056 60.7361501,124.153056 L54.3927251,124.153056 L54.3927251,129.162456 L61.7707001,129.162456 C62.1700021,129.162456 62.5193861,129.312192 62.8188626,129.611669 C63.1183391,129.911145 63.2680751,130.265067 63.2680751,130.673444 C63.2680751,131.081821 63.1183391,131.435742 62.8188626,131.735219 C62.5193861,132.034695 62.1700021,132.184431 61.7707001,132.184431 L52.9498001,132.184431 L52.8953501,132.157206 L52.8681251,132.184431 Z M42.34025,154.934322 C43.4837057,156.077778 44.055425,157.452626 44.055425,159.058909 C44.055425,160.665192 43.4837057,162.035504 42.34025,163.169884 C41.1967943,164.304265 39.8174081,164.871447 38.20205,164.871447 L34.853375,164.871447 L34.853375,170.779272 C34.853375,171.196724 34.703639,171.550645 34.4041625,171.841047 C34.104686,172.131448 33.7462271,172.276647 33.328775,172.276647 C32.9113229,172.276647 32.5574015,172.131448 32.267,171.841047 C31.9765985,171.550645 31.8314,171.196724 31.8314,170.779272 L31.8314,154.716522 C31.8314,154.29907 31.9765985,153.945148 32.267,153.654747 C32.5574015,153.364345 32.9113229,153.219147 33.328775,153.219147 L38.20205,153.219147 C39.8174081,153.219147 41.1967943,153.790866 42.34025,154.934322 L42.34025,154.934322 Z M34.853375,156.241122 L34.853375,161.849472 L38.20205,161.849472 C38.9825039,161.849472 39.6449723,161.577225 40.189475,161.032722 C40.7339777,160.488219 41.0152999,159.834826 41.03345,159.072522 C41.0152999,158.273918 40.7339777,157.602375 40.189475,157.057872 C39.6449723,156.513369 38.9825039,156.241122 38.20205,156.241122 L34.853375,156.241122 Z M57.3602501,163.537422 C58.5944562,164.481227 59.2115501,165.797088 59.2115501,167.485047 C59.1934,168.084 59.2296996,168.61942 59.3204501,169.091322 C59.7923524,169.236523 60.1099743,169.549607 60.2733251,170.030584 C60.4366759,170.511562 60.3640766,170.96077 60.0555251,171.378222 C59.7469735,171.795674 59.302303,172.004397 58.7215001,172.004397 L58.6942751,172.004397 C57.877521,172.004397 57.2332024,171.586951 56.7613001,170.752047 C56.3801482,169.953443 56.1895751,168.864454 56.1895751,167.485047 C56.1532749,166.650143 55.7721287,165.996749 55.0461251,165.524847 C54.5742227,165.216295 54.0660278,164.998498 53.5215251,164.871447 L50.3089751,164.871447 L50.3089751,170.779272 C50.3089751,171.196724 50.1592391,171.550645 49.8597626,171.841047 C49.5602861,172.131448 49.2018272,172.276647 48.7843751,172.276647 C48.366923,172.276647 48.0130015,172.131448 47.7226001,171.841047 C47.4321986,171.550645 47.2870001,171.196724 47.2870001,170.779272 L47.2870001,154.716522 C47.2870001,154.29907 47.4321986,153.945148 47.7226001,153.654747 C48.0130015,153.364345 48.366923,153.219147 48.7843751,153.219147 L53.6576501,153.219147 C55.2730082,153.219147 56.6478569,153.790866 57.7822376,154.934322 C58.9166182,156.077778 59.4838001,157.502538 59.4838001,159.208647 C59.4838001,160.914755 58.7759572,162.357666 57.3602501,163.537422 L57.3602501,163.537422 Z M53.6576501,161.849472 C54.438104,161.849472 55.1005724,161.577225 55.6450751,161.032722 C56.1895778,160.488219 56.4618251,159.830288 56.4618251,159.058909 C56.4618251,158.287531 56.1895778,157.625062 55.6450751,157.071484 C55.1005724,156.517907 54.438104,156.241122 53.6576501,156.241122 L50.3089751,156.241122 L50.3089751,161.849472 L53.6576501,161.849472 Z M63.8043752,162.475647 C63.8043752,159.789433 64.7073286,157.484406 66.5132627,155.560497 C68.3191967,153.636587 70.5198622,152.674647 73.1153252,152.674647 C75.7107881,152.674647 77.9114536,153.6502 79.7173877,155.601334 C81.5233217,157.552469 82.4262752,159.852959 82.4262752,162.502872 C82.4262752,165.152785 81.5097093,167.439662 79.6765502,169.363572 C78.8597961,170.271076 77.8797059,170.983457 76.7362502,171.500734 C75.5927944,172.018012 74.4039813,172.276647 73.1697752,172.276647 C70.538012,172.276647 68.3191967,171.314706 66.5132627,169.390797 C64.7073286,167.466887 63.8043752,165.16186 63.8043752,162.475647 L63.8043752,162.475647 Z M68.7321002,167.199184 C69.9481562,168.515066 71.4137541,169.172997 73.1289377,169.172997 C74.8441212,169.172997 76.3051816,168.505991 77.5121627,167.171959 C78.7191437,165.837928 79.3226252,164.272506 79.3226252,162.475647 C79.3226252,160.678788 78.7236811,159.113366 77.5257752,157.779334 C76.3278692,156.445303 74.8622713,155.778297 73.1289377,155.778297 C71.395604,155.778297 69.9254687,156.436228 68.7184877,157.752109 C67.5115066,159.067991 66.9080252,160.642488 66.9080252,162.475647 C66.9080252,164.308806 67.5160441,165.883303 68.7321002,167.199184 L68.7321002,167.199184 Z M100.90385,154.716522 C100.90385,155.133974 100.754114,155.492433 100.454638,155.791909 C100.155161,156.091386 99.8057772,156.241122 99.4064752,156.241122 L95.0777002,156.241122 L95.0777002,170.779272 C95.0777002,171.196724 94.9325017,171.550645 94.6421002,171.841047 C94.3516988,172.131448 93.9977773,172.276647 93.5803252,172.276647 C93.1628731,172.276647 92.8089517,172.131448 92.5185502,171.841047 C92.2281488,171.550645 92.0829502,171.196724 92.0829502,170.779272 L92.0829502,156.241122 L87.7814002,156.241122 C87.3639481,156.241122 87.0100267,156.091386 86.7196252,155.791909 C86.4292238,155.492433 86.2840252,155.133974 86.2840252,154.716522 C86.2840252,154.29907 86.4292238,153.945148 86.7196252,153.654747 C87.0100267,153.364345 87.3639481,153.219147 87.7814002,153.219147 L99.4064752,153.219147 C99.8239273,153.219147 100.177849,153.364345 100.46825,153.654747 C100.758652,153.945148 100.90385,154.29907 100.90385,154.716522 L100.90385,154.716522 Z M104.516575,162.475647 C104.516575,159.789433 105.419529,157.484406 107.225463,155.560497 C109.031397,153.636587 111.232062,152.674647 113.827525,152.674647 C116.422988,152.674647 118.623654,153.6502 120.429588,155.601334 C122.235522,157.552469 123.138475,159.852959 123.138475,162.502872 C123.138475,165.152785 122.221909,167.439662 120.38875,169.363572 C119.571996,170.271076 118.591906,170.983457 117.44845,171.500734 C116.304995,172.018012 115.116181,172.276647 113.881975,172.276647 C111.250212,172.276647 109.031397,171.314706 107.225463,169.390797 C105.419529,167.466887 104.516575,165.16186 104.516575,162.475647 L104.516575,162.475647 Z M109.4443,167.199184 C110.660356,168.515066 112.125954,169.172997 113.841138,169.172997 C115.556321,169.172997 117.017382,168.505991 118.224363,167.171959 C119.431344,165.837928 120.034825,164.272506 120.034825,162.475647 C120.034825,160.678788 119.435881,159.113366 118.237975,157.779334 C117.040069,156.445303 115.574471,155.778297 113.841138,155.778297 C112.107804,155.778297 110.637669,156.436228 109.430688,157.752109 C108.223707,159.067991 107.620225,160.642488 107.620225,162.475647 C107.620225,164.308806 108.228244,165.883303 109.4443,167.199184 L109.4443,167.199184 Z M141.61605,154.716522 C141.61605,155.133974 141.466314,155.492433 141.166838,155.791909 C140.867361,156.091386 140.517977,156.241122 140.118675,156.241122 L135.7899,156.241122 L135.7899,170.779272 C135.7899,171.196724 135.644702,171.550645 135.3543,171.841047 C135.063899,172.131448 134.709977,172.276647 134.292525,172.276647 C133.875073,172.276647 133.521152,172.131448 133.23075,171.841047 C132.940349,171.550645 132.79515,171.196724 132.79515,170.779272 L132.79515,156.241122 L128.4936,156.241122 C128.076148,156.241122 127.722227,156.091386 127.431825,155.791909 C127.141424,155.492433 126.996225,155.133974 126.996225,154.716522 C126.996225,154.29907 127.141424,153.945148 127.431825,153.654747 C127.722227,153.364345 128.076148,153.219147 128.4936,153.219147 L140.118675,153.219147 C140.536127,153.219147 140.890049,153.364345 141.18045,153.654747 C141.470852,153.945148 141.61605,154.29907 141.61605,154.716522 L141.61605,154.716522 Z M146.263325,154.716522 C146.263325,154.29907 146.408524,153.945148 146.698925,153.654747 C146.989327,153.364345 147.343248,153.219147 147.7607,153.219147 C148.178153,153.219147 148.536611,153.364345 148.836088,153.654747 C149.135564,153.945148 149.2853,154.29907 149.2853,154.716522 L149.2853,170.779272 C149.2853,171.196724 149.135564,171.550645 148.836088,171.841047 C148.536611,172.131448 148.178153,172.276647 147.7607,172.276647 C147.343248,172.276647 146.989327,172.131448 146.698925,171.841047 C146.408524,171.550645 146.263325,171.196724 146.263325,170.779272 L146.263325,154.716522 Z M164.849801,154.934322 C165.993256,156.077778 166.564976,157.452626 166.564976,159.058909 C166.564976,160.665192 165.993256,162.035504 164.849801,163.169884 C163.706345,164.304265 162.326959,164.871447 160.711601,164.871447 L157.362926,164.871447 L157.362926,170.779272 C157.362926,171.196724 157.21319,171.550645 156.913713,171.841047 C156.614237,172.131448 156.255778,172.276647 155.838326,172.276647 C155.420873,172.276647 155.066952,172.131448 154.776551,171.841047 C154.486149,171.550645 154.340951,171.196724 154.340951,170.779272 L154.340951,154.716522 C154.340951,154.29907 154.486149,153.945148 154.776551,153.654747 C155.066952,153.364345 155.420873,153.219147 155.838326,153.219147 L160.711601,153.219147 C162.326959,153.219147 163.706345,153.790866 164.849801,154.934322 L164.849801,154.934322 Z M157.362926,156.241122 L157.362926,161.849472 L160.711601,161.849472 C161.492054,161.849472 162.154523,161.577225 162.699026,161.032722 C163.243528,160.488219 163.52485,159.834826 163.543001,159.072522 C163.52485,158.273918 163.243528,157.602375 162.699026,157.057872 C162.154523,156.513369 161.492054,156.241122 160.711601,156.241122 L157.362926,156.241122 Z M181.231051,171.323772 L179.897026,167.784522 L173.281351,167.784522 L171.947326,171.323772 C171.693224,171.959025 171.253091,172.276647 170.626913,172.276647 C170.000735,172.276647 169.551527,172.054312 169.279276,171.609634 C169.007024,171.164957 168.952575,170.706674 169.115926,170.234772 L175.132651,154.199247 C175.259701,153.908845 175.454812,153.672898 175.717988,153.491397 C175.981164,153.309896 176.267024,153.228222 176.575576,153.246372 C177.265279,153.210072 177.746249,153.527694 178.018501,154.199247 L184.035226,170.234772 C184.198576,170.706674 184.144127,171.164957 183.871876,171.609634 C183.599624,172.054312 183.150416,172.276647 182.524238,172.276647 C181.89806,172.276647 181.467002,171.959025 181.231051,171.323772 L181.231051,171.323772 Z M174.370351,164.789772 L178.780801,164.789772 L176.575576,158.936397 L174.370351,164.789772 Z M187.729626,170.779272 L187.729626,154.716522 C187.729626,154.29907 187.874824,153.945148 188.165226,153.654747 C188.455627,153.364345 188.809549,153.219147 189.227001,153.219147 L192.439551,153.219147 C195.071314,153.219147 197.312816,154.149325 199.164126,156.009709 C201.015435,157.870094 201.941076,160.116134 201.941076,162.747897 C201.941076,165.37966 201.015435,167.6257 199.164126,169.486084 C197.312816,171.346469 195.071314,172.276647 192.439551,172.276647 L189.227001,172.276647 C188.809549,172.276647 188.455627,172.131448 188.165226,171.841047 C187.874824,171.550645 187.729626,171.196724 187.729626,170.779272 L187.729626,170.779272 Z M190.751601,156.241122 L190.751601,169.254672 L192.439551,169.254672 C194.23641,169.236522 195.765532,168.596741 197.026963,167.335309 C198.288395,166.073878 198.919101,164.544756 198.919101,162.747897 C198.919101,160.951038 198.288395,159.417378 197.026963,158.146872 C195.765532,156.876366 194.23641,156.241122 192.439551,156.241122 L190.751601,156.241122 Z M206.425001,162.475647 C206.425001,159.789433 207.327954,157.484406 209.133888,155.560497 C210.939822,153.636587 213.140488,152.674647 215.735951,152.674647 C218.331414,152.674647 220.532079,153.6502 222.338013,155.601334 C224.143947,157.552469 225.046901,159.852959 225.046901,162.502872 C225.046901,165.152785 224.130335,167.439662 222.297176,169.363572 C221.480422,170.271076 220.500331,170.983457 219.356876,171.500734 C218.21342,172.018012 217.024607,172.276647 215.790401,172.276647 C213.158638,172.276647 210.939822,171.314706 209.133888,169.390797 C207.327954,167.466887 206.425001,165.16186 206.425001,162.475647 L206.425001,162.475647 Z M211.352726,167.199184 C212.568782,168.515066 214.03438,169.172997 215.749563,169.172997 C217.464747,169.172997 218.925807,168.505991 220.132788,167.171959 C221.339769,165.837928 221.943251,164.272506 221.943251,162.475647 C221.943251,160.678788 221.344307,159.113366 220.146401,157.779334 C218.948495,156.445303 217.482897,155.778297 215.749563,155.778297 C214.01623,155.778297 212.546094,156.436228 211.339113,157.752109 C210.132132,159.067991 209.528651,160.642488 209.528651,162.475647 C209.528651,164.308806 210.13667,165.883303 211.352726,167.199184 L211.352726,167.199184 Z" id="HERRAMIENTAS-DE-PROT" fill="#4A4A4A"></path>
            <path d="M18.5,30.5 L32.0092561,44.0092561" id="Line" stroke="#979797" stroke-linecap="square"></path>
        </g>
    </g>
</svg>