<?xml version="1.0" encoding="UTF-8"?>
<svg width="260px" height="216px" viewBox="0 0 260 216" version="1.1" xmlns="http://www.w3.org/2000/svg" xmlns:xlink="http://www.w3.org/1999/xlink" style="background: #FFFFFF;">
    <!-- Generator: Sketch 41.2 (35397) - http://www.bohemiancoding.com/sketch -->
    <title>episode-12</title>
    <desc>Created with Sketch.</desc>
    <defs>
        <rect id="path-1" x="0" y="72.4801146" width="193.25338" height="42.2048986"></rect>
        <mask id="mask-2" maskContentUnits="userSpaceOnUse" maskUnits="objectBoundingBox" x="0" y="0" width="193.25338" height="42.2048986" fill="white">
            <use xlink:href="#path-1"></use>
        </mask>
        <rect id="path-3" x="193.25338" y="16.387329" width="25.9242339" height="21.1024493"></rect>
        <mask id="mask-4" maskContentUnits="userSpaceOnUse" maskUnits="objectBoundingBox" x="0" y="0" width="25.9242339" height="21.1024493" fill="white">
            <use xlink:href="#path-3"></use>
        </mask>
    </defs>
    <g id="Page-1" stroke="none" stroke-width="1" fill="none" fill-rule="evenodd">
        <g id="episode-12">
            <g id="Group-2" transform="translate(20.000000, 14.000000)">
                <path d="M73.053406,30.5747635 L46.4288201,50.1516649 L46.4288201,21.9609269 L73.053406,2.38402549 L99.6779919,2.38402549 L99.6779919,188.234076 L73.053406,188.234076 L73.053406,30.5747635 Z M138.231126,163.175642 L186.259791,72.5998452 C188.696039,68.0753831 190.088161,64.1165382 190.436196,60.7231917 C190.784232,57.3298451 190.958247,53.1099775 190.958247,48.0634621 C190.958247,45.8012311 190.871239,43.4085226 190.697222,40.8852649 C190.523204,38.3620072 190.044662,36.1433139 189.261582,34.2291184 C188.478502,32.314923 187.216892,30.7052827 185.476715,29.4001494 C183.736537,28.0950161 181.213317,27.4424593 177.906979,27.4424593 C173.904571,27.4424593 170.728794,28.5735578 168.379554,30.8357889 C166.030314,33.0980199 164.855712,36.404308 164.855712,40.7547523 L164.855712,55.8942227 L138.231126,55.8942227 L138.231126,41.276803 C138.231126,35.7082343 139.275217,30.4877794 141.36343,25.6152818 C143.451643,20.7427842 146.27939,16.4794128 149.846754,12.8250396 C153.414118,9.17066637 157.633986,6.25591242 162.506484,4.08069028 C167.378981,1.90546813 172.599436,0.817873377 178.168005,0.817873377 C185.128716,0.817873377 191.088735,2.0794833 196.048241,4.60274098 C201.007748,7.12599867 205.097104,10.5627981 208.316433,14.9132424 C211.535762,19.2636867 213.884966,24.2231188 215.364117,29.7916875 C216.843268,35.3602561 217.582833,41.2767716 217.582833,47.5414114 C217.582833,52.0658735 217.495825,55.8507032 217.321808,58.8960142 C217.14779,61.9413252 216.799759,64.8560792 216.277706,67.6403635 C215.755653,70.4246479 214.885577,73.2088904 213.667453,75.9931748 C212.449328,78.7774591 210.796184,82.1707548 208.707971,86.1731635 L169.554168,161.60949 L217.582833,161.60949 L217.582833,188.234076 L138.231126,188.234076 L138.231126,163.175642 Z" id="12" fill="#50E3C2"></path>
                <path d="M82.4861989,187.769982 C74.4767378,187.769982 74.4767378,179.433212 66.4661153,179.433212 C58.4531703,179.433212 58.4531703,187.769982 50.4402253,187.769982 C42.4307641,187.769982 42.4307641,179.433212 34.4189804,179.433212 C26.4037127,179.433212 26.4037127,187.769982 18.3884451,187.769982 C10.3720162,187.769982 10.3720162,179.433212 2.35674854,179.433212" id="Page-1-Copy" stroke="#5D3799" stroke-width="1.17767298" stroke-linecap="round"></path>
                <use id="Rectangle-2-Copy-2" stroke="#979797" mask="url(#mask-2)" stroke-width="2.35534595" xlink:href="#path-1"></use>
                <use id="Rectangle-2-Copy-3" stroke="#979797" mask="url(#mask-4)" stroke-width="2.35534595" xlink:href="#path-3"></use>
                <ellipse id="Oval-Copy-5" stroke="#979797" stroke-width="1.17767298" cx="5.10677439" cy="42.890385" rx="4.71349708" ry="4.68943318"></ellipse>
            </g>
            <path d="M40.28,117.02 L38.908,113.38 L32.104,113.38 L30.732,117.02 C30.4706654,117.673337 30.0180032,118 29.374,118 C28.7299968,118 28.2680014,117.771336 27.988,117.314 C27.7079986,116.856664 27.6519992,116.385336 27.82,115.9 L34.008,99.408 C34.1386673,99.1093318 34.339332,98.8666676 34.61,98.68 C34.880668,98.4933324 35.1746651,98.4093332 35.492,98.428 C36.2013369,98.3906665 36.6959986,98.7173299 36.976,99.408 L43.164,115.9 C43.3320008,116.385336 43.2760014,116.856664 42.996,117.314 C42.7159986,117.771336 42.2540032,118 41.61,118 C40.9659968,118 40.5226679,117.673337 40.28,117.02 Z M33.224,110.3 L37.76,110.3 L35.492,104.28 L33.224,110.3 Z M48.5035667,118 C48.0742312,118 47.7102348,117.850668 47.4115667,117.552 C47.1128985,117.253332 46.9635667,116.889335 46.9635667,116.46 L46.9635667,99.94 C46.9635667,99.5106645 47.1128985,99.1466682 47.4115667,98.848 C47.7102348,98.5493318 48.0742312,98.4 48.5035667,98.4 L57.6595667,98.4 C58.0702354,98.4 58.4295651,98.5493318 58.7375667,98.848 C59.0455682,99.1466682 59.1995667,99.5106645 59.1995667,99.94 C59.1995667,100.369335 59.0455682,100.737998 58.7375667,101.046 C58.4295651,101.354002 58.0702354,101.508 57.6595667,101.508 L50.0715667,101.508 L50.0715667,106.632 L56.5955667,106.632 C57.0062354,106.632 57.3655651,106.785998 57.6735667,107.094 C57.9815682,107.402002 58.1355667,107.765998 58.1355667,108.186 C58.1355667,108.606002 57.9862348,108.969998 57.6875667,109.278 C57.3888985,109.586002 57.0249021,109.74 56.5955667,109.74 L50.0715667,109.74 L50.0715667,114.892 L57.6595667,114.892 C58.0702354,114.892 58.4295651,115.045998 58.7375667,115.354 C59.0455682,115.662002 59.1995667,116.025998 59.1995667,116.446 C59.1995667,116.866002 59.0455682,117.229998 58.7375667,117.538 C58.4295651,117.846002 58.0702354,118 57.6595667,118 L48.5875667,118 L48.5315667,117.972 L48.5035667,118 Z M73.4991333,109.012 C74.768473,109.982672 75.4031333,111.335991 75.4031333,113.072 C75.3844666,113.688003 75.4217995,114.238664 75.5151333,114.724 C76.0004691,114.873334 76.3271325,115.195331 76.4951333,115.69 C76.6631342,116.184669 76.5884682,116.646665 76.2711333,117.076 C75.9537984,117.505335 75.4964696,117.72 74.8991333,117.72 L74.8711333,117.72 C74.0311291,117.72 73.3684691,117.290671 72.8831333,116.432 C72.4911314,115.610663 72.2951333,114.490674 72.2951333,113.072 C72.2577998,112.213329 71.8658037,111.541336 71.1191333,111.056 C70.6337976,110.738665 70.1111361,110.514667 69.5511333,110.384 L66.2471333,110.384 L66.2471333,116.46 C66.2471333,116.889335 66.0931349,117.253332 65.7851333,117.552 C65.4771318,117.850668 65.1084688,118 64.6791333,118 C64.2497978,118 63.8858015,117.850668 63.5871333,117.552 C63.2884652,117.253332 63.1391333,116.889335 63.1391333,116.46 L63.1391333,99.94 C63.1391333,99.5106645 63.2884652,99.1466682 63.5871333,98.848 C63.8858015,98.5493318 64.2497978,98.4 64.6791333,98.4 L69.6911333,98.4 C71.352475,98.4 72.7664608,98.9879941 73.9331333,100.164 C75.0998058,101.340006 75.6831333,102.805325 75.6831333,104.56 C75.6831333,106.314675 74.9551406,107.798661 73.4991333,109.012 Z M69.6911333,107.276 C70.493804,107.276 71.1751305,106.996003 71.7351333,106.436 C72.2951361,105.875997 72.5751333,105.199337 72.5751333,104.406 C72.5751333,103.612663 72.2951361,102.931336 71.7351333,102.362 C71.1751305,101.792664 70.493804,101.508 69.6911333,101.508 L66.2471333,101.508 L66.2471333,107.276 L69.6911333,107.276 Z M80.1267,107.92 C80.1267,105.15732 81.0553574,102.786677 82.9127,100.808 C84.7700426,98.8293234 87.0333533,97.84 89.7027,97.84 C92.3720467,97.84 94.6353574,98.8433233 96.4927,100.85 C98.3500426,102.856677 99.2787,105.222653 99.2787,107.948 C99.2787,110.673347 98.3360427,113.025323 96.4507,115.004 C95.6106958,115.937338 94.6027059,116.669997 93.4267,117.202 C92.2506941,117.734003 91.0280397,118 89.7587,118 C87.0520198,118 84.7700426,117.010677 82.9127,115.032 C81.0553574,113.053323 80.1267,110.68268 80.1267,107.92 Z M85.1947,112.778 C86.4453729,114.13134 87.9526912,114.808 89.7167,114.808 C91.4807088,114.808 92.9833604,114.122007 94.2247,112.75 C95.4660395,111.377993 96.0867,109.768009 96.0867,107.92 C96.0867,106.071991 95.4707061,104.462007 94.2387,103.09 C93.0066938,101.717993 91.4993756,101.032 89.7167,101.032 C87.9340244,101.032 86.4220395,101.70866 85.1807,103.062 C83.9393604,104.41534 83.3187,106.034657 83.3187,107.92 C83.3187,109.805343 83.9440271,111.42466 85.1947,112.778 Z M106.298267,118 C105.868931,118 105.504935,117.850668 105.206267,117.552 C104.907598,117.253332 104.758267,116.889335 104.758267,116.46 L104.758267,99.94 C104.758267,99.5106645 104.907598,99.1466682 105.206267,98.848 C105.504935,98.5493318 105.868931,98.4 106.298267,98.4 C106.727602,98.4 107.096265,98.5493318 107.404267,98.848 C107.712268,99.1466682 107.866267,99.5106645 107.866267,99.94 L107.866267,114.892 L115.454267,114.892 C115.864935,114.892 116.224265,115.045998 116.532267,115.354 C116.840268,115.662002 116.994267,116.025998 116.994267,116.446 C116.994267,116.866002 116.840268,117.229998 116.532267,117.538 C116.224265,117.846002 115.864935,118 115.454267,118 L106.298267,118 Z M131.853833,117.02 L130.481833,113.38 L123.677833,113.38 L122.305833,117.02 C122.044499,117.673337 121.591837,118 120.947833,118 C120.30383,118 119.841835,117.771336 119.561833,117.314 C119.281832,116.856664 119.225832,116.385336 119.393833,115.9 L125.581833,99.408 C125.712501,99.1093318 125.913165,98.8666676 126.183833,98.68 C126.454501,98.4933324 126.748498,98.4093332 127.065833,98.428 C127.77517,98.3906665 128.269832,98.7173299 128.549833,99.408 L134.737833,115.9 C134.905834,116.385336 134.849835,116.856664 134.569833,117.314 C134.289832,117.771336 133.827837,118 133.183833,118 C132.53983,118 132.096501,117.673337 131.853833,117.02 Z M124.797833,110.3 L129.333833,110.3 L127.065833,104.28 L124.797833,110.3 Z M140.1894,118 L140.1614,117.972 C140.142733,117.972 140.114733,117.981333 140.0774,118 C139.648064,118 139.284068,117.850668 138.9854,117.552 C138.686732,117.253332 138.5374,116.889335 138.5374,116.46 L138.5374,99.94 C138.5374,99.5106645 138.686732,99.1466682 138.9854,98.848 C139.284068,98.5493318 139.648064,98.4 140.0774,98.4 L144.0534,98.4 C145.528074,98.4 146.783395,98.9179948 147.8194,99.954 C148.855405,100.990005 149.3734,102.17066 149.3734,103.496 C149.3734,104.82134 149.018737,105.959995 148.3094,106.912 C149.168071,107.453336 149.854064,108.171996 150.3674,109.068 C150.880736,109.964004 151.1374,110.934661 151.1374,111.98 C151.1374,113.641342 150.554072,115.059994 149.3874,116.236 C148.220727,117.412006 146.806742,118 145.1454,118 L140.1894,118 Z M141.6454,101.508 L141.6454,105.988 L144.0534,105.988 C144.669403,105.988 145.192064,105.764002 145.6214,105.316 C146.050735,104.867998 146.2654,104.336003 146.2654,103.72 C146.2654,103.103997 146.050735,102.581335 145.6214,102.152 C145.192064,101.722665 144.669403,101.508 144.0534,101.508 L141.6454,101.508 Z M141.6454,109.096 L141.6454,114.892 L145.1454,114.892 C145.948071,114.873333 146.629397,114.584003 147.1894,114.024 C147.749403,113.463997 148.0294,112.782671 148.0294,111.98 C148.0294,111.177329 147.749403,110.500669 147.1894,109.95 C146.629397,109.399331 145.948071,109.114667 145.1454,109.096 L141.6454,109.096 Z" id="AEROLAB" fill="#4A4A4A"></path>
        </g>
    </g>
</svg>