<?xml version="1.0" encoding="UTF-8"?>
<svg width="260px" height="216px" viewBox="0 0 260 216" version="1.1" xmlns="http://www.w3.org/2000/svg" xmlns:xlink="http://www.w3.org/1999/xlink" style="background: #FFFFFF;">
    <!-- Generator: Sketch 41.2 (35397) - http://www.bohemiancoding.com/sketch -->
    <title>episode-11</title>
    <desc>Created with Sketch.</desc>
    <defs>
        <rect id="path-1" x="0" y="66.7182175" width="182.946533" height="39.945383"></rect>
        <mask id="mask-2" maskContentUnits="userSpaceOnUse" maskUnits="objectBoundingBox" x="0" y="0" width="182.946533" height="39.945383" fill="white">
            <use xlink:href="#path-1"></use>
        </mask>
        <rect id="path-3" x="182.946533" y="46.745526" width="24.5416081" height="19.9726915"></rect>
        <mask id="mask-4" maskContentUnits="userSpaceOnUse" maskUnits="objectBoundingBox" x="0" y="0" width="24.5416081" height="19.9726915" fill="white">
            <use xlink:href="#path-3"></use>
        </mask>
    </defs>
    <g id="Page-1" stroke="none" stroke-width="1" fill="none" fill-rule="evenodd">
        <g id="episode-11">
            <g id="Group-2" transform="translate(13.000000, 23.000000)">
                <path d="M69.1572243,26.9821119 L43.9526163,45.5149119 L43.9526163,18.8276799 L69.1572243,0.29487987 L94.3618323,0.29487987 L94.3618323,176.232928 L69.1572243,176.232928 L69.1572243,26.9821119 Z M160.758383,26.9821119 L135.553775,45.5149119 L135.553775,18.8276799 L160.758383,0.29487987 L185.962991,0.29487987 L185.962991,176.232928 L160.758383,176.232928 L160.758383,26.9821119 Z" id="11" fill="#50E3C2"></path>
                <path d="M206.006935,16.909777 C198.424645,16.909777 198.424645,9.01933102 190.841256,9.01933102 C183.255668,9.01933102 183.255668,16.909777 175.67008,16.909777 C168.08779,16.909777 168.08779,9.01933102 160.503301,9.01933102 C152.915515,9.01933102 152.915515,16.909777 145.327728,16.909777 C137.738842,16.909777 137.738842,9.01933102 130.151055,9.01933102" id="Page-1-Copy" stroke="#5D3799" stroke-width="1.11486375" stroke-linecap="round"></path>
                <use id="Rectangle-2-Copy-2" stroke="#979797" mask="url(#mask-2)" stroke-width="2.2297275" xlink:href="#path-1"></use>
                <use id="Rectangle-2-Copy-3" stroke="#979797" mask="url(#mask-4)" stroke-width="2.2297275" xlink:href="#path-3"></use>
                <ellipse id="Oval-Copy-5" stroke="#979797" stroke-width="1.11486375" cx="229.474413" cy="154.011923" rx="4.46211057" ry="4.43837588"></ellipse>
            </g>
            <path d="M42.436,101.94 C42.436,102.369335 42.2820015,102.737998 41.974,103.046 C41.6659985,103.354002 41.3066687,103.508 40.896,103.508 L36.444,103.508 L36.444,118.46 C36.444,118.889335 36.2946682,119.253332 35.996,119.552 C35.6973318,119.850668 35.3333355,120 34.904,120 C34.4746645,120 34.1106682,119.850668 33.812,119.552 C33.5133318,119.253332 33.364,118.889335 33.364,118.46 L33.364,103.508 L28.94,103.508 C28.5106645,103.508 28.1466682,103.354002 27.848,103.046 C27.5493318,102.737998 27.4,102.369335 27.4,101.94 C27.4,101.510665 27.5493318,101.146668 27.848,100.848 C28.1466682,100.549332 28.5106645,100.4 28.94,100.4 L40.896,100.4 C41.3253355,100.4 41.6893318,100.549332 41.988,100.848 C42.2866682,101.146668 42.436,101.510665 42.436,101.94 Z M56.9875667,111.012 C58.2569063,111.982672 58.8915667,113.335991 58.8915667,115.072 C58.8728999,115.688003 58.9102329,116.238664 59.0035667,116.724 C59.4889024,116.873334 59.8155658,117.195331 59.9835667,117.69 C60.1515675,118.184669 60.0769016,118.646665 59.7595667,119.076 C59.4422317,119.505335 58.984903,119.72 58.3875667,119.72 L58.3595667,119.72 C57.5195625,119.72 56.8569024,119.290671 56.3715667,118.432 C55.9795647,117.610663 55.7835667,116.490674 55.7835667,115.072 C55.7462331,114.213329 55.3542371,113.541336 54.6075667,113.056 C54.1222309,112.738665 53.5995695,112.514667 53.0395667,112.384 L49.7355667,112.384 L49.7355667,118.46 C49.7355667,118.889335 49.5815682,119.253332 49.2735667,119.552 C48.9655651,119.850668 48.5969021,120 48.1675667,120 C47.7382312,120 47.3742348,119.850668 47.0755667,119.552 C46.7768985,119.253332 46.6275667,118.889335 46.6275667,118.46 L46.6275667,101.94 C46.6275667,101.510665 46.7768985,101.146668 47.0755667,100.848 C47.3742348,100.549332 47.7382312,100.4 48.1675667,100.4 L53.1795667,100.4 C54.8409083,100.4 56.2548942,100.987994 57.4215667,102.164 C58.5882392,103.340006 59.1715667,104.805325 59.1715667,106.56 C59.1715667,108.314675 58.4435739,109.798661 56.9875667,111.012 Z M53.1795667,109.276 C53.9822373,109.276 54.6635639,108.996003 55.2235667,108.436 C55.7835695,107.875997 56.0635667,107.199337 56.0635667,106.406 C56.0635667,105.612663 55.7835695,104.931336 55.2235667,104.362 C54.6635639,103.792664 53.9822373,103.508 53.1795667,103.508 L49.7355667,103.508 L49.7355667,109.276 L53.1795667,109.276 Z M75.8511333,119.02 L74.4791333,115.38 L67.6751333,115.38 L66.3031333,119.02 C66.0417987,119.673337 65.5891365,120 64.9451333,120 C64.3011301,120 63.8391347,119.771336 63.5591333,119.314 C63.2791319,118.856664 63.2231325,118.385336 63.3911333,117.9 L69.5791333,101.408 C69.7098006,101.109332 69.9104653,100.866668 70.1811333,100.68 C70.4518013,100.493332 70.7457984,100.409333 71.0631333,100.428 C71.7724702,100.390666 72.2671319,100.71733 72.5471333,101.408 L78.7351333,117.9 C78.9031342,118.385336 78.8471347,118.856664 78.5671333,119.314 C78.2871319,119.771336 77.8251365,120 77.1811333,120 C76.5371301,120 76.0938012,119.673337 75.8511333,119.02 Z M68.7951333,112.3 L73.3311333,112.3 L71.0631333,106.28 L68.7951333,112.3 Z M82.5347,118.46 L82.5347,101.94 C82.5347,101.510665 82.6840318,101.146668 82.9827,100.848 C83.2813681,100.549332 83.6453645,100.4 84.0747,100.4 L87.3787,100.4 C90.0853802,100.4 92.3906905,101.356657 94.2947,103.27 C96.1987095,105.183343 97.1507,107.49332 97.1507,110.2 C97.1507,112.90668 96.1987095,115.216657 94.2947,117.13 C92.3906905,119.043343 90.0853802,120 87.3787,120 L84.0747,120 C83.6453645,120 83.2813681,119.850668 82.9827,119.552 C82.6840318,119.253332 82.5347,118.889335 82.5347,118.46 Z M85.6427,103.508 L85.6427,116.892 L87.3787,116.892 C89.2267092,116.873333 90.7993602,116.21534 92.0967,114.918 C93.3940398,113.62066 94.0427,112.048009 94.0427,110.2 C94.0427,108.351991 93.3940398,106.774673 92.0967,105.468 C90.7993602,104.161327 89.2267092,103.508 87.3787,103.508 L85.6427,103.508 Z M104.170267,120 C103.740931,120 103.376935,119.850668 103.078267,119.552 C102.779598,119.253332 102.630267,118.889335 102.630267,118.46 L102.630267,101.94 C102.630267,101.510665 102.779598,101.146668 103.078267,100.848 C103.376935,100.549332 103.740931,100.4 104.170267,100.4 L113.326267,100.4 C113.736935,100.4 114.096265,100.549332 114.404267,100.848 C114.712268,101.146668 114.866267,101.510665 114.866267,101.94 C114.866267,102.369335 114.712268,102.737998 114.404267,103.046 C114.096265,103.354002 113.736935,103.508 113.326267,103.508 L105.738267,103.508 L105.738267,108.632 L112.262267,108.632 C112.672935,108.632 113.032265,108.785998 113.340267,109.094 C113.648268,109.402002 113.802267,109.765998 113.802267,110.186 C113.802267,110.606002 113.652935,110.969998 113.354267,111.278 C113.055598,111.586002 112.691602,111.74 112.262267,111.74 L105.738267,111.74 L105.738267,116.892 L113.326267,116.892 C113.736935,116.892 114.096265,117.045998 114.404267,117.354 C114.712268,117.662002 114.866267,118.025998 114.866267,118.446 C114.866267,118.866002 114.712268,119.229998 114.404267,119.538 C114.096265,119.846002 113.736935,120 113.326267,120 L104.254267,120 L104.198267,119.972 L104.170267,120 Z M123.565833,105.048 C122.20316,106.448007 121.521833,108.090657 121.521833,109.976 C121.521833,111.861343 122.21716,113.471327 123.607833,114.806 C124.998507,116.140673 126.608491,116.808 128.437833,116.808 C130.267176,116.808 131.825827,116.294672 133.113833,115.268 C133.431168,115.025332 133.813831,114.932 134.261833,114.988 C134.709836,115.044 135.073832,115.239998 135.353833,115.576 C135.615168,115.930668 135.717834,116.327331 135.661833,116.766 C135.605833,117.204669 135.409835,117.554665 135.073833,117.816 C133.207157,119.272007 131.051179,120 128.605833,120 C125.805819,120 123.397843,119.015343 121.381833,117.046 C119.365823,115.076657 118.3485,112.701347 118.329833,109.92 C118.3485,107.15732 119.365823,104.791343 121.381833,102.822 C123.397843,100.852657 125.805819,99.8586668 128.605833,99.84 C131.051179,99.84 133.207157,100.567993 135.073833,102.024 C135.409835,102.304001 135.605833,102.658665 135.661833,103.088 C135.717834,103.517335 135.610501,103.909332 135.339833,104.264 C135.069165,104.618668 134.709836,104.824 134.261833,104.88 C133.813831,104.936 133.431168,104.833335 133.113833,104.572 C131.86316,103.545328 130.318509,103.032 128.479833,103.032 C126.641157,103.032 125.003174,103.703993 123.565833,105.048 Z M150.7174,111.012 C151.98674,111.982672 152.6214,113.335991 152.6214,115.072 C152.602733,115.688003 152.640066,116.238664 152.7334,116.724 C153.218736,116.873334 153.545399,117.195331 153.7134,117.69 C153.881401,118.184669 153.806735,118.646665 153.4894,119.076 C153.172065,119.505335 152.714736,119.72 152.1174,119.72 L152.0894,119.72 C151.249396,119.72 150.586736,119.290671 150.1014,118.432 C149.709398,117.610663 149.5134,116.490674 149.5134,115.072 C149.476066,114.213329 149.08407,113.541336 148.3374,113.056 C147.852064,112.738665 147.329403,112.514667 146.7694,112.384 L143.4654,112.384 L143.4654,118.46 C143.4654,118.889335 143.311402,119.253332 143.0034,119.552 C142.695398,119.850668 142.326735,120 141.8974,120 C141.468064,120 141.104068,119.850668 140.8054,119.552 C140.506732,119.253332 140.3574,118.889335 140.3574,118.46 L140.3574,101.94 C140.3574,101.510665 140.506732,101.146668 140.8054,100.848 C141.104068,100.549332 141.468064,100.4 141.8974,100.4 L146.9094,100.4 C148.570742,100.4 149.984727,100.987994 151.1514,102.164 C152.318072,103.340006 152.9014,104.805325 152.9014,106.56 C152.9014,108.314675 152.173407,109.798661 150.7174,111.012 Z M146.9094,109.276 C147.712071,109.276 148.393397,108.996003 148.9534,108.436 C149.513403,107.875997 149.7934,107.199337 149.7934,106.406 C149.7934,105.612663 149.513403,104.931336 148.9534,104.362 C148.393397,103.792664 147.712071,103.508 146.9094,103.508 L143.4654,103.508 L143.4654,109.276 L146.9094,109.276 Z M169.580967,119.02 L168.208967,115.38 L161.404967,115.38 L160.032967,119.02 C159.771632,119.673337 159.31897,120 158.674967,120 C158.030963,120 157.568968,119.771336 157.288967,119.314 C157.008965,118.856664 156.952966,118.385336 157.120967,117.9 L163.308967,101.408 C163.439634,101.109332 163.640299,100.866668 163.910967,100.68 C164.181635,100.493332 164.475632,100.409333 164.792967,100.428 C165.502304,100.390666 165.996965,100.71733 166.276967,101.408 L172.464967,117.9 C172.632967,118.385336 172.576968,118.856664 172.296967,119.314 C172.016965,119.771336 171.55497,120 170.910967,120 C170.266963,120 169.823635,119.673337 169.580967,119.02 Z M162.524967,112.3 L167.060967,112.3 L164.792967,106.28 L162.524967,112.3 Z M177.804533,120 C177.375198,120 177.011201,119.850668 176.712533,119.552 C176.413865,119.253332 176.264533,118.889335 176.264533,118.46 L176.264533,101.94 C176.264533,101.510665 176.413865,101.146668 176.712533,100.848 C177.011201,100.549332 177.375198,100.4 177.804533,100.4 L186.960533,100.4 C187.371202,100.4 187.730532,100.553998 188.038533,100.862 C188.346535,101.170002 188.500533,101.533998 188.500533,101.954 C188.500533,102.374002 188.346535,102.737998 188.038533,103.046 C187.730532,103.354002 187.371202,103.508 186.960533,103.508 L179.372533,103.508 L179.372533,108.632 L185.896533,108.632 C186.307202,108.632 186.666532,108.785998 186.974533,109.094 C187.282535,109.402002 187.436533,109.765998 187.436533,110.186 C187.436533,110.606002 187.287201,110.969998 186.988533,111.278 C186.689865,111.586002 186.325869,111.74 185.896533,111.74 L179.372533,111.74 L179.372533,118.46 C179.372533,118.889335 179.218535,119.253332 178.910533,119.552 C178.602532,119.850668 178.233869,120 177.804533,120 Z M206.6921,101.94 C206.6921,102.369335 206.538101,102.737998 206.2301,103.046 C205.922098,103.354002 205.562769,103.508 205.1521,103.508 L200.7001,103.508 L200.7001,118.46 C200.7001,118.889335 200.550768,119.253332 200.2521,119.552 C199.953432,119.850668 199.589435,120 199.1601,120 C198.730764,120 198.366768,119.850668 198.0681,119.552 C197.769432,119.253332 197.6201,118.889335 197.6201,118.46 L197.6201,103.508 L193.1961,103.508 C192.766764,103.508 192.402768,103.354002 192.1041,103.046 C191.805432,102.737998 191.6561,102.369335 191.6561,101.94 C191.6561,101.510665 191.805432,101.146668 192.1041,100.848 C192.402768,100.549332 192.766764,100.4 193.1961,100.4 L205.1521,100.4 C205.581435,100.4 205.945432,100.549332 206.2441,100.848 C206.542768,101.146668 206.6921,101.510665 206.6921,101.94 Z M41.078,140.61 C41.4980021,140.544666 41.8759983,140.637999 42.212,140.89 C42.5480017,141.142001 42.7486663,141.477998 42.814,141.898 C42.8793337,142.318002 42.7906679,142.695998 42.548,143.032 L36.808,150.9 L36.808,158.46 C36.808,158.889335 36.6586682,159.253332 36.36,159.552 C36.0613318,159.850668 35.7020021,160 35.282,160 C34.8619979,160 34.4980015,159.850668 34.19,159.552 C33.8819985,159.253332 33.728,158.889335 33.728,158.46 L33.728,150.9 L28.044,143.032 C27.7826654,142.695998 27.6799997,142.322669 27.736,141.912 C27.7920003,141.501331 27.9973316,141.165335 28.352,140.904 C28.7066684,140.642665 29.0893313,140.544666 29.5,140.61 C29.9106687,140.675334 30.2373321,140.885332 30.48,141.24 L35.268,147.792 L40.056,141.24 C40.3173346,140.885332 40.6579979,140.675334 41.078,140.61 Z M60.8151333,159.888 C60.759133,159.888 60.6751339,159.832001 60.5631333,159.72 L60.5351333,159.72 C60.5164666,159.701333 60.4511339,159.654667 60.3391333,159.58 C60.3204666,159.542666 60.2924668,159.500667 60.2551333,159.454 C60.2177998,159.407333 60.1898001,159.374667 60.1711333,159.356 C60.1524666,159.337333 60.1291335,159.295334 60.1011333,159.23 C60.0731332,159.164666 60.0404668,159.113334 60.0031333,159.076 L53.1431333,142.724 C52.9751325,142.350665 52.9704659,141.963335 53.1291333,141.562 C53.2878008,141.160665 53.5724646,140.885334 53.9831333,140.736 C54.3564685,140.567999 54.7391314,140.563333 55.1311333,140.722 C55.5231353,140.880667 55.8031325,141.155998 55.9711333,141.548 L61.4311333,154.512 L66.8911333,141.548 C67.0591342,141.155998 67.343798,140.880667 67.7451333,140.722 C68.1464687,140.563333 68.5337981,140.567999 68.9071333,140.736 C69.2991353,140.885334 69.5744659,141.160665 69.7331333,141.562 C69.8918008,141.963335 69.8964674,142.350665 69.7471333,142.724 L62.8311333,159.076 L62.7191333,159.3 C62.7191333,159.318667 62.7098001,159.337333 62.6911333,159.356 L62.3271333,159.72 C62.2897998,159.757334 62.2291337,159.794666 62.1451333,159.832 C62.0611329,159.869334 61.9351342,159.916 61.7671333,159.972 L61.7111333,159.972 C61.6364663,159.990667 61.5384673,160 61.4171333,160 C61.2957994,160 61.2071336,159.990667 61.1511333,159.972 L61.0951333,159.972 C61.0204663,159.934666 60.9458004,159.916 60.8711333,159.916 L60.8431333,159.888 L60.8151333,159.888 Z M85.0827,151.012 C86.3520397,151.982672 86.9867,153.335991 86.9867,155.072 C86.9680332,155.688003 87.0053662,156.238664 87.0987,156.724 C87.5840357,156.873334 87.9106991,157.195331 88.0787,157.69 C88.2467008,158.184669 88.1720349,158.646665 87.8547,159.076 C87.5373651,159.505335 87.0800363,159.72 86.4827,159.72 L86.4547,159.72 C85.6146958,159.72 84.9520357,159.290671 84.4667,158.432 C84.074698,157.610663 83.8787,156.490674 83.8787,155.072 C83.8413665,154.213329 83.4493704,153.541336 82.7027,153.056 C82.2173642,152.738665 81.6947028,152.514667 81.1347,152.384 L77.8307,152.384 L77.8307,158.46 C77.8307,158.889335 77.6767015,159.253332 77.3687,159.552 C77.0606984,159.850668 76.6920355,160 76.2627,160 C75.8333645,160 75.4693681,159.850668 75.1707,159.552 C74.8720318,159.253332 74.7227,158.889335 74.7227,158.46 L74.7227,141.94 C74.7227,141.510665 74.8720318,141.146668 75.1707,140.848 C75.4693681,140.549332 75.8333645,140.4 76.2627,140.4 L81.2747,140.4 C82.9360416,140.4 84.3500275,140.987994 85.5167,142.164 C86.6833725,143.340006 87.2667,144.805325 87.2667,146.56 C87.2667,148.314675 86.5387073,149.798661 85.0827,151.012 Z M81.2747,149.276 C82.0773707,149.276 82.7586972,148.996003 83.3187,148.436 C83.8787028,147.875997 84.1587,147.199337 84.1587,146.406 C84.1587,145.612663 83.8787028,144.931336 83.3187,144.362 C82.7586972,143.792664 82.0773707,143.508 81.2747,143.508 L77.8307,143.508 L77.8307,149.276 L81.2747,149.276 Z" id="TRADECRAFT-Y-VR" fill="#4A4A4A"></path>
        </g>
    </g>
</svg>