<?xml version="1.0" encoding="UTF-8"?>
<svg width="200px" height="320px" viewBox="0 0 200 320" version="1.1" xmlns="http://www.w3.org/2000/svg" xmlns:xlink="http://www.w3.org/1999/xlink">
    <!-- Generator: Sketch 40 (33762) - http://www.bohemiancoding.com/sketch -->
    <title>particulas1</title>
    <desc>Created with Sketch.</desc>
    <defs></defs>
    <g id="Page-1" stroke="none" stroke-width="1" fill="none" fill-rule="evenodd">
        <g id="particulas1">
            <path d="M183.138178,107.578848 C183.138178,109.000957 181.987921,110.156335 180.569089,110.156335 C179.150257,110.156335 178,109.000957 178,107.578848 C178,106.154017 179.150257,105 180.569089,105 C181.987921,105 183.138178,106.154017 183.138178,107.578848" id="Fill-26" fill="#F4D207"></path>
            <path d="M130.138614,297.082609 C130.138614,299.336209 128.316921,301.165217 126.069307,301.165217 C123.821693,301.165217 122,299.336209 122,297.082609 C122,294.827648 123.821693,293 126.069307,293 C128.316921,293 130.138614,294.827648 130.138614,297.082609 L130.138614,297.082609 Z" id="Stroke-109" stroke="#BD0FE1"></path>
            <path d="M21.2079208,44.826087 C21.2079208,47.079687 19.3862277,48.9086957 17.1386139,48.9086957 C14.891,48.9086957 13.0693069,47.079687 13.0693069,44.826087 C13.0693069,42.5711261 14.891,40.7434783 17.1386139,40.7434783 C19.3862277,40.7434783 21.2079208,42.5711261 21.2079208,44.826087 L21.2079208,44.826087 Z" id="Stroke-117" stroke="#B3B3B3"></path>
            <path d="M84,112 L84,118.123913" id="Stroke-127" stroke="#CCCCCC" stroke-width="2" stroke-linecap="round"></path>
            <path d="M70,5 L70,11.123913" id="Stroke-127-Copy" stroke="#CCCCCC" stroke-width="2" stroke-linecap="round"></path>
            <path d="M81,115.009526 L87.0917525,115" id="Stroke-129" stroke="#CCCCCC" stroke-width="2" stroke-linecap="round"></path>
            <path d="M67,8.00952609 L73.0917525,8" id="Stroke-129-Copy" stroke="#CCCCCC" stroke-width="2" stroke-linecap="round"></path>
            <path d="M66.1381782,235.578848 C66.1381782,237.000957 64.9879208,238.156335 63.5690891,238.156335 C62.1502574,238.156335 61,237.000957 61,235.578848 C61,234.154017 62.1502574,233 63.5690891,233 C64.9879208,233 66.1381782,234.154017 66.1381782,235.578848" id="Fill-133" fill="#BD0FE1"></path>
            <path d="M12,310 L12,316.123913" id="Stroke-113" stroke="#CCCCCC" stroke-width="2" stroke-linecap="round"></path>
            <path d="M9,313.009526 L15.0917525,313" id="Stroke-115" stroke="#CCCCCC" stroke-width="2" stroke-linecap="round"></path>
            <path d="M146.138178,239.578848 C146.138178,241.000957 144.987921,242.156335 143.569089,242.156335 C142.150257,242.156335 141,241.000957 141,239.578848 C141,238.154017 142.150257,237 143.569089,237 C144.987921,237 146.138178,238.154017 146.138178,239.578848" id="Fill-119" fill="#CCCCCC"></path>
            <path d="M126.722337,52.848413 C126.722337,54.2705217 125.572079,55.4259 124.153248,55.4259 C122.734416,55.4259 121.584158,54.2705217 121.584158,52.848413 C121.584158,51.4235826 122.734416,50.2695652 124.153248,50.2695652 C125.572079,50.2695652 126.722337,51.4235826 126.722337,52.848413" id="Fill-121" fill="#CCCCCC"></path>
        </g>
    </g>
</svg>