<?xml version="1.0" encoding="UTF-8"?>
<svg width="200px" height="113px" viewBox="0 0 200 113" version="1.1" xmlns="http://www.w3.org/2000/svg" xmlns:xlink="http://www.w3.org/1999/xlink">
    <!-- Generator: Sketch 40 (33762) - http://www.bohemiancoding.com/sketch -->
    <title>squigly2</title>
    <desc>Created with Sketch.</desc>
    <defs></defs>
    <g id="Page-1" stroke="none" stroke-width="1" fill="none" fill-rule="evenodd">
        <g id="squigly2">
            <path d="M138.857143,51.009768 C131.17477,51.009768 131.17477,43 123.491284,43 C115.805569,43 115.805569,51.009768 108.119855,51.009768 C100.437482,51.009768 100.437482,43 92.752882,43 C85.06494,43 85.06494,51.009768 77.3769979,51.009768 C69.687942,51.009768 69.687942,43 62,43" id="Page-1-Copy-2" stroke="#F4D208" stroke-width="3" stroke-linecap="round"></path>
            <path d="M156.138614,78.0826087 C156.138614,80.3362087 154.316921,82.1652174 152.069307,82.1652174 C149.821693,82.1652174 148,80.3362087 148,78.0826087 C148,75.8276478 149.821693,74 152.069307,74 C154.316921,74 156.138614,75.8276478 156.138614,78.0826087 L156.138614,78.0826087 Z" id="Stroke-109-Copy" stroke="#BD0FE1"></path>
            <path d="M39,92 L39,98.123913" id="Stroke-113-Copy" stroke="#CCCCCC" stroke-width="2" stroke-linecap="round"></path>
            <path d="M36,95.0095261 L42.0917525,95" id="Stroke-115-Copy" stroke="#CCCCCC" stroke-width="2" stroke-linecap="round"></path>
        </g>
    </g>
</svg>