<?xml version="1.0" encoding="UTF-8"?>
<svg width="190px" height="138px" viewBox="0 0 190 138" version="1.1" xmlns="http://www.w3.org/2000/svg" xmlns:xlink="http://www.w3.org/1999/xlink">
    <!-- Generator: Sketch 40 (33762) - http://www.bohemiancoding.com/sketch -->
    <title>uxshot-logo</title>
    <desc>Created with Sketch.</desc>
    <defs>
        <rect id="path-1" x="0" y="0" width="163" height="113"></rect>
        <mask id="mask-2" maskContentUnits="userSpaceOnUse" maskUnits="objectBoundingBox" x="0" y="0" width="163" height="113" fill="white">
            <use xlink:href="#path-1"></use>
        </mask>
        <rect id="path-3" x="130.562189" y="0" width="32.4378109" height="32.5179856"></rect>
        <mask id="mask-4" maskContentUnits="userSpaceOnUse" maskUnits="objectBoundingBox" x="0" y="0" width="32.4378109" height="32.5179856" fill="white">
            <use xlink:href="#path-3"></use>
        </mask>
    </defs>
    <g id="Page-1" stroke="none" stroke-width="1" fill="none" fill-rule="evenodd">
        <g id="uxshot-logo">
            <g id="Group" transform="translate(12.000000, 11.000000)">
                <polygon id="Rectangle-5-Copy" fill="#50E3C2" points="161.047917 112.372349 161.047917 3 165 3 165 116 2 116 2 112.372349"></polygon>
                <use id="Rectangle-5" stroke="#50E3C2" mask="url(#mask-2)" stroke-width="8" fill="#FFFFFF" xlink:href="#path-1"></use>
                <path d="M42.9724804,86.1270131 C42.9724804,79.9895426 40.0092059,76.6976267 33.4117268,74.5774096 L31.7344016,74.0194577 C28.8829488,73.1267347 27.7088212,72.1782166 27.7088212,70.5601562 C27.7088212,68.9420958 28.7152163,67.6588065 31.5666691,67.6588065 C35.5922496,67.6588065 39.1705433,69.1652765 40.7360468,70.0022043 L41.1833336,61.2981553 C38.6114349,60.2938419 35.1449629,59.3453237 30.895739,59.3453237 C21.6704505,59.3453237 17.0298507,64.4226857 17.0298507,70.6159514 C17.0298507,76.9766026 19.4899277,80.4916993 26.6465152,82.8350971 L28.3797512,83.393049 C30.7280065,84.1183864 32.29351,85.178495 32.29351,86.7965554 C32.29351,88.5820013 31.2312041,90.2558569 27.429267,90.2558569 C24.2982599,90.2558569 20.8317879,89.2515436 17.5330483,87.298712 L17.0857616,96.1701466 C19.9931253,97.4534359 23.4595973,98.5693396 28.1561079,98.5693396 C38.3877916,98.5693396 42.9724804,93.1014114 42.9724804,86.1270131 L42.9724804,86.1270131 Z M79.928432,97.5650263 L79.928432,60.3496371 L69.4171941,60.3496371 L69.4171941,73.8520722 L58.7941345,73.8520722 L58.7941345,60.3496371 L48.2828966,60.3496371 L48.2828966,97.5650263 L58.7941345,97.5650263 L58.7941345,82.8350971 L69.4171941,82.8350971 L69.4171941,97.5650263 L79.928432,97.5650263 Z M117.555314,78.9294341 C117.555314,66.6544931 115.095237,59.3453237 101.564813,59.3453237 C87.9784793,59.3453237 85.0152048,66.6544931 85.0152048,78.9294341 C85.0152048,91.2601703 87.4752818,98.5693396 101.005705,98.5693396 C114.592039,98.5693396 117.555314,91.2601703 117.555314,78.9294341 L117.555314,78.9294341 Z M106.876343,80.993856 C106.876343,87.577688 104.919464,90.2558569 101.229348,90.2558569 C97.539233,90.2558569 95.6941753,87.577688 95.6941753,80.993856 L95.6941753,76.9208074 C95.6941753,70.3369754 97.6510546,67.6588065 101.34117,67.6588065 C105.031286,67.6588065 106.876343,70.3369754 106.876343,76.9208074 L106.876343,80.993856 Z M147.857875,69.0536861 L147.857875,60.3496371 L119.343347,60.3496371 L119.343347,69.0536861 L128.344992,69.0536861 L128.344992,97.5650263 L138.85623,97.5650263 L138.85623,69.0536861 L147.857875,69.0536861 Z M84.875827,52.6614324 L73.358194,33.3005028 L83.8135211,15.4460432 L72.1840664,15.4460432 L67.1520908,25.2659959 L67.09618,25.2659959 L61.8964719,15.4460432 L50.2670172,15.4460432 L60.6664334,33.3005028 L49.2047112,52.6614324 L61.1137201,52.6614324 L66.9843583,41.4465999 L67.0402691,41.4465999 L72.9668182,52.6614324 L84.875827,52.6614324 Z M45.1243335,39.1032021 L45.1243335,15.4460432 L34.6130956,15.4460432 L34.6130956,39.1032021 C34.6130956,43.0088652 32.9357704,45.1848774 29.8606742,45.1848774 C26.6737563,45.1848774 25.1082528,42.95307 25.1082528,39.1032021 L25.1082528,15.4460432 L14.5970149,15.4460432 L14.5970149,39.1032021 C14.5970149,50.4854201 20.4676531,53.6657457 29.3015658,53.6657457 C39.5891603,53.6657457 45.1243335,49.5926971 45.1243335,39.1032021 L45.1243335,39.1032021 Z" id="SHOT-Copy" fill="#50E3C2"></path>
                <use id="Rectangle-5" stroke="#50E3C2" mask="url(#mask-4)" stroke-width="8" xlink:href="#path-3"></use>
                <path d="M151.858841,24.1812142 C152.638925,24.9632262 153.905254,24.9647893 154.687266,24.1847053 C155.469278,23.4046214 155.470841,22.1382924 154.690757,21.3562803 L141.304018,7.93645393 C140.523934,7.1544419 139.257605,7.15287888 138.475593,7.93296282 C137.693581,8.71304677 137.692018,9.97937576 138.472102,10.7613878 L151.858841,24.1812142 Z" id="Line" fill="#50E3C2"></path>
                <path d="M155.09623,11.1678626 C155.876314,10.3858506 155.87475,9.11952159 155.092738,8.33943764 C154.310726,7.5593537 153.044397,7.56091672 152.264313,8.34292875 L138.877574,21.7627552 C138.09749,22.5447672 138.099053,23.8110962 138.881065,24.5911801 C139.663077,25.3712641 140.929406,25.3697011 141.70949,24.587689 L155.09623,11.1678626 Z" id="Line" fill="#50E3C2"></path>
            </g>
        </g>
    </g>
</svg>