<svg xmlns="http://www.w3.org/2000/svg" viewBox="0 0 13.94 11.15"><defs><style>.cls-1{fill:#fff;}</style></defs><title>Recurso 6</title><g id="Capa_2" data-name="Capa 2"><g id="Layer_1" data-name="Layer 1"><path id="_Trazado_" data-name="&lt;Trazado&gt;" class="cls-1" d="M13.94,1.32a5.7,5.7,0,0,1-1.65.44A2.83,2.83,0,0,0,13.55.21a5.72,5.72,0,0,1-1.82.68A2.87,2.87,0,0,0,9.65,0,2.83,2.83,0,0,0,6.79,2.81a3,3,0,0,0,.07.65A8.15,8.15,0,0,1,1,.51,2.76,2.76,0,0,0,.59,1.93,2.8,2.8,0,0,0,1.86,4.27,2.87,2.87,0,0,1,.56,3.92V4A2.77,2.77,0,0,0,.76,5a2.86,2.86,0,0,0,2.1,1.74,3.05,3.05,0,0,1-.75.1,2.8,2.8,0,0,1-.54-.05,2.85,2.85,0,0,0,2.67,2A5.79,5.79,0,0,1,.68,9.92a6.32,6.32,0,0,1-.68,0,8.22,8.22,0,0,0,4.38,1.26,8,8,0,0,0,7.94-6.31,7.71,7.71,0,0,0,.2-1.7c0-.12,0-.24,0-.37A5.73,5.73,0,0,0,13.94,1.32Z"/></g></g></svg>