<svg xmlns="http://www.w3.org/2000/svg" viewBox="0 0 131.24 29.91"><defs><style>.cls-1{fill:#f2f2f2;}.cls-2{fill:#00a19c;}</style></defs><title>Recurso 2</title><g id="Capa_2" data-name="Capa 2"><g id="Layer_1" data-name="Layer 1"><path class="cls-1" d="M38.44,22.38V17.67h.69v4.14h2.29v.57Z"/><path class="cls-1" d="M42.1,22.38V17.67h.69v4.71Z"/><path class="cls-1" d="M47.1,17.67h.65v4.71h-.53l-2.69-3.55v3.55h-.65V17.67h.52l2.7,3.57Z"/><path class="cls-1" d="M52.72,22.38h-.86l-2.32-2.22v2.22h-.69V17.67h.69v2.15l2.22-2.15h.85L50.22,20Z"/><path class="cls-1" d="M53.14,22.38V17.67h.69v4.71Z"/><path class="cls-1" d="M58.15,17.67h.65v4.71h-.53l-2.69-3.55v3.55h-.65V17.67h.52l2.7,3.57Z"/><path class="cls-1" d="M63.71,19.89v2.22a2.93,2.93,0,0,1-.76.24,4.47,4.47,0,0,1-.92.09,2.54,2.54,0,0,1-1.24-.29,1.93,1.93,0,0,1-.8-.83,3.17,3.17,0,0,1,0-2.58,1.89,1.89,0,0,1,.78-.83A2.41,2.41,0,0,1,62,17.62a2.78,2.78,0,0,1,.92.15,1.88,1.88,0,0,1,.71.43l-.25.51a2.34,2.34,0,0,0-.66-.39,2,2,0,0,0-.72-.12,1.45,1.45,0,0,0-1.16.47,2.06,2.06,0,0,0-.4,1.37,2.05,2.05,0,0,0,.41,1.39,1.53,1.53,0,0,0,1.21.47,3.59,3.59,0,0,0,1-.15V20.41H62v-.52Z"/><path class="cls-1" d="M70.34,19.89v2.22a2.93,2.93,0,0,1-.75.24,4.53,4.53,0,0,1-.92.09,2.53,2.53,0,0,1-1.23-.29,1.9,1.9,0,0,1-.8-.83,3.15,3.15,0,0,1,0-2.58,1.87,1.87,0,0,1,.78-.83,2.41,2.41,0,0,1,1.21-.29,2.75,2.75,0,0,1,.92.15,1.87,1.87,0,0,1,.72.43L70,18.7a2.4,2.4,0,0,0-.66-.39,2,2,0,0,0-.72-.12,1.44,1.44,0,0,0-1.17.47,2,2,0,0,0-.4,1.37,2.06,2.06,0,0,0,.41,1.39,1.54,1.54,0,0,0,1.21.47,3.6,3.6,0,0,0,1-.15V20.41h-1.1v-.52Z"/><path class="cls-1" d="M71.38,22.38V17.67h.69v4.14h2.29v.57Z"/><path class="cls-1" d="M75.66,22.15a2,2,0,0,1-.76-.84A2.86,2.86,0,0,1,74.63,20a2.91,2.91,0,0,1,.26-1.29,1.93,1.93,0,0,1,.76-.84,2.5,2.5,0,0,1,2.33,0,2,2,0,0,1,.76.84,3.25,3.25,0,0,1,0,2.56,2,2,0,0,1-.76.84,2.25,2.25,0,0,1-1.17.29A2.23,2.23,0,0,1,75.66,22.15Zm2.26-.75a2.1,2.1,0,0,0,.4-1.37,2.11,2.11,0,0,0-.39-1.37,1.35,1.35,0,0,0-1.1-.47,1.34,1.34,0,0,0-1.09.47A2.1,2.1,0,0,0,75.33,20a2.1,2.1,0,0,0,.39,1.37,1.33,1.33,0,0,0,1.09.48A1.35,1.35,0,0,0,77.92,21.4Z"/><path class="cls-1" d="M83.35,20.37a1.19,1.19,0,0,1,.22.74,1.14,1.14,0,0,1-.42.94,1.8,1.8,0,0,1-1.17.34h-2V17.67h2a1.78,1.78,0,0,1,1.14.33,1.19,1.19,0,0,1,.21,1.55,1.17,1.17,0,0,1-.55.41A1.15,1.15,0,0,1,83.35,20.37Zm-2.73-.66h1.19c.66,0,1-.25,1-.75a.64.64,0,0,0-.25-.55,1.25,1.25,0,0,0-.75-.18H80.62Zm2.05,1.93a.7.7,0,0,0,.24-.59.72.72,0,0,0-.24-.6,1.18,1.18,0,0,0-.75-.2h-1.3v1.56h1.3A1.26,1.26,0,0,0,82.67,21.65Z"/><path class="cls-1" d="M88,22.38l-.5-1.16H85.16l-.5,1.16H84l2.1-4.71h.57l2.1,4.71Zm-2.65-1.71h1.92l-1-2.23Z"/><path class="cls-1" d="M89.35,22.38V17.67H90v4.14h2.29v.57Z"/><path class="cls-1" d="M95.89,22.38V18.25H94.3v-.58h3.88v.58h-1.6v4.13Z"/><path class="cls-1" d="M102.13,17.67h.68v4.71h-.68V20.28H99.49v2.11h-.68V17.67h.68v2h2.63Z"/><path class="cls-1" d="M103.9,22.38V17.67h.69v4.71Z"/><path class="cls-1" d="M108.91,17.67h.65v4.71H109l-2.69-3.55v3.55h-.65V17.67h.52l2.7,3.57Z"/><path class="cls-1" d="M114.52,22.38h-.86l-2.32-2.22v2.22h-.69V17.67h.69v2.15l2.22-2.15h.85L112,20Z"/><path class="cls-1" d="M114.94,22.38V17.67h.69v4.71Z"/><path class="cls-1" d="M119.95,17.67h.65v4.71h-.53l-2.69-3.55v3.55h-.65V17.67h.52l2.7,3.57Z"/><path class="cls-1" d="M125.52,19.89v2.22a3,3,0,0,1-.76.24,4.52,4.52,0,0,1-.92.09,2.56,2.56,0,0,1-1.24-.29,1.92,1.92,0,0,1-.79-.83,3.18,3.18,0,0,1,0-2.58,1.88,1.88,0,0,1,.78-.83,2.41,2.41,0,0,1,1.21-.29,2.77,2.77,0,0,1,.92.15,1.85,1.85,0,0,1,.71.43l-.25.51a2.31,2.31,0,0,0-.66-.39,2,2,0,0,0-.72-.12,1.44,1.44,0,0,0-1.16.47,2,2,0,0,0-.41,1.37,2,2,0,0,0,.42,1.39,1.53,1.53,0,0,0,1.21.47,3.57,3.57,0,0,0,1-.15V20.41h-1.1v-.52Z"/><path class="cls-1" d="M44.42,25.15h.67l-1.66,4.71h-.57l-1.27-3.65-1.28,3.65h-.57l-1.65-4.71h.7L40,28.88l1.3-3.74h.51l1.28,3.75Z"/><path class="cls-1" d="M45.83,29.86V25.15h.69v4.71Z"/><path class="cls-1" d="M48.74,29.86V25.72H47.14v-.58H51v.58h-1.6v4.14Z"/><path class="cls-1" d="M55,25.15h.68v4.71H55V27.75H52.34v2.11h-.68V25.15h.68v2H55Z"/><path class="cls-1" d="M62.11,29.86l-.5-1.16H59.23l-.5,1.16H58l2.1-4.71h.58l2.1,4.71Zm-2.65-1.71h1.92l-1-2.23Z"/><path class="cls-1" d="M63.42,29.86V25.15h3v.56H64.1v1.48h2.18v.56H64.1v2.11Z"/><path class="cls-1" d="M67.17,29.86V25.15h3v.56H67.85v1.48H70v.56H67.85v2.11Z"/><path class="cls-1" d="M70.92,29.86V25.15h.69v4.71Z"/><path class="cls-1" d="M72.7,29.86V25.15h.69v4.14h2.28v.58Z"/><path class="cls-1" d="M76.36,29.86V25.15H77v4.71Z"/><path class="cls-1" d="M81.74,29.86l-.5-1.16H78.86l-.5,1.16h-.7l2.1-4.71h.58l2.1,4.71Zm-2.65-1.71H81l-1-2.23Z"/><path class="cls-1" d="M83.6,29.86V25.72H82v-.58h3.88v.58h-1.6v4.14Z"/><path class="cls-1" d="M86.52,29.86V25.15h3.06v.56H87.19v1.48h2.25v.56H87.19V29.3h2.39v.56Z"/><path class="cls-1" d="M95.42,25.15h.65v4.71h-.53l-2.69-3.55v3.55h-.65V25.15h.52l2.7,3.56Z"/><path class="cls-1" d="M97.16,29.86V25.15h3.06v.56H97.83v1.48h2.25v.56H97.83V29.3h2.39v.56Z"/><path class="cls-1" d="M101.07,29.86V25.15h3.06v.56h-2.39v1.48H104v.56h-2.25V29.3h2.39v.56Z"/><path class="cls-1" d="M105,25.15h1.65a2.42,2.42,0,0,1,1.77.62A2.31,2.31,0,0,1,109,27.5a2.34,2.34,0,0,1-.63,1.75,2.43,2.43,0,0,1-1.77.62H105Zm1.61,4.14a1.56,1.56,0,0,0,1.74-1.79,1.55,1.55,0,0,0-1.74-1.78h-.92v3.56Z"/><path class="cls-1" d="M110.5,29.77a2.17,2.17,0,0,1-.78-.44l.25-.51a2.4,2.4,0,0,0,.72.41,2.7,2.7,0,0,0,.83.12,1.44,1.44,0,0,0,.82-.2.63.63,0,0,0,.29-.56.49.49,0,0,0-.27-.46,3.33,3.33,0,0,0-.86-.28,5.38,5.38,0,0,1-.92-.27,1.4,1.4,0,0,1-.56-.42,1,1,0,0,1-.21-.67,1.24,1.24,0,0,1,.22-.73,1.42,1.42,0,0,1,.62-.49,2.27,2.27,0,0,1,.93-.18,2.91,2.91,0,0,1,.93.15,1.82,1.82,0,0,1,.72.43l-.24.51a2.51,2.51,0,0,0-.67-.4,2.07,2.07,0,0,0-.73-.13,1.35,1.35,0,0,0-.8.21.69.69,0,0,0-.29.59.54.54,0,0,0,.25.48,2.71,2.71,0,0,0,.82.3,6.77,6.77,0,0,1,1,.28,1.43,1.43,0,0,1,.58.39,1,1,0,0,1,.22.65,1.21,1.21,0,0,1-.22.72,1.37,1.37,0,0,1-.62.47,2.46,2.46,0,0,1-1,.17A3.3,3.3,0,0,1,110.5,29.77Z"/><path class="cls-2" d="M6.53,4.34a3.52,3.52,0,0,1,1.28,1.5,5.21,5.21,0,0,1,.45,2.23,5,5,0,0,1-.45,2.2,3.5,3.5,0,0,1-1.27,1.46,3.44,3.44,0,0,1-1.88.51,3.21,3.21,0,0,1-1.54-.36,2.59,2.59,0,0,1-1-1v4.23H0V4H2V5.24A2.55,2.55,0,0,1,3.1,4.18a3.24,3.24,0,0,1,1.57-.37A3.35,3.35,0,0,1,6.53,4.34ZM5.64,10a2.93,2.93,0,0,0,.55-1.9,3.11,3.11,0,0,0-.55-2,1.84,1.84,0,0,0-1.53-.7,1.84,1.84,0,0,0-1.53.68A3.05,3.05,0,0,0,2,8,3,3,0,0,0,2.58,10a1.84,1.84,0,0,0,1.53.68A1.86,1.86,0,0,0,5.64,10Z"/><path class="cls-2" d="M14.65,5.54l-1.21.12q-2.06.22-2.06,2.09v4.38H9.31V4h2V5.44a2.76,2.76,0,0,1,2.6-1.59l.63,0Z"/><path class="cls-2" d="M27,4.63a3.89,3.89,0,0,1,.68,2.51v5H25.64V7.23a2.28,2.28,0,0,0-.32-1.35,1.18,1.18,0,0,0-1-.42A1.59,1.59,0,0,0,23,6a2.42,2.42,0,0,0-.46,1.58v4.53H20.48V7.23a2.33,2.33,0,0,0-.31-1.35,1.18,1.18,0,0,0-1-.42A1.56,1.56,0,0,0,17.87,6a2.4,2.4,0,0,0-.47,1.58v4.53H15.33V4h2V5.15a2.43,2.43,0,0,1,1-1,3.12,3.12,0,0,1,1.48-.34,2.36,2.36,0,0,1,2.44,1.53,2.81,2.81,0,0,1,1.1-1.12A3.21,3.21,0,0,1,25,3.81,2.52,2.52,0,0,1,27,4.63Z"/><path class="cls-2" d="M35.18,4.64A3.48,3.48,0,0,1,36,7.2v4.93H34V10.88a2.17,2.17,0,0,1-.89,1,2.64,2.64,0,0,1-1.4.36,3.28,3.28,0,0,1-1.48-.33,2.64,2.64,0,0,1-1-.91,2.31,2.31,0,0,1-.38-1.29,2.06,2.06,0,0,1,.46-1.41,2.73,2.73,0,0,1,1.48-.74,13.26,13.26,0,0,1,2.84-.24H34V6.95a1.66,1.66,0,0,0-.35-1.19,1.6,1.6,0,0,0-1.19-.37,4.53,4.53,0,0,0-1.35.22,6.8,6.8,0,0,0-1.38.62l-.58-1.43a6.37,6.37,0,0,1,1.64-.71,6.55,6.55,0,0,1,1.83-.28A3.45,3.45,0,0,1,35.18,4.64Zm-1.67,5.57A2,2,0,0,0,34,8.77V8.42h-.3a11.79,11.79,0,0,0-1.73.1,1.72,1.72,0,0,0-.88.35.89.89,0,0,0-.26.68,1.14,1.14,0,0,0,.36.87,1.31,1.31,0,0,0,.93.34A1.78,1.78,0,0,0,33.51,10.21Z"/><path class="cls-2" d="M47,7v5.13H46V7.06a2.6,2.6,0,0,0-.48-1.74A1.93,1.93,0,0,0,44,4.77a2.58,2.58,0,0,0-1.92.73,2.67,2.67,0,0,0-.72,2v4.66h-1V.43h1v5a2.66,2.66,0,0,1,1.11-1.14,3.35,3.35,0,0,1,1.65-.4Q47,3.88,47,7Z"/><path class="cls-2" d="M55.55,8.22H49.46a3.46,3.46,0,0,0,.8,2.32,2.77,2.77,0,0,0,2.12.8,4,4,0,0,0,2.64-1l.4.8a3.87,3.87,0,0,1-1.35.8,4.86,4.86,0,0,1-1.69.3,3.83,3.83,0,0,1-2.9-1.11,4.24,4.24,0,0,1-1.06-3.05,4.89,4.89,0,0,1,.47-2.2A3.51,3.51,0,0,1,50.21,4.4a3.71,3.71,0,0,1,2-.52,3.11,3.11,0,0,1,2.47,1,4.23,4.23,0,0,1,.9,2.87ZM50.32,5.44a3.34,3.34,0,0,0-.83,2h5.13a3.16,3.16,0,0,0-.66-2,2.23,2.23,0,0,0-1.78-.73A2.45,2.45,0,0,0,50.32,5.44Z"/><path class="cls-2" d="M62.61,4.64a3.25,3.25,0,0,1,.72,2.31v5.18h-1V10.68a2.62,2.62,0,0,1-1,1.15,2.89,2.89,0,0,1-1.53.41,3.2,3.2,0,0,1-1.42-.32,2.48,2.48,0,0,1-1-.88A2.18,2.18,0,0,1,57,9.8a2,2,0,0,1,.47-1.4A2.87,2.87,0,0,1,59,7.7a16,16,0,0,1,3-.22h.35V6.87a2.39,2.39,0,0,0-.45-1.6,1.8,1.8,0,0,0-1.41-.5,4.64,4.64,0,0,0-1.4.21,5.5,5.5,0,0,0-1.39.67l-.38-.78a4.94,4.94,0,0,1,1.46-.72,5.57,5.57,0,0,1,1.66-.26A2.88,2.88,0,0,1,62.61,4.64Zm-1,6a2.6,2.6,0,0,0,.69-1.86V8.22H62a17.43,17.43,0,0,0-2.44.13,2.33,2.33,0,0,0-1.2.46,1.23,1.23,0,0,0-.35.94,1.44,1.44,0,0,0,.53,1.15,2,2,0,0,0,1.31.46A2.32,2.32,0,0,0,61.64,10.63Z"/><path class="cls-2" d="M65.22,12.13V.43h1v11.7Z"/><path class="cls-2" d="M72.47,11.33l-.05.85a6.33,6.33,0,0,1-.78,0,2.7,2.7,0,0,1-2.06-.74,2.81,2.81,0,0,1-.69-2V4.89H67.29V4.08h1.59V1.59h1V4.08h2.36v.81H69.9V9.34a2.18,2.18,0,0,0,.47,1.52,1.79,1.79,0,0,0,1.38.51A5.56,5.56,0,0,0,72.47,11.33Z"/><path class="cls-2" d="M80.17,7v5.13h-1V7.06a2.61,2.61,0,0,0-.48-1.74,1.94,1.94,0,0,0-1.53-.55,2.58,2.58,0,0,0-1.92.73,2.66,2.66,0,0,0-.72,2v4.66h-1V.43h1v5a2.62,2.62,0,0,1,1.1-1.14,3.35,3.35,0,0,1,1.65-.4Q80.17,3.88,80.17,7Z"/><path class="cls-2" d="M83.33,11.73A3.4,3.4,0,0,1,82,10.27a4.88,4.88,0,0,1-.46-2.17A4.94,4.94,0,0,1,82,5.88,3.49,3.49,0,0,1,83.36,4.4a3.85,3.85,0,0,1,2-.52A4.49,4.49,0,0,1,87,4.16a3.13,3.13,0,0,1,1.22.78l-.38.8A4.43,4.43,0,0,0,86.6,5a3.12,3.12,0,0,0-1.18-.23,2.56,2.56,0,0,0-2.05.88,3.69,3.69,0,0,0-.75,2.45,3.52,3.52,0,0,0,.75,2.39,2.57,2.57,0,0,0,2,.86,3.14,3.14,0,0,0,1.18-.23,5.11,5.11,0,0,0,1.21-.73l.38.78a3.55,3.55,0,0,1-1.26.79,4.38,4.38,0,0,1-1.57.29A3.8,3.8,0,0,1,83.33,11.73Z"/><path class="cls-2" d="M96.2,7v5.13h-1V7.06a2.61,2.61,0,0,0-.48-1.74,1.93,1.93,0,0,0-1.52-.55,2.57,2.57,0,0,0-1.92.73,2.65,2.65,0,0,0-.72,2v4.66h-1V.43h1v5a2.62,2.62,0,0,1,1.11-1.14,3.33,3.33,0,0,1,1.65-.4Q96.2,3.88,96.2,7Z"/><path class="cls-2" d="M104.72,8.22H98.63a3.46,3.46,0,0,0,.8,2.32,2.77,2.77,0,0,0,2.12.8,4,4,0,0,0,2.64-1l.4.8a3.84,3.84,0,0,1-1.35.8,4.84,4.84,0,0,1-1.69.3,3.83,3.83,0,0,1-2.9-1.11,4.24,4.24,0,0,1-1.06-3.05,4.88,4.88,0,0,1,.47-2.2A3.52,3.52,0,0,1,99.38,4.4a3.7,3.7,0,0,1,2-.52,3.11,3.11,0,0,1,2.47,1,4.23,4.23,0,0,1,.9,2.87ZM99.49,5.44a3.34,3.34,0,0,0-.83,2h5.13a3.12,3.12,0,0,0-.66-2,2.22,2.22,0,0,0-1.78-.73A2.45,2.45,0,0,0,99.49,5.44Z"/><path class="cls-2" d="M107.68,11.73a3.42,3.42,0,0,1-1.32-1.46,4.87,4.87,0,0,1-.46-2.17,5,5,0,0,1,.47-2.21A3.52,3.52,0,0,1,107.7,4.4a3.85,3.85,0,0,1,2-.52,4.48,4.48,0,0,1,1.57.28,3.14,3.14,0,0,1,1.22.78l-.38.8A4.43,4.43,0,0,0,111,5a3.13,3.13,0,0,0-1.19-.23,2.56,2.56,0,0,0-2,.88A3.67,3.67,0,0,0,107,8.09a3.51,3.51,0,0,0,.75,2.39,2.56,2.56,0,0,0,2,.86,3.16,3.16,0,0,0,1.19-.23,5.07,5.07,0,0,0,1.2-.73l.38.78a3.59,3.59,0,0,1-1.26.79,4.4,4.4,0,0,1-1.58.29A3.79,3.79,0,0,1,107.68,11.73Z"/><path class="cls-2" d="M120.65,12.13h-1.36l-4.4-3.91v3.91h-1V.43h1V7.79l4-3.72h1.31L116,7.94Z"/><path class="cls-2" d="M124.9,3.88V.47h-1.31V0h3.2V.47h-1.31v3.4Z"/><path class="cls-2" d="M130.79,0h.45V3.88h-.51V1.07l-1.16,2.18h-.38L128,1.1V3.88h-.51V0H128l1.41,2.68Z"/></g></g></svg>