<svg xmlns="http://www.w3.org/2000/svg" viewBox="0 0 130.02 16.69"><defs><style>.cls-1{fill:#fff;}</style></defs><title>Recurso 1</title><g id="Capa_2" data-name="Capa 2"><g id="Layer_1" data-name="Layer 1"><path class="cls-1" d="M7.36,4.41A4,4,0,0,1,8.81,6.11a5.92,5.92,0,0,1,.51,2.52,5.72,5.72,0,0,1-.51,2.49,3.9,3.9,0,0,1-1.43,1.65,3.86,3.86,0,0,1-2.12.58,3.64,3.64,0,0,1-1.74-.41,2.9,2.9,0,0,1-1.18-1.14v4.77H0V4H2.3V5.42A2.88,2.88,0,0,1,3.49,4.23a3.67,3.67,0,0,1,1.77-.42A3.77,3.77,0,0,1,7.36,4.41Zm-1,6.35A3.32,3.32,0,0,0,7,8.62a3.48,3.48,0,0,0-.62-2.21,2.07,2.07,0,0,0-1.72-.79,2.08,2.08,0,0,0-1.73.76A3.47,3.47,0,0,0,2.3,8.58a3.44,3.44,0,0,0,.61,2.17,2.08,2.08,0,0,0,1.73.76A2.1,2.1,0,0,0,6.36,10.77Z"/><path class="cls-1" d="M16.52,5.76l-1.37.13q-2.32.24-2.32,2.35v4.94H10.49V4h2.23V5.65a3.12,3.12,0,0,1,2.94-1.8l.71-.06Z"/><path class="cls-1" d="M30.47,4.74a4.38,4.38,0,0,1,.77,2.83v5.61H28.9V7.67a2.56,2.56,0,0,0-.36-1.52,1.32,1.32,0,0,0-1.14-.48,1.78,1.78,0,0,0-1.46.64,2.72,2.72,0,0,0-.53,1.78v5.11H23.08V7.67a2.64,2.64,0,0,0-.35-1.52,1.33,1.33,0,0,0-1.15-.48,1.78,1.78,0,0,0-1.44.64,2.73,2.73,0,0,0-.52,1.78v5.11H17.28V4h2.28V5.33A2.74,2.74,0,0,1,20.71,4.2a3.51,3.51,0,0,1,1.67-.38,2.66,2.66,0,0,1,2.75,1.72,3.09,3.09,0,0,1,1.24-1.26,3.55,3.55,0,0,1,1.79-.46A2.84,2.84,0,0,1,30.47,4.74Z"/><path class="cls-1" d="M39.66,4.75a3.93,3.93,0,0,1,.93,2.88v5.56H38.37v-1.4a2.46,2.46,0,0,1-1,1.14,3,3,0,0,1-1.58.41A3.62,3.62,0,0,1,34.12,13a2.89,2.89,0,0,1-1.18-1,2.56,2.56,0,0,1-.43-1.46A2.32,2.32,0,0,1,33,8.88,3.11,3.11,0,0,1,34.7,8a15.29,15.29,0,0,1,3.2-.26h.47V7.35A1.88,1.88,0,0,0,38,6a1.82,1.82,0,0,0-1.34-.41,5,5,0,0,0-1.52.25,7.59,7.59,0,0,0-1.56.7l-.66-1.61a7.22,7.22,0,0,1,1.85-.8,7.3,7.3,0,0,1,2.06-.32A3.91,3.91,0,0,1,39.66,4.75ZM37.78,11a2.28,2.28,0,0,0,.59-1.62V9H38a12.74,12.74,0,0,0-1.95.11,1.88,1.88,0,0,0-1,.39,1,1,0,0,0-.3.77,1.28,1.28,0,0,0,.41,1,1.48,1.48,0,0,0,1,.38A2,2,0,0,0,37.78,11Z"/><path class="cls-1" d="M44.31,12.74a3.86,3.86,0,0,1-1.49-1.65,5.5,5.5,0,0,1-.52-2.45,5.58,5.58,0,0,1,.53-2.49,4,4,0,0,1,1.51-1.67,4.34,4.34,0,0,1,2.28-.59,5.08,5.08,0,0,1,1.77.32,3.58,3.58,0,0,1,1.38.88l-.43.9A5.2,5.2,0,0,0,48,5.14a3.51,3.51,0,0,0-1.33-.26,2.87,2.87,0,0,0-2.31,1,4.12,4.12,0,0,0-.85,2.76,4,4,0,0,0,.84,2.7,2.9,2.9,0,0,0,2.3,1A3.45,3.45,0,0,0,48,12a5.92,5.92,0,0,0,1.36-.82l.43.88a4,4,0,0,1-1.42.88,4.92,4.92,0,0,1-1.78.33A4.34,4.34,0,0,1,44.31,12.74Z"/><path class="cls-1" d="M52.71,12.74a3.89,3.89,0,0,1-1.47-1.65,5.62,5.62,0,0,1-.52-2.49,5.6,5.6,0,0,1,.52-2.49,3.87,3.87,0,0,1,1.47-1.65,4.44,4.44,0,0,1,4.38,0,3.8,3.8,0,0,1,1.47,1.65,5.66,5.66,0,0,1,.51,2.49,5.68,5.68,0,0,1-.51,2.49,3.83,3.83,0,0,1-1.47,1.65,4.44,4.44,0,0,1-4.38,0Zm4.4-1.39A4.23,4.23,0,0,0,57.9,8.6a4.23,4.23,0,0,0-.8-2.74,3,3,0,0,0-4.4,0,4.27,4.27,0,0,0-.78,2.74,4.3,4.3,0,0,0,.77,2.75,2.66,2.66,0,0,0,2.21,1A2.73,2.73,0,0,0,57.11,11.35Z"/><path class="cls-1" d="M68.54,7.41v5.78H67.4V7.48a2.94,2.94,0,0,0-.54-2,2.18,2.18,0,0,0-1.72-.62A2.89,2.89,0,0,0,63,5.72a3,3,0,0,0-.82,2.21v5.26H61V4.11h1.12V5.67a3,3,0,0,1,1.24-1.32,3.79,3.79,0,0,1,1.88-.46Q68.54,3.89,68.54,7.41Z"/><path class="cls-1" d="M70.49,12.1l.43-.88a4.94,4.94,0,0,0,1.46.85,5.22,5.22,0,0,0,1.68.25,3,3,0,0,0,1.69-.4A1.35,1.35,0,0,0,76,9.87a2.68,2.68,0,0,0-1.25-.55L73.16,9a3.5,3.5,0,0,1-1.73-.91,2.13,2.13,0,0,1-.62-1.53,2.32,2.32,0,0,1,.92-1.91,3.81,3.81,0,0,1,2.45-.73A5.15,5.15,0,0,1,76,4.2a3.62,3.62,0,0,1,1.37.89L76.9,6a4.45,4.45,0,0,0-1.3-.82,3.86,3.86,0,0,0-1.43-.26,2.75,2.75,0,0,0-1.61.41A1.32,1.32,0,0,0,72,6.43a1.34,1.34,0,0,0,.36,1A2.32,2.32,0,0,0,73.48,8L75,8.34c1.65.37,2.47,1.19,2.47,2.43a2.18,2.18,0,0,1-.94,1.85,4.25,4.25,0,0,1-2.56.69A5.08,5.08,0,0,1,70.49,12.1Z"/><path class="cls-1" d="M86.88,4.11v9.07H85.75V11.56a3,3,0,0,1-1.23,1.31,3.64,3.64,0,0,1-1.8.45,3.13,3.13,0,0,1-2.42-.89,3.78,3.78,0,0,1-.81-2.63V4.11h1.14V9.73a3,3,0,0,0,.54,2,2.08,2.08,0,0,0,1.67.63,2.78,2.78,0,0,0,2.1-.83,3.07,3.07,0,0,0,.79-2.22V4.11Z"/><path class="cls-1" d="M89.4,13.19V0h1.14V13.19Z"/><path class="cls-1" d="M97.57,12.29l-.06,1a6.79,6.79,0,0,1-.88.05,3.05,3.05,0,0,1-2.32-.83,3.19,3.19,0,0,1-.78-2.27V5h-1.8V4.11h1.8V1.31h1.14v2.8h2.66V5H94.67v5a2.46,2.46,0,0,0,.54,1.72,2,2,0,0,0,1.56.58A5.73,5.73,0,0,0,97.57,12.29Z"/><path class="cls-1" d="M98.57.28h1.5V1.72h-1.5Zm.17,12.91V4.11h1.14v9.07Z"/><path class="cls-1" d="M109.94,7.41v5.78H108.8V7.48a2.93,2.93,0,0,0-.54-2,2.18,2.18,0,0,0-1.72-.62,2.9,2.9,0,0,0-2.16.83,3,3,0,0,0-.81,2.21v5.26h-1.14V4.11h1.12V5.67a3,3,0,0,1,1.24-1.32,3.79,3.79,0,0,1,1.88-.46Q109.94,3.89,109.94,7.41Z"/><path class="cls-1" d="M120.25,4.11v8.55a4.16,4.16,0,0,1-1,3,3.85,3.85,0,0,1-2.91,1,6.3,6.3,0,0,1-3.93-1.25l.45-.9a6.72,6.72,0,0,0,1.69.89,5.81,5.81,0,0,0,1.81.25,2.7,2.7,0,0,0,2.06-.73,3,3,0,0,0,.69-2.17V11a3,3,0,0,1-1.21,1.41,3.75,3.75,0,0,1-2,.49,4,4,0,0,1-2.12-.56,3.75,3.75,0,0,1-1.44-1.59,5.17,5.17,0,0,1-.52-2.36A5.17,5.17,0,0,1,112.38,6a3.75,3.75,0,0,1,1.44-1.59,4,4,0,0,1,2.12-.56,3.75,3.75,0,0,1,1.95.47,3,3,0,0,1,1.21,1.4V4.11ZM118.31,11a3.84,3.84,0,0,0,.79-2.56,3.84,3.84,0,0,0-.8-2.57,3.08,3.08,0,0,0-4.43,0,3.82,3.82,0,0,0-.81,2.58,3.79,3.79,0,0,0,.81,2.57,2.79,2.79,0,0,0,2.23.92A2.76,2.76,0,0,0,118.31,11Z"/><path class="cls-1" d="M128.32,3.88a3.31,3.31,0,0,1,1.24,1.24A3.48,3.48,0,0,1,130,6.88a3.44,3.44,0,0,1-.46,1.75,3.38,3.38,0,0,1-1.25,1.25,3.48,3.48,0,0,1-4.76-1.25,3.41,3.41,0,0,1-.46-1.75,3.49,3.49,0,0,1,.46-1.76,3.31,3.31,0,0,1,1.25-1.24,3.62,3.62,0,0,1,3.52,0Zm-.25,5.59a2.84,2.84,0,0,0,1.06-1.07,3,3,0,0,0,.39-1.52,3,3,0,0,0-.39-1.51,2.77,2.77,0,0,0-1.06-1.07,2.92,2.92,0,0,0-1.5-.39,3,3,0,0,0-1.51.39A2.76,2.76,0,0,0,124,5.36a3,3,0,0,0-.39,1.51A3,3,0,0,0,124,8.39a2.83,2.83,0,0,0,1.07,1.07,3,3,0,0,0,1.51.39A2.91,2.91,0,0,0,128.07,9.46Zm-.23-1.75.7,1.2h-1l-.74-1.31a.63.63,0,0,0-.2-.22.51.51,0,0,0-.28-.06h-.42V8.92H125V4.83h1.78a1.58,1.58,0,0,1,1.08.33,1.14,1.14,0,0,1,.38.91,1.15,1.15,0,0,1-.27.78,1.22,1.22,0,0,1-.75.4A.88.88,0,0,1,127.84,7.71Zm-.59-1.17a.54.54,0,0,0,.18-.44.53.53,0,0,0-.17-.44.83.83,0,0,0-.54-.14h-.8V6.68h.8A.84.84,0,0,0,127.25,6.54Z"/></g></g></svg>