<svg xmlns="http://www.w3.org/2000/svg" viewBox="0 0 13.93 10.22"><defs><style>.cls-1{fill:#fff;}</style></defs><title>Recurso 5</title><g id="Capa_2" data-name="Capa 2"><g id="Layer_1" data-name="Layer 1"><path class="cls-1" d="M13.8,2.2A3.2,3.2,0,0,0,13.24.76a2,2,0,0,0-1.4-.62C9.9,0,7,0,7,0H7S4,0,2.09.15A2,2,0,0,0,.69.76,3.17,3.17,0,0,0,.14,2.21,22.67,22.67,0,0,0,0,4.56v1.1A22.79,22.79,0,0,0,.14,8,3.16,3.16,0,0,0,.69,9.46a2.32,2.32,0,0,0,1.53.62c1.11.11,4.74.15,4.74.15s2.93,0,4.88-.15a2,2,0,0,0,1.4-.62A3.2,3.2,0,0,0,13.8,8a23.18,23.18,0,0,0,.14-2.35V4.56A23.15,23.15,0,0,0,13.8,2.2ZM9.29,5,5.53,7V2.91l1.7.92Z"/></g></g></svg>