<?xml version="1.0" encoding="UTF-8"?>
<svg width="448px" height="448px" viewBox="0 0 448 448" version="1.1" xmlns="http://www.w3.org/2000/svg" xmlns:xlink="http://www.w3.org/1999/xlink">
    <!-- Generator: Sketch 56 (81588) - https://sketch.com -->
    <title>linkedin-in-brands</title>
    <desc>Created with Sketch.</desc>
    <g id="Page-1" stroke="none" stroke-width="1" fill="none" fill-rule="evenodd">
        <g id="linkedin-in-brands" fill="#AFAFAF" fill-rule="nonzero">
            <path d="M100.28,448 L7.4,448 L7.4,148.9 L100.28,148.9 L100.28,448 Z M53.79,108.1 C24.09,108.1 0,83.5 0,53.8 C0,24.0926036 24.0826036,0.0100008015 53.79,0.0100008015 C83.4973964,0.0100008015 107.58,24.0926036 107.58,53.8 C107.58,83.5 83.48,108.1 53.79,108.1 Z M447.9,448 L355.22,448 L355.22,302.4 C355.22,267.7 354.52,223.2 306.93,223.2 C258.64,223.2 251.24,260.9 251.24,299.9 L251.24,448 L158.46,448 L158.46,148.9 L247.54,148.9 L247.54,189.7 L248.84,189.7 C261.24,166.2 291.53,141.4 336.72,141.4 C430.72,141.4 448,203.3 448,283.7 L448,448 L447.9,448 Z" id="Shape"></path>
        </g>
    </g>
</svg>